{
.appVersion = "1342";
DisplayStrings = (

glyphs = (
{
glyphname = alef_shin;
lastChange = "2020-10-23 14:08:25 +0000";
layers = (
{
anchors = (
{
name = bottom;
position = "{711, 0}";
},
{
name = center;
position = "{551, 397}";
},
{
name = top;
position = "{711, 678}";
},
{
name = topleft;
position = "{388, 600}";
}
);
components = (
{
name = "shin-hb";
}
);
layerId = "83682BA5-5A7B-4081-8B26-D550B6F33EEB";
paths = (
{
closed = 1;
nodes = (
"571 0 LINE",
"664 0 LINE",
"494 600 LINE",
"401 600 LINE"
);
},
{
closed = 1;
nodes = (
"563 263 LINE",
"618 263 OFFCURVE",
"657 302 OFFCURVE",
"657 356 CURVE",
"657 600 LINE",
"564 600 LINE",
"564 314 LINE",
"606 356 LINE",
"514 356 LINE",
"514 263 LINE"
);
},
{
closed = 1;
nodes = (
"554 600 LINE",
"538 507 LINE",
"657 507 LINE",
"657 600 LINE"
);
}
);
width = 684;
},
{
layerId = "E6A807D2-02F5-45B7-9AC8-B5230FFEC057";
paths = (
{
closed = 1;
nodes = (
"684 240 LINE",
"739 240 OFFCURVE",
"778 279 OFFCURVE",
"778 333 CURVE",
"778 600 LINE",
"668 600 LINE",
"668 291 LINE",
"727 363 LINE",
"626 363 LINE",
"626 240 LINE"
);
},
{
closed = 1;
nodes = (
"649 600 LINE",
"633 467 LINE",
"778 467 LINE",
"778 600 LINE"
);
},
{
closed = 1;
nodes = (
"555 600 LINE",
"461 599 LINE",
"674 0 LINE",
"784 0 LINE",
"574 600 LINE",
"447 601 LINE"
);
},
{
closed = 1;
nodes = (
"250 0 LINE",
"370 0 LINE",
"370 600 LINE",
"250 600 LINE"
);
},
{
closed = 1;
nodes = (
"231 600 LINE",
"205 467 LINE",
"370 467 LINE",
"370 600 LINE"
);
},
{
closed = 1;
nodes = (
"416 600 LINE",
"390 467 LINE",
"555 467 LINE",
"555 600 LINE"
);
},
{
closed = 1;
nodes = (
"65 0 LINE",
"185 0 LINE",
"185 600 LINE",
"65 600 LINE"
);
},
{
closed = 1;
nodes = (
"46 600 LINE",
"20 467 LINE",
"185 467 LINE",
"185 600 LINE"
);
},
{
closed = 1;
nodes = (
"461 0 LINE",
"516 0 OFFCURVE",
"555 39 OFFCURVE",
"555 93 CURVE",
"555 600 LINE",
"422 600 LINE",
"422 51 LINE",
"504 133 LINE",
"65 133 LINE",
"65 0 LINE"
);
}
);
width = 804;
},
{
layerId = "A98666DC-4638-42B6-8332-BBF4982DF0EF";
paths = (
{
closed = 1;
nodes = (
"473 600 LINE",
"457 547 LINE",
"531 547 LINE",
"531 600 LINE"
);
},
{
closed = 1;
nodes = (
"456 283 LINE SMOOTH",
"511 283 OFFCURVE",
"550 322 OFFCURVE",
"550 376 CURVE SMOOTH",
"550 600 LINE",
"497 600 LINE",
"497 324 LINE",
"519 346 LINE",
"446 346 LINE",
"446 283 LINE"
);
},
{
closed = 1;
nodes = (
"334 600 LINE",
"510 0 LINE",
"563 0 LINE",
"387 600 LINE"
);
},
{
closed = 1;
nodes = (
"182 0 LINE",
"235 0 LINE",
"235 600 LINE",
"182 600 LINE"
);
},
{
closed = 1;
nodes = (
"158 600 LINE",
"142 547 LINE",
"235 547 LINE",
"235 600 LINE"
);
},
{
closed = 1;
nodes = (
"280 600 LINE",
"264 547 LINE",
"357 547 LINE",
"357 600 LINE"
);
},
{
closed = 1;
nodes = (
"60 0 LINE",
"113 0 LINE",
"113 600 LINE",
"60 600 LINE"
);
},
{
closed = 1;
nodes = (
"36 600 LINE",
"20 547 LINE",
"113 547 LINE",
"113 600 LINE"
);
},
{
closed = 1;
nodes = (
"263 0 LINE",
"318 0 OFFCURVE",
"357 39 OFFCURVE",
"357 93 CURVE",
"357 600 LINE",
"304 600 LINE",
"304 21 LINE",
"336 53 LINE",
"90 53 LINE",
"90 0 LINE"
);
}
);
width = 583;
}
);
},
{
glyphname = "alef-hb";
lastChange = "2020-10-24 22:51:31 +0000";
layers = (
{
anchors = (
{
name = bottom;
position = "{208, 0}";
},
{
name = center;
position = "{99, 397}";
},
{
name = top;
position = "{259, 678}";
},
{
name = topleft;
position = "{-64, 600}";
}
);
layerId = "83682BA5-5A7B-4081-8B26-D550B6F33EEB";
paths = (
{
closed = 1;
nodes = (
"268 263 LINE SMOOTH",
"323 263 OFFCURVE",
"362 302 OFFCURVE",
"362 356 CURVE SMOOTH",
"362 600 LINE",
"267 600 LINE",
"267 314 LINE",
"311 356 LINE",
"219 356 LINE",
"219 263 LINE"
);
},
{
closed = 1;
nodes = (
"135 0 LINE",
"135 507 LINE",
"127 507 LINE",
"267 0 LINE",
"362 0 LINE",
"192 600 LINE",
"40 600 LINE",
"40 0 LINE"
);
},
{
closed = 1;
nodes = (
"40 600 LINE",
"20 507 LINE",
"192 507 LINE",
"192 600 LINE"
);
},
{
closed = 1;
nodes = (
"251 600 LINE",
"231 507 LINE",
"362 507 LINE",
"362 600 LINE"
);
}
);
width = 382;
},
{
anchors = (
{
name = bottom;
position = "{258, 0}";
},
{
name = center;
position = "{98, 397}";
},
{
name = top;
position = "{258, 678}";
},
{
name = topleft;
position = "{-65, 600}";
}
);
associatedMasterId = "83682BA5-5A7B-4081-8B26-D550B6F33EEB";
background = {
paths = (
{
closed = 1;
nodes = (
"1254 74 OFFCURVE",
"1370 190 OFFCURVE",
"1370 333 CURVE SMOOTH",
"1370 474 OFFCURVE",
"1254 590 OFFCURVE",
"1113 590 CURVE SMOOTH",
"969 590 OFFCURVE",
"854 473 OFFCURVE",
"854 333 CURVE SMOOTH",
"854 190 OFFCURVE",
"970 74 OFFCURVE",
"1113 74 CURVE SMOOTH"
);
},
{
closed = 1;
nodes = (
"514 154 OFFCURVE",
"582 189 OFFCURVE",
"624 244 CURVE SMOOTH",
"652 280 OFFCURVE",
"668 324 OFFCURVE",
"668 372 CURVE SMOOTH",
"668 492 OFFCURVE",
"564 590 OFFCURVE",
"438 590 CURVE SMOOTH",
"430 590 OFFCURVE",
"422 590 OFFCURVE",
"415 589 CURVE SMOOTH",
"299 572 OFFCURVE",
"207 485 OFFCURVE",
"207 372 CURVE SMOOTH",
"207 251 OFFCURVE",
"310 154 OFFCURVE",
"438 154 CURVE SMOOTH"
);
},
{
closed = 1;
nodes = (
"240 75 OFFCURVE",
"124 191 OFFCURVE",
"124 334 CURVE SMOOTH",
"124 474 OFFCURVE",
"239 591 OFFCURVE",
"383 591 CURVE SMOOTH",
"524 591 OFFCURVE",
"640 475 OFFCURVE",
"640 334 CURVE SMOOTH",
"640 191 OFFCURVE",
"524 75 OFFCURVE",
"383 75 CURVE SMOOTH"
);
}
);
};
layerId = "CBED41AE-F39B-4373-A634-9E4A0A044391";
name = "Oct 16 20, 16:10";
paths = (
{
closed = 1;
nodes = (
"268 0 LINE",
"361 0 LINE",
"191 600 LINE",
"98 600 LINE"
);
},
{
closed = 1;
nodes = (
"46 600 LINE",
"20 507 LINE",
"173 507 LINE",
"173 600 LINE"
);
},
{
closed = 1;
nodes = (
"260 263 LINE",
"315 263 OFFCURVE",
"354 302 OFFCURVE",
"354 356 CURVE",
"354 600 LINE",
"261 600 LINE",
"261 314 LINE",
"303 356 LINE",
"211 356 LINE",
"211 263 LINE"
);
},
{
closed = 1;
nodes = (
"47 0 LINE",
"140 0 LINE",
"140 600 LINE",
"47 600 LINE"
);
},
{
closed = 1;
nodes = (
"251 600 LINE",
"235 507 LINE",
"354 507 LINE",
"354 600 LINE"
);
}
);
width = 381;
},
{
anchors = (
{
name = bottom;
position = "{249, 0}";
},
{
name = bottomleft;
position = "{46, 0}";
},
{
name = center;
position = "{232, 250}";
},
{
name = top;
position = "{232, 500}";
},
{
name = topleft;
position = "{46, 500}";
}
);
layerId = "E6A807D2-02F5-45B7-9AC8-B5230FFEC057";
paths = (
{
closed = 1;
nodes = (
"163 1 LINE",
"169 508 LINE",
"101 508 LINE",
"282 0 LINE",
"418 0 LINE",
"208 600 LINE",
"41 600 LINE",
"41 1 LINE"
);
},
{
closed = 1;
nodes = (
"36 600 LINE",
"20 467 LINE",
"167 467 LINE",
"175 600 LINE"
);
},
{
closed = 1;
nodes = (
"279 600 LINE",
"263 467 LINE",
"418 467 LINE",
"418 600 LINE"
);
},
{
closed = 1;
nodes = (
"324 230 LINE SMOOTH",
"380 230 OFFCURVE",
"418 267 OFFCURVE",
"418 323 CURVE SMOOTH",
"418 600 LINE",
"292 600 LINE",
"292 281 LINE",
"367 353 LINE",
"266 353 LINE",
"266 230 LINE"
);
}
);
width = 438;
},
{
anchors = (
{
name = bottom;
position = "{180, 0}";
},
{
name = bottomleft;
position = "{15, 0}";
},
{
name = center;
position = "{130, 250}";
},
{
name = top;
position = "{156, 500}";
},
{
name = topleft;
position = "{15, 500}";
}
);
layerId = "A98666DC-4638-42B6-8332-BBF4982DF0EF";
paths = (
{
closed = 1;
nodes = (
"207 600 LINE",
"191 547 LINE",
"265 547 LINE",
"265 600 LINE"
);
},
{
closed = 1;
nodes = (
"190 283 LINE SMOOTH",
"245 283 OFFCURVE",
"284 322 OFFCURVE",
"284 376 CURVE SMOOTH",
"284 600 LINE",
"231 600 LINE",
"231 324 LINE",
"253 346 LINE",
"180 346 LINE",
"180 283 LINE"
);
},
{
closed = 1;
nodes = (
"31 600 LINE",
"15 547 LINE",
"89 547 LINE",
"89 600 LINE"
);
},
{
closed = 1;
nodes = (
"38 0 LINE",
"91 0 LINE",
"91 600 LINE",
"38 600 LINE"
);
},
{
closed = 1;
nodes = (
"68 600 LINE",
"244 0 LINE",
"297 0 LINE",
"121 600 LINE"
);
}
);
width = 312;
}
);
note = alefhebrew;
unicode = 05D0;
},
{
glyphname = "bet-hb";
lastChange = "2020-10-24 22:51:39 +0000";
layers = (
{
anchors = (
{
name = bottom;
position = "{157, 0}";
},
{
name = center;
position = "{83, 300}";
},
{
name = top;
position = "{193, 600}";
},
{
name = topleft;
position = "{43, 600}";
}
);
guideLines = (
{
angle = 90;
position = "{44, 439}";
}
);
layerId = "83682BA5-5A7B-4081-8B26-D550B6F33EEB";
paths = (
{
closed = 1;
nodes = (
"158 0 LINE",
"253 0 LINE",
"253 600 LINE",
"158 600 LINE"
);
},
{
closed = 1;
nodes = (
"40 600 LINE",
"20 507 LINE",
"253 507 LINE",
"253 600 LINE"
);
},
{
closed = 1;
nodes = (
"20 93 LINE",
"20 0 LINE",
"293 0 LINE",
"293 93 LINE"
);
}
);
width = 313;
},
{
anchors = (
{
name = bottom;
position = "{173, 0}";
},
{
name = bottomleft;
position = "{20, 0}";
},
{
name = center;
position = "{80, 300}";
},
{
name = top;
position = "{173, 500}";
},
{
name = topleft;
position = "{20, 500}";
}
);
layerId = "E6A807D2-02F5-45B7-9AC8-B5230FFEC057";
paths = (
{
closed = 1;
nodes = (
"149 0 LINE",
"285 0 LINE",
"285 600 LINE",
"149 600 LINE"
);
},
{
closed = 1;
nodes = (
"42 600 LINE",
"20 467 LINE",
"285 467 LINE",
"285 600 LINE"
);
},
{
closed = 1;
nodes = (
"20 133 LINE",
"20 0 LINE",
"325 0 LINE",
"325 133 LINE"
);
}
);
width = 345;
},
{
anchors = (
{
name = bottom;
position = "{165, 0}";
},
{
name = bottomleft;
position = "{15, 0}";
},
{
name = center;
position = "{95, 290}";
},
{
name = top;
position = "{145, 500}";
},
{
name = topleft;
position = "{15, 500}";
}
);
layerId = "A98666DC-4638-42B6-8332-BBF4982DF0EF";
paths = (
{
closed = 1;
nodes = (
"181 0 LINE",
"235 0 LINE",
"235 600 LINE",
"181 600 LINE"
);
},
{
closed = 1;
nodes = (
"31 600 LINE",
"15 547 LINE",
"235 547 LINE",
"235 600 LINE"
);
},
{
closed = 1;
nodes = (
"15 53 LINE",
"15 0 LINE",
"275 0 LINE",
"275 53 LINE"
);
}
);
width = 290;
}
);
note = bethebrew;
unicode = 05D1;
},
{
glyphname = "gimel-hb";
lastChange = "2020-10-24 22:51:57 +0000";
layers = (
{
anchors = (
{
name = bottom;
position = "{130, 0}";
},
{
name = center;
position = "{83, 420}";
},
{
name = top;
position = "{347, 600}";
},
{
name = topleft;
position = "{109, 600}";
}
);
layerId = "83682BA5-5A7B-4081-8B26-D550B6F33EEB";
paths = (
{
closed = 1;
nodes = (
"140 0 LINE",
"234 0 LINE",
"234 600 LINE",
"140 600 LINE"
);
},
{
closed = 1;
nodes = (
"58 600 LINE",
"38 507 LINE",
"172 507 LINE",
"172 600 LINE"
);
},
{
closed = 1;
nodes = (
"114 345 LINE SMOOTH",
"59 345 OFFCURVE",
"20 305 OFFCURVE",
"20 252 CURVE SMOOTH",
"20 0 LINE",
"114 0 LINE",
"114 294 LINE",
"71 252 LINE",
"234 252 LINE",
"234 345 LINE"
);
}
);
width = 254;
},
{
anchors = (
{
name = bottom;
position = "{158, 0}";
},
{
name = bottomleft;
position = "{38, 0}";
},
{
name = center;
position = "{105, 404}";
},
{
name = top;
position = "{158, 500}";
},
{
name = topleft;
position = "{38, 500}";
}
);
layerId = "E6A807D2-02F5-45B7-9AC8-B5230FFEC057";
paths = (
{
closed = 1;
nodes = (
"168 0 LINE",
"301 0 LINE",
"301 600 LINE",
"168 600 LINE"
);
},
{
closed = 1;
nodes = (
"114 354 LINE SMOOTH",
"58 354 OFFCURVE",
"20 316 OFFCURVE",
"20 261 CURVE SMOOTH",
"20 0 LINE",
"146 0 LINE",
"146 303 LINE",
"80 231 LINE",
"193 231 LINE",
"193 354 LINE"
);
},
{
closed = 1;
nodes = (
"102 600 LINE",
"80 467 LINE",
"301 467 LINE",
"301 600 LINE"
);
}
);
width = 321;
},
{
anchors = (
{
name = bottom;
position = "{98, 0}";
},
{
name = bottomleft;
position = "{15, 0}";
},
{
name = center;
position = "{68, 417}";
},
{
name = top;
position = "{98, 500}";
},
{
name = topleft;
position = "{15, 500}";
}
);
layerId = "A98666DC-4638-42B6-8332-BBF4982DF0EF";
paths = (
{
closed = 1;
nodes = (
"127 0 LINE",
"180 0 LINE",
"180 600 LINE",
"127 600 LINE"
);
},
{
closed = 1;
nodes = (
"51 600 LINE",
"35 547 LINE",
"159 547 LINE",
"159 600 LINE"
);
},
{
closed = 1;
nodes = (
"109 345 LINE",
"54 344 OFFCURVE",
"15 305 OFFCURVE",
"15 252 CURVE",
"15 0 LINE",
"68 0 LINE",
"68 304 LINE",
"46 292 LINE",
"178 292 LINE",
"178 345 LINE"
);
}
);
width = 195;
}
);
note = gimelhebrew;
unicode = 05D2;
},
{
glyphname = "dalet-hb";
lastChange = "2020-10-24 22:52:18 +0000";
layers = (
{
anchors = (
{
name = bottom;
position = "{206, 0}";
},
{
name = center;
position = "{90, 300}";
},
{
name = top;
position = "{317, 600}";
},
{
name = topleft;
position = "{56, 600}";
}
);
layerId = "83682BA5-5A7B-4081-8B26-D550B6F33EEB";
paths = (
{
closed = 1;
nodes = (
"40 600 LINE",
"20 507 LINE",
"300 507 LINE",
"300 600 LINE"
);
},
{
closed = 1;
nodes = (
"251 530 LINE",
"194 530 OFFCURVE",
"156 493 OFFCURVE",
"156 437 CURVE SMOOTH",
"156 0 LINE",
"251 0 LINE",
"251 530 LINE"
);
}
);
width = 320;
},
{
anchors = (
{
name = bottom;
position = "{426, 0}";
},
{
name = center;
position = "{246, 322}";
},
{
name = top;
position = "{337, 600}";
},
{
name = topleft;
position = "{58, 600}";
}
);
associatedMasterId = "83682BA5-5A7B-4081-8B26-D550B6F33EEB";
layerId = "8A7BF77B-C9AB-411D-8784-6045D7319F88";
name = "Apr 24 20, 14:14";
paths = (
{
closed = 1;
nodes = (
"46 600 LINE",
"20 507 LINE",
"320 507 LINE",
"320 600 LINE"
);
},
{
closed = 1;
nodes = (
"236 530 LINE",
"236 530 OFFCURVE",
"176 457 OFFCURVE",
"176 457 CURVE",
"176 0 LINE",
"269 0 LINE",
"270 530 LINE"
);
}
);
width = 340;
},
{
anchors = (
{
name = bottom;
position = "{176, 0}";
},
{
name = bottomleft;
position = "{16, 0}";
},
{
name = center;
position = "{76, 300}";
},
{
name = top;
position = "{176, 500}";
},
{
name = topleft;
position = "{16, 500}";
}
);
layerId = "E6A807D2-02F5-45B7-9AC8-B5230FFEC057";
paths = (
{
closed = 1;
nodes = (
"249 493 LINE SMOOTH",
"184 493 OFFCURVE",
"140 450 OFFCURVE",
"140 386 CURVE SMOOTH",
"140 0 LINE",
"276 0 LINE",
"276 493 LINE"
);
},
{
closed = 1;
nodes = (
"32 600 LINE",
"10 467 LINE",
"336 467 LINE",
"336 600 LINE"
);
}
);
width = 356;
},
{
anchors = (
{
name = bottom;
position = "{150, 0}";
},
{
name = bottomleft;
position = "{15, 0}";
},
{
name = center;
position = "{95, 290}";
},
{
name = top;
position = "{150, 500}";
},
{
name = topleft;
position = "{15, 500}";
}
);
layerId = "A98666DC-4638-42B6-8332-BBF4982DF0EF";
paths = (
{
closed = 1;
nodes = (
"31 600 LINE",
"15 547 LINE",
"285 547 LINE",
"285 600 LINE"
);
},
{
closed = 1;
nodes = (
"235 563 LINE",
"200 563 OFFCURVE",
"181 531 OFFCURVE",
"181 470 CURVE",
"181 0 LINE",
"234 0 LINE",
"234 563 LINE"
);
}
);
width = 300;
}
);
note = dalethebrew;
unicode = 05D3;
},
{
glyphname = "he-hb";
lastChange = "2020-10-24 22:52:21 +0000";
layers = (
{
anchors = (
{
name = bottom;
position = "{145, 0}";
},
{
name = center;
position = "{142, 300}";
},
{
name = top;
position = "{159, 600}";
},
{
name = topleft;
position = "{-145, 600}";
}
);
layerId = "83682BA5-5A7B-4081-8B26-D550B6F33EEB";
paths = (
{
closed = 1;
nodes = (
"168 0 LINE",
"263 0 LINE",
"263 600 LINE",
"168 600 LINE"
);
},
{
closed = 1;
nodes = (
"20 0 LINE",
"115 0 LINE",
"115 454 LINE",
"20 454 LINE"
);
},
{
closed = 1;
nodes = (
"40 600 LINE",
"20 507 LINE",
"263 507 LINE",
"263 600 LINE"
);
}
);
width = 283;
},
{
anchors = (
{
name = bottom;
position = "{184, 0}";
},
{
name = bottomleft;
position = "{31, 0}";
},
{
name = center;
position = "{178, 300}";
},
{
name = top;
position = "{184, 500}";
},
{
name = topleft;
position = "{31, 500}";
}
);
layerId = "E6A807D2-02F5-45B7-9AC8-B5230FFEC057";
paths = (
{
closed = 1;
nodes = (
"20 0 LINE",
"156 0 LINE",
"156 413 LINE",
"20 413 LINE"
);
},
{
closed = 1;
nodes = (
"42 600 LINE",
"20 467 LINE",
"346 467 LINE",
"346 600 LINE"
);
},
{
closed = 1;
nodes = (
"210 0 LINE",
"346 0 LINE",
"346 600 LINE",
"210 600 LINE"
);
}
);
width = 366;
},
{
anchors = (
{
name = bottom;
position = "{120, 0}";
},
{
name = bottomleft;
position = "{15, 0}";
},
{
name = center;
position = "{120, 290}";
},
{
name = top;
position = "{120, 500}";
},
{
name = topleft;
position = "{15, 500}";
}
);
layerId = "A98666DC-4638-42B6-8332-BBF4982DF0EF";
paths = (
{
closed = 1;
nodes = (
"171 0 LINE",
"225 0 LINE",
"225 600 LINE",
"171 600 LINE"
);
},
{
closed = 1;
nodes = (
"31 600 LINE",
"15 547 LINE",
"225 547 LINE",
"225 600 LINE"
);
},
{
closed = 1;
nodes = (
"17 0 LINE",
"71 0 LINE",
"71 467 LINE",
"17 467 LINE"
);
}
);
width = 240;
}
);
note = hehebrew;
unicode = 05D4;
},
{
glyphname = "vav-hb";
lastChange = "2020-10-24 22:52:25 +0000";
layers = (
{
anchors = (
{
name = bottom;
position = "{101, 0}";
},
{
name = center;
position = "{19, 300}";
},
{
name = top;
position = "{50, 600}";
},
{
name = topleft;
position = "{114, 600}";
}
);
layerId = "83682BA5-5A7B-4081-8B26-D550B6F33EEB";
paths = (
{
closed = 1;
nodes = (
"56 0 LINE",
"151 0 LINE",
"151 600 LINE",
"56 600 LINE"
);
},
{
closed = 1;
nodes = (
"40 600 LINE",
"20 507 LINE",
"151 507 LINE",
"151 600 LINE"
);
}
);
width = 171;
},
{
anchors = (
{
name = bottom;
position = "{99, 0}";
},
{
name = bottomleft;
position = "{16, 0}";
},
{
name = center;
position = "{14, 300}";
},
{
name = top;
position = "{109, 500}";
},
{
name = topleft;
position = "{6, 500}";
}
);
layerId = "E6A807D2-02F5-45B7-9AC8-B5230FFEC057";
paths = (
{
closed = 1;
nodes = (
"61 0 LINE",
"197 0 LINE",
"197 600 LINE",
"61 600 LINE"
);
},
{
closed = 1;
nodes = (
"42 600 LINE",
"20 467 LINE",
"197 467 LINE",
"197 600 LINE"
);
}
);
width = 217;
},
{
anchors = (
{
name = bottom;
position = "{62, 0}";
},
{
name = bottomleft;
position = "{15, 0}";
},
{
name = center;
position = "{15, 250}";
},
{
name = top;
position = "{62, 500}";
},
{
name = topleft;
position = "{40, 500}";
}
);
layerId = "A98666DC-4638-42B6-8332-BBF4982DF0EF";
paths = (
{
closed = 1;
nodes = (
"55 0 LINE",
"108 0 LINE",
"108 600 LINE",
"55 600 LINE"
);
},
{
closed = 1;
nodes = (
"31 600 LINE",
"15 547 LINE",
"108 547 LINE",
"108 600 LINE"
);
}
);
width = 123;
}
);
note = vavhebrew;
unicode = 05D5;
},
{
glyphname = "zayin-hb";
lastChange = "2020-10-24 22:52:30 +0000";
layers = (
{
anchors = (
{
name = bottom;
position = "{259, 0}";
},
{
name = center;
position = "{106, 243}";
},
{
name = top;
position = "{206, 600}";
},
{
name = topleft;
position = "{12, 600}";
}
);
associatedMasterId = "83682BA5-5A7B-4081-8B26-D550B6F33EEB";
layerId = "5EB86307-7D32-45DF-88D3-40E96A378120";
name = "Apr 24 20, 14:15";
paths = (
{
closed = 1;
nodes = (
"46 600 LINE",
"20 507 LINE",
"186 507 LINE",
"186 600 LINE"
);
},
{
closed = 1;
nodes = (
"66 0 LINE",
"159 0 LINE",
"159 457 LINE",
"159 457 OFFCURVE",
"99 530 OFFCURVE",
"99 530 CURVE",
"65 530 LINE"
);
}
);
width = 206;
},
{
anchors = (
{
name = bottom;
position = "{118, 0}";
},
{
name = center;
position = "{33, 300}";
},
{
name = top;
position = "{200, 600}";
},
{
name = topleft;
position = "{6, 600}";
}
);
layerId = "83682BA5-5A7B-4081-8B26-D550B6F33EEB";
paths = (
{
closed = 1;
nodes = (
"69 0 LINE",
"164 0 LINE",
"164 437 LINE SMOOTH",
"164 493 OFFCURVE",
"126 530 OFFCURVE",
"69 530 CURVE SMOOTH",
"69 530 LINE"
);
},
{
closed = 1;
nodes = (
"40 600 LINE",
"20 507 LINE",
"195 507 LINE",
"195 600 LINE"
);
}
);
visible = 1;
width = 215;
},
{
anchors = (
{
name = bottom;
position = "{80, 0}";
},
{
name = bottomleft;
position = "{15, 0}";
},
{
name = center;
position = "{15, 250}";
},
{
name = top;
position = "{80, 500}";
},
{
name = topleft;
position = "{31, 500}";
}
);
layerId = "A98666DC-4638-42B6-8332-BBF4982DF0EF";
paths = (
{
closed = 1;
nodes = (
"31 600 LINE",
"15 547 LINE",
"144 547 LINE",
"144 600 LINE"
);
},
{
closed = 1;
nodes = (
"60 0 LINE",
"113 0 LINE",
"113 470 LINE",
"113 531 OFFCURVE",
"94 563 OFFCURVE",
"59 563 CURVE",
"60 563 LINE"
);
}
);
width = 159;
},
{
anchors = (
{
name = bottom;
position = "{121, 0}";
},
{
name = bottomleft;
position = "{16, 0}";
},
{
name = center;
position = "{23, 300}";
},
{
name = top;
position = "{121, 500}";
},
{
name = topleft;
position = "{16, 500}";
}
);
layerId = "E6A807D2-02F5-45B7-9AC8-B5230FFEC057";
paths = (
{
closed = 1;
nodes = (
"32 600 LINE",
"10 467 LINE",
"208 467 LINE",
"208 600 LINE"
);
},
{
closed = 1;
nodes = (
"55 0 LINE",
"191 0 LINE",
"191 386 LINE",
"191 450 OFFCURVE",
"147 493 OFFCURVE",
"82 493 CURVE SMOOTH",
"55 493 LINE"
);
}
);
width = 228;
}
);
note = zayinhebrew;
unicode = 05D6;
},
{
glyphname = "het-hb";
lastChange = "2020-10-24 22:52:33 +0000";
layers = (
{
anchors = (
{
name = bottom;
position = "{180, 0}";
},
{
name = center;
position = "{179, 300}";
},
{
name = top;
position = "{280, 600}";
},
{
name = topleft;
position = "{-38, 600}";
}
);
layerId = "83682BA5-5A7B-4081-8B26-D550B6F33EEB";
paths = (
{
closed = 1;
nodes = (
"209 0 LINE",
"304 0 LINE",
"304 600 LINE",
"209 600 LINE"
);
},
{
closed = 1;
nodes = (
"54 0 LINE",
"149 0 LINE",
"149 600 LINE",
"54 600 LINE"
);
},
{
closed = 1;
nodes = (
"40 600 LINE",
"20 507 LINE",
"304 507 LINE",
"304 600 LINE"
);
}
);
width = 324;
},
{
anchors = (
{
name = bottom;
position = "{130, 0}";
},
{
name = bottomleft;
position = "{15, 0}";
},
{
name = center;
position = "{139, 290}";
},
{
name = top;
position = "{130, 500}";
},
{
name = topleft;
position = "{15, 500}";
}
);
layerId = "A98666DC-4638-42B6-8332-BBF4982DF0EF";
paths = (
{
closed = 1;
nodes = (
"191 0 LINE",
"245 0 LINE",
"245 600 LINE",
"191 600 LINE"
);
},
{
closed = 1;
nodes = (
"31 600 LINE",
"15 547 LINE",
"245 547 LINE",
"245 600 LINE"
);
},
{
closed = 1;
nodes = (
"44 0 LINE",
"98 0 LINE",
"98 547 LINE",
"44 547 LINE"
);
}
);
width = 260;
},
{
anchors = (
{
name = bottom;
position = "{204, 0}";
},
{
name = bottomleft;
position = "{26, 0}";
},
{
name = center;
position = "{225, 300}";
},
{
name = top;
position = "{204, 500}";
},
{
name = topleft;
position = "{26, 500}";
}
);
layerId = "E6A807D2-02F5-45B7-9AC8-B5230FFEC057";
paths = (
{
closed = 1;
nodes = (
"245 0 LINE",
"381 0 LINE",
"381 600 LINE",
"245 600 LINE"
);
},
{
closed = 1;
nodes = (
"61 0 LINE",
"197 0 LINE",
"197 600 LINE",
"61 600 LINE"
);
},
{
closed = 1;
nodes = (
"42 600 LINE",
"20 467 LINE",
"381 467 LINE",
"381 600 LINE"
);
}
);
width = 401;
}
);
note = hethebrew;
unicode = 05D7;
},
{
glyphname = "tet-hb";
lastChange = "2020-10-24 22:52:38 +0000";
layers = (
{
anchors = (
{
name = bottom;
position = "{195, 0}";
},
{
name = center;
position = "{188, 300}";
},
{
name = top;
position = "{268, 600}";
},
{
name = topleft;
position = "{-64, 600}";
}
);
layerId = "83682BA5-5A7B-4081-8B26-D550B6F33EEB";
paths = (
{
closed = 1;
nodes = (
"52 0 LINE",
"147 0 LINE",
"147 600 LINE",
"52 600 LINE"
);
},
{
closed = 1;
nodes = (
"230 0 LINE SMOOTH",
"286 0 OFFCURVE",
"324 37 OFFCURVE",
"324 93 CURVE SMOOTH",
"324 600 LINE",
"229 600 LINE",
"229 51 LINE",
"273 93 LINE",
"52 93 LINE",
"52 0 LINE"
);
},
{
closed = 1;
nodes = (
"46 600 LINE",
"26 507 LINE",
"147 507 LINE",
"147 600 LINE"
);
},
{
closed = 1;
nodes = (
"192 600 LINE",
"172 507 LINE",
"324 507 LINE",
"324 600 LINE"
);
}
);
width = 344;
},
{
anchors = (
{
name = bottom;
position = "{147, 0}";
},
{
name = bottomleft;
position = "{15, 0}";
},
{
name = center;
position = "{138, 290}";
},
{
name = top;
position = "{128, 500}";
},
{
name = topleft;
position = "{15, 500}";
}
);
layerId = "A98666DC-4638-42B6-8332-BBF4982DF0EF";
paths = (
{
closed = 1;
nodes = (
"147 0 LINE",
"202 0 OFFCURVE",
"241 39 OFFCURVE",
"241 93 CURVE",
"241 600 LINE",
"188 600 LINE",
"188 21 LINE",
"220 53 LINE",
"35 53 LINE",
"35 0 LINE"
);
},
{
closed = 1;
nodes = (
"35 0 LINE",
"88 0 LINE",
"88 600 LINE",
"35 600 LINE"
);
},
{
closed = 1;
nodes = (
"31 600 LINE",
"15 547 LINE",
"88 547 LINE",
"88 600 LINE"
);
},
{
closed = 1;
nodes = (
"154 600 LINE",
"138 547 LINE",
"241 547 LINE",
"241 600 LINE"
);
}
);
width = 256;
},
{
anchors = (
{
name = bottom;
position = "{199, 0}";
},
{
name = bottomleft;
position = "{16, 0}";
},
{
name = center;
position = "{210, 300}";
},
{
name = top;
position = "{199, 500}";
},
{
name = topleft;
position = "{16, 500}";
}
);
layerId = "E6A807D2-02F5-45B7-9AC8-B5230FFEC057";
paths = (
{
closed = 1;
nodes = (
"287 0 LINE SMOOTH",
"343 0 OFFCURVE",
"381 37 OFFCURVE",
"381 93 CURVE SMOOTH",
"381 600 LINE",
"245 600 LINE",
"245 51 LINE",
"330 133 LINE",
"46 133 LINE",
"46 0 LINE"
);
},
{
closed = 1;
nodes = (
"46 0 LINE",
"182 0 LINE",
"182 600 LINE",
"46 600 LINE"
);
},
{
closed = 1;
nodes = (
"42 600 LINE",
"20 467 LINE",
"182 467 LINE",
"182 600 LINE"
);
},
{
closed = 1;
nodes = (
"224 600 LINE",
"202 467 LINE",
"381 467 LINE",
"381 600 LINE"
);
}
);
width = 401;
}
);
note = tethebrew;
unicode = 05D8;
},
{
glyphname = "yod-hb";
lastChange = "2020-10-24 22:52:41 +0000";
layers = (
{
anchors = (
{
name = bottom;
position = "{93, 0}";
},
{
name = center;
position = "{-68, 361}";
},
{
name = top;
position = "{103, 600}";
},
{
name = topleft;
position = "{-93, 600}";
}
);
layerId = "83682BA5-5A7B-4081-8B26-D550B6F33EEB";
paths = (
{
closed = 1;
nodes = (
"56 220 LINE",
"151 220 LINE",
"151 600 LINE",
"56 600 LINE"
);
},
{
closed = 1;
nodes = (
"40 600 LINE",
"20 507 LINE",
"151 507 LINE",
"151 600 LINE"
);
}
);
width = 171;
},
{
anchors = (
{
name = bottom;
position = "{62, 0}";
},
{
name = bottomleft;
position = "{15, 0}";
},
{
name = center;
position = "{24, 250}";
},
{
name = top;
position = "{62, 500}";
},
{
name = topleft;
position = "{15, 500}";
}
);
layerId = "A98666DC-4638-42B6-8332-BBF4982DF0EF";
paths = (
{
closed = 1;
nodes = (
"55 220 LINE",
"108 220 LINE",
"108 600 LINE",
"55 600 LINE"
);
},
{
closed = 1;
nodes = (
"31 600 LINE",
"15 547 LINE",
"89 547 LINE",
"89 600 LINE"
);
}
);
width = 123;
},
{
anchors = (
{
name = bottom;
position = "{99, 0}";
},
{
name = bottomleft;
position = "{16, 0}";
},
{
name = center;
position = "{16, 300}";
},
{
name = top;
position = "{99, 500}";
},
{
name = topleft;
position = "{46, 500}";
}
);
layerId = "E6A807D2-02F5-45B7-9AC8-B5230FFEC057";
paths = (
{
closed = 1;
nodes = (
"61 220 LINE",
"197 220 LINE",
"197 600 LINE",
"61 600 LINE"
);
},
{
closed = 1;
nodes = (
"42 600 LINE",
"20 467 LINE",
"197 467 LINE",
"197 600 LINE"
);
}
);
width = 217;
}
);
note = yodhebrew;
unicode = 05D9;
},
{
glyphname = "finalkaf-hb";
lastChange = "2020-10-24 22:53:51 +0000";
layers = (
{
anchors = (
{
name = bottom;
position = "{89, 300}";
},
{
name = center;
position = "{82, 362}";
},
{
name = top;
position = "{152, 600}";
},
{
name = topleft;
position = "{-57, 600}";
}
);
layerId = "83682BA5-5A7B-4081-8B26-D550B6F33EEB";
paths = (
{
closed = 1;
nodes = (
"164 -80 LINE",
"259 -80 LINE",
"259 600 LINE",
"164 600 LINE"
);
},
{
closed = 1;
nodes = (
"40 600 LINE",
"20 507 LINE",
"259 507 LINE",
"259 600 LINE"
);
}
);
width = 279;
},
{
anchors = (
{
name = bottom;
position = "{100, 314}";
},
{
name = bottomleft;
position = "{20, 0}";
},
{
name = center;
position = "{100, 140}";
},
{
name = top;
position = "{153, 500}";
},
{
name = topleft;
position = "{20, 500}";
}
);
layerId = "E6A807D2-02F5-45B7-9AC8-B5230FFEC057";
paths = (
{
closed = 1;
nodes = (
"46 600 LINE",
"20 467 LINE",
"285 467 LINE",
"285 600 LINE"
);
},
{
closed = 1;
nodes = (
"165 -100 LINE",
"285 -100 LINE",
"285 600 LINE",
"165 600 LINE"
);
}
);
width = 305;
},
{
anchors = (
{
name = bottom;
position = "{95, 288}";
},
{
name = bottomleft;
position = "{15, 0}";
},
{
name = center;
position = "{95, 290}";
},
{
name = top;
position = "{120, 500}";
},
{
name = topleft;
position = "{15, 500}";
}
);
layerId = "A98666DC-4638-42B6-8332-BBF4982DF0EF";
paths = (
{
closed = 1;
nodes = (
"172 -80 LINE",
"225 -80 LINE",
"225 600 LINE",
"172 600 LINE"
);
},
{
closed = 1;
nodes = (
"31 600 LINE",
"15 547 LINE",
"225 547 LINE",
"225 600 LINE"
);
}
);
width = 240;
}
);
note = finalkafhebrew;
unicode = 05DA;
},
{
glyphname = "kaf-hb";
lastChange = "2020-10-24 22:52:46 +0000";
layers = (
{
anchors = (
{
name = bottom;
position = "{145, 0}";
},
{
name = center;
position = "{73, 300}";
},
{
name = top;
position = "{137, 600}";
},
{
name = topleft;
position = "{-49, 600}";
}
);
layerId = "83682BA5-5A7B-4081-8B26-D550B6F33EEB";
paths = (
{
closed = 1;
nodes = (
"143 0 LINE SMOOTH",
"199 0 OFFCURVE",
"237 37 OFFCURVE",
"237 93 CURVE SMOOTH",
"237 600 LINE",
"142 600 LINE",
"142 51 LINE",
"184 93 LINE",
"10 93 LINE",
"10 0 LINE"
);
},
{
closed = 1;
nodes = (
"30 600 LINE",
"10 507 LINE",
"237 507 LINE",
"237 600 LINE"
);
}
);
width = 257;
},
{
anchors = (
{
name = bottom;
position = "{129, 0}";
},
{
name = bottomleft;
position = "{15, 0}";
},
{
name = center;
position = "{95, 290}";
},
{
name = top;
position = "{129, 500}";
},
{
name = topleft;
position = "{15, 500}";
}
);
layerId = "A98666DC-4638-42B6-8332-BBF4982DF0EF";
paths = (
{
closed = 1;
nodes = (
"31 600 LINE",
"15 547 LINE",
"242 547 LINE",
"242 600 LINE"
);
},
{
closed = 1;
nodes = (
"148 0 LINE",
"203 0 OFFCURVE",
"242 39 OFFCURVE",
"242 93 CURVE",
"242 600 LINE",
"189 600 LINE",
"189 21 LINE",
"221 53 LINE",
"15 53 LINE",
"15 0 LINE"
);
}
);
width = 257;
},
{
anchors = (
{
name = bottom;
position = "{158, 0}";
},
{
name = bottomleft;
position = "{10, 0}";
},
{
name = center;
position = "{70, 300}";
},
{
name = top;
position = "{158, 500}";
},
{
name = topleft;
position = "{10, 500}";
}
);
layerId = "E6A807D2-02F5-45B7-9AC8-B5230FFEC057";
paths = (
{
closed = 1;
nodes = (
"211 0 LINE SMOOTH",
"267 0 OFFCURVE",
"305 37 OFFCURVE",
"305 93 CURVE SMOOTH",
"305 600 LINE",
"169 600 LINE",
"169 51 LINE",
"254 133 LINE",
"10 133 LINE",
"10 0 LINE"
);
},
{
closed = 1;
nodes = (
"32 600 LINE",
"10 467 LINE",
"305 467 LINE",
"305 600 LINE"
);
}
);
width = 325;
}
);
note = kafhebrew;
unicode = 05DB;
},
{
glyphname = "lamed-hb";
lastChange = "2020-10-24 22:52:49 +0000";
layers = (
{
anchors = (
{
name = bottom;
position = "{132, 0}";
},
{
name = center;
position = "{80, 300}";
},
{
name = top;
position = "{151, 600}";
},
{
name = topleft;
position = "{-98, 600}";
}
);
layerId = "83682BA5-5A7B-4081-8B26-D550B6F33EEB";
paths = (
{
closed = 1;
nodes = (
"195 507 LINE",
"152 549 LINE",
"152 200 LINE",
"79 0 LINE",
"174 0 LINE",
"247 200 LINE",
"247 600 LINE",
"72 600 LINE",
"115 558 LINE",
"115 657 LINE",
"20 657 LINE",
"20 507 LINE"
);
}
);
width = 267;
},
{
anchors = (
{
name = bottom;
position = "{132, 0}";
},
{
name = center;
position = "{76, 374}";
},
{
name = top;
position = "{227, 600}";
},
{
name = topleft;
position = "{-98, 600}";
}
);
associatedMasterId = "83682BA5-5A7B-4081-8B26-D550B6F33EEB";
layerId = "2D9A88BA-FF44-46E0-86CA-43D3B3E53EE4";
name = "Oct 17 20, 17:46";
paths = (
{
closed = 1;
nodes = (
"20 600 LINE",
"20 507 LINE",
"247 507 LINE",
"247 600 LINE"
);
},
{
closed = 1;
nodes = (
"153 200 LINE",
"247 200 LINE",
"247 507 LINE",
"153 507 LINE"
);
},
{
closed = 1;
nodes = (
"80 0 LINE",
"174 0 LINE",
"247 200 LINE",
"153 200 LINE"
);
},
{
closed = 1;
nodes = (
"20 507 LINE",
"114 507 LINE",
"114 657 LINE",
"20 657 LINE"
);
}
);
width = 267;
},
{
anchors = (
{
name = bottom;
position = "{112, 0}";
},
{
name = bottomleft;
position = "{15, 0}";
},
{
name = center;
position = "{95, 290}";
},
{
name = top;
position = "{112, 500}";
},
{
name = topleft;
position = "{15, 500}";
}
);
layerId = "A98666DC-4638-42B6-8332-BBF4982DF0EF";
paths = (
{
closed = 1;
nodes = (
"155 273 LINE",
"209 273 LINE",
"209 600 LINE",
"155 600 LINE"
);
},
{
closed = 1;
nodes = (
"15 600 LINE",
"15 547 LINE",
"209 547 LINE",
"209 600 LINE"
);
},
{
closed = 1;
nodes = (
"51 0 LINE",
"105 0 LINE",
"209 273 LINE",
"155 273 LINE"
);
},
{
closed = 1;
nodes = (
"15 547 LINE",
"69 547 LINE",
"69 659 LINE",
"15 659 LINE"
);
}
);
width = 224;
},
{
anchors = (
{
name = bottom;
position = "{178, 0}";
},
{
name = bottomleft;
position = "{30, 0}";
},
{
name = center;
position = "{90, 300}";
},
{
name = top;
position = "{178, 500}";
},
{
name = topleft;
position = "{30, 500}";
}
);
layerId = "E6A807D2-02F5-45B7-9AC8-B5230FFEC057";
paths = (
{
closed = 1;
nodes = (
"189 230 LINE",
"325 230 LINE",
"325 600 LINE",
"189 600 LINE"
);
},
{
closed = 1;
nodes = (
"107 0 LINE",
"243 0 LINE",
"325 230 LINE",
"189 230 LINE"
);
},
{
closed = 1;
nodes = (
"20 600 LINE",
"20 467 LINE",
"325 467 LINE",
"325 600 LINE"
);
},
{
closed = 1;
nodes = (
"20 467 LINE",
"156 467 LINE",
"156 657 LINE",
"20 657 LINE"
);
}
);
width = 345;
}
);
note = lamedhebrew;
unicode = 05DC;
},
{
glyphname = "finalmem-hb";
lastChange = "2020-10-24 22:38:00 +0000";
layers = (
{
layerId = "83682BA5-5A7B-4081-8B26-D550B6F33EEB";
paths = (
{
closed = 1;
nodes = (
"56 0 LINE",
"151 0 LINE",
"151 600 LINE",
"56 600 LINE"
);
},
{
closed = 1;
nodes = (
"207 0 LINE",
"302 0 LINE",
"302 600 LINE",
"207 600 LINE"
);
},
{
closed = 1;
nodes = (
"56 93 LINE",
"56 0 LINE",
"302 0 LINE",
"302 93 LINE"
);
},
{
closed = 1;
nodes = (
"40 600 LINE",
"20 507 LINE",
"302 507 LINE",
"302 600 LINE"
);
}
);
width = 322;
},
{
layerId = "E6A807D2-02F5-45B7-9AC8-B5230FFEC057";
paths = (
{
closed = 1;
nodes = (
"65 0 LINE",
"185 0 LINE",
"185 600 LINE",
"65 600 LINE"
);
},
{
closed = 1;
nodes = (
"46 600 LINE",
"20 467 LINE",
"384 467 LINE",
"384 600 LINE"
);
},
{
closed = 1;
nodes = (
"264 0 LINE",
"384 0 LINE",
"384 600 LINE",
"264 600 LINE"
);
},
{
closed = 1;
nodes = (
"65 133 LINE",
"65 0 LINE",
"384 0 LINE",
"384 133 LINE"
);
}
);
width = 404;
},
{
layerId = "A98666DC-4638-42B6-8332-BBF4982DF0EF";
paths = (
{
closed = 1;
nodes = (
"26 600 LINE",
"10 547 LINE",
"250 547 LINE",
"250 600 LINE"
);
},
{
closed = 1;
nodes = (
"45 0 LINE",
"99 0 LINE",
"99 600 LINE",
"45 600 LINE"
);
},
{
closed = 1;
nodes = (
"226 0 LINE",
"280 0 LINE",
"280 600 LINE",
"226 600 LINE"
);
},
{
closed = 1;
nodes = (
"45 53 LINE",
"45 0 LINE",
"280 0 LINE",
"280 53 LINE"
);
}
);
width = 290;
}
);
note = finalmemhebrew;
unicode = 05DD;
},
{
glyphname = "mem-hb";
lastChange = "2020-10-24 22:52:53 +0000";
layers = (
{
anchors = (
{
name = bottom;
position = "{178, 0}";
},
{
name = center;
position = "{183, 300}";
},
{
name = top;
position = "{180, 600}";
},
{
name = topleft;
position = "{-276, 600}";
}
);
layerId = "83682BA5-5A7B-4081-8B26-D550B6F33EEB";
paths = (
{
closed = 1;
nodes = (
"55 0 LINE",
"150 0 LINE",
"150 600 LINE",
"55 600 LINE"
);
},
{
closed = 1;
nodes = (
"215 0 LINE SMOOTH",
"271 0 OFFCURVE",
"309 37 OFFCURVE",
"309 93 CURVE SMOOTH",
"309 600 LINE",
"214 600 LINE",
"214 51 LINE",
"258 93 LINE",
"180 93 LINE",
"180 0 LINE"
);
},
{
closed = 1;
nodes = (
"40 600 LINE",
"20 507 LINE",
"309 507 LINE",
"309 600 LINE"
);
}
);
width = 329;
},
{
anchors = (
{
name = bottom;
position = "{142, 0}";
},
{
name = bottomleft;
position = "{15, 0}";
},
{
name = center;
position = "{158, 290}";
},
{
name = top;
position = "{142, 500}";
},
{
name = topleft;
position = "{15, 500}";
}
);
layerId = "A98666DC-4638-42B6-8332-BBF4982DF0EF";
paths = (
{
closed = 1;
nodes = (
"31 600 LINE",
"15 547 LINE",
"247 547 LINE",
"247 600 LINE"
);
},
{
closed = 1;
nodes = (
"174 0 LINE",
"229 0 OFFCURVE",
"268 39 OFFCURVE",
"268 93 CURVE",
"268 600 LINE",
"215 600 LINE",
"215 21 LINE",
"247 53 LINE",
"147 53 LINE",
"147 0 LINE"
);
},
{
closed = 1;
nodes = (
"55 0 LINE",
"109 0 LINE",
"109 600 LINE",
"55 600 LINE"
);
}
);
width = 283;
},
{
anchors = (
{
name = bottom;
position = "{203, 0}";
},
{
name = bottomleft;
position = "{8, 0}";
},
{
name = center;
position = "{218, 300}";
},
{
name = top;
position = "{203, 500}";
},
{
name = topleft;
position = "{8, 500}";
}
);
layerId = "E6A807D2-02F5-45B7-9AC8-B5230FFEC057";
paths = (
{
closed = 1;
nodes = (
"304 0 LINE SMOOTH",
"360 0 OFFCURVE",
"398 37 OFFCURVE",
"398 93 CURVE SMOOTH",
"398 600 LINE",
"262 600 LINE",
"262 51 LINE",
"347 133 LINE",
"227 133 LINE",
"227 0 LINE"
);
},
{
closed = 1;
nodes = (
"61 0 LINE",
"197 0 LINE",
"197 600 LINE",
"61 600 LINE"
);
},
{
closed = 1;
nodes = (
"42 600 LINE",
"20 467 LINE",
"398 467 LINE",
"398 600 LINE"
);
}
);
width = 418;
}
);
note = memhebrew;
unicode = 05DE;
},
{
glyphname = "finalnun-hb";
lastChange = "2020-10-24 23:07:05 +0000";
layers = (
{
layerId = "83682BA5-5A7B-4081-8B26-D550B6F33EEB";
paths = (
{
closed = 1;
nodes = (
"62 -80 LINE",
"157 -80 LINE",
"157 600 LINE",
"62 600 LINE"
);
},
{
closed = 1;
nodes = (
"46 600 LINE",
"26 507 LINE",
"157 507 LINE",
"157 600 LINE"
);
}
);
width = 183;
},
{
layerId = "E6A807D2-02F5-45B7-9AC8-B5230FFEC057";
paths = (
{
closed = 1;
nodes = (
"61 -100 LINE",
"197 -100 LINE",
"197 600 LINE",
"61 600 LINE"
);
},
{
closed = 1;
nodes = (
"42 600 LINE",
"20 467 LINE",
"197 467 LINE",
"197 600 LINE"
);
}
);
width = 217;
},
{
layerId = "A98666DC-4638-42B6-8332-BBF4982DF0EF";
paths = (
{
closed = 1;
nodes = (
"55 -80 LINE",
"108 -80 LINE",
"108 600 LINE",
"55 600 LINE"
);
},
{
closed = 1;
nodes = (
"31 600 LINE",
"15 547 LINE",
"89 547 LINE",
"89 600 LINE"
);
}
);
width = 123;
}
);
note = finalnunhebrew;
unicode = 05DF;
},
{
glyphname = "nun-hb";
lastChange = "2020-10-24 22:52:59 +0000";
layers = (
{
anchors = (
{
name = bottom;
position = "{91, 0}";
},
{
name = bottomleft;
position = "{20, 0}";
},
{
name = center;
position = "{30, 300}";
},
{
name = top;
position = "{96, 600}";
},
{
name = topleft;
position = "{55, 600}";
}
);
layerId = "83682BA5-5A7B-4081-8B26-D550B6F33EEB";
paths = (
{
closed = 1;
nodes = (
"20 93 LINE",
"20 0 LINE",
"164 0 LINE",
"164 93 LINE"
);
},
{
closed = 1;
nodes = (
"69 0 LINE",
"164 0 LINE",
"164 600 LINE",
"69 600 LINE"
);
},
{
closed = 1;
nodes = (
"53 600 LINE",
"33 507 LINE",
"164 507 LINE",
"164 600 LINE"
);
}
);
width = 184;
},
{
anchors = (
{
name = bottom;
position = "{68, 0}";
},
{
name = bottomleft;
position = "{15, 0}";
},
{
name = center;
position = "{41, 290}";
},
{
name = top;
position = "{67, 500}";
},
{
name = topleft;
position = "{15, 500}";
}
);
layerId = "A98666DC-4638-42B6-8332-BBF4982DF0EF";
paths = (
{
closed = 1;
nodes = (
"65 0 LINE",
"118 0 LINE",
"118 600 LINE",
"65 600 LINE"
);
},
{
closed = 1;
nodes = (
"41 600 LINE",
"25 547 LINE",
"99 547 LINE",
"99 600 LINE"
);
},
{
closed = 1;
nodes = (
"15 53 LINE",
"15 0 LINE",
"118 0 LINE",
"118 53 LINE"
);
}
);
width = 133;
},
{
anchors = (
{
name = bottom;
position = "{125, 0}";
},
{
name = bottomleft;
position = "{42, 0}";
},
{
name = center;
position = "{42, 300}";
},
{
name = top;
position = "{133, 497}";
},
{
name = topleft;
position = "{21, 500}";
}
);
layerId = "E6A807D2-02F5-45B7-9AC8-B5230FFEC057";
paths = (
{
closed = 1;
nodes = (
"71 0 LINE",
"207 0 LINE",
"207 600 LINE",
"71 600 LINE"
);
},
{
closed = 1;
nodes = (
"52 600 LINE",
"30 467 LINE",
"207 467 LINE",
"207 600 LINE"
);
},
{
closed = 1;
nodes = (
"20 133 LINE",
"20 0 LINE",
"207 0 LINE",
"207 133 LINE"
);
}
);
width = 227;
}
);
note = nunhebrew;
unicode = 05E0;
},
{
glyphname = "samekh-hb";
lastChange = "2020-10-24 22:53:04 +0000";
layers = (
{
anchors = (
{
name = bottom;
position = "{181, 0}";
},
{
name = center;
position = "{184, 300}";
},
{
name = top;
position = "{174, 600}";
},
{
name = topleft;
position = "{-17, 600}";
}
);
layerId = "83682BA5-5A7B-4081-8B26-D550B6F33EEB";
paths = (
{
closed = 1;
nodes = (
"56 0 LINE",
"151 0 LINE",
"151 600 LINE",
"56 600 LINE"
);
},
{
closed = 1;
nodes = (
"217 0 LINE SMOOTH",
"275 0 OFFCURVE",
"313 37 OFFCURVE",
"313 93 CURVE SMOOTH",
"313 600 LINE",
"218 600 LINE",
"218 51 LINE",
"262 93 LINE",
"56 93 LINE",
"56 0 LINE"
);
},
{
closed = 1;
nodes = (
"40 600 LINE",
"20 507 LINE",
"313 507 LINE",
"313 600 LINE"
);
}
);
width = 333;
},
{
anchors = (
{
name = bottom;
position = "{347, 0}";
},
{
name = center;
position = "{365, 305}";
},
{
name = top;
position = "{341, 600}";
},
{
name = topleft;
position = "{29, 600}";
}
);
associatedMasterId = "83682BA5-5A7B-4081-8B26-D550B6F33EEB";
layerId = "9F6CD9BE-F2D8-4D3A-A47E-C8822B17D2CD";
name = "Dec 7 18, 14:12";
paths = (
{
closed = 1;
nodes = (
"212 523 LINE",
"142 483 OFFCURVE",
"59 360 OFFCURVE",
"59 276 CURVE SMOOTH",
"59 174 OFFCURVE",
"159 93 OFFCURVE",
"325 93 CURVE SMOOTH",
"565 93 OFFCURVE",
"611 235 OFFCURVE",
"611 327 CURVE SMOOTH",
"611 451 OFFCURVE",
"460 613 OFFCURVE",
"243 613 CURVE SMOOTH",
"127 613 OFFCURVE",
"50 550 OFFCURVE",
"50 462 CURVE SMOOTH",
"50 362 OFFCURVE",
"162 281 OFFCURVE",
"352 278 CURVE SMOOTH",
"511 275 OFFCURVE",
"625 287 OFFCURVE",
"700 319 CURVE",
"647 395 LINE",
"598 337 OFFCURVE",
"499 306 OFFCURVE",
"352 307 CURVE SMOOTH",
"196 308 OFFCURVE",
"100 365 OFFCURVE",
"100 451 CURVE SMOOTH",
"100 507 OFFCURVE",
"162 550 OFFCURVE",
"243 550 CURVE SMOOTH",
"366 550 OFFCURVE",
"445 451 OFFCURVE",
"445 327 CURVE SMOOTH",
"445 286 OFFCURVE",
"466 122 OFFCURVE",
"325 122 CURVE SMOOTH",
"212 122 OFFCURVE",
"162 225 OFFCURVE",
"162 281 CURVE SMOOTH",
"162 342 OFFCURVE",
"216 441 OFFCURVE",
"283 483 CURVE"
);
}
);
width = 640;
},
{
anchors = (
{
name = bottom;
position = "{165, 0}";
},
{
name = bottomleft;
position = "{15, 0}";
},
{
name = center;
position = "{169, 290}";
},
{
name = top;
position = "{150, 500}";
},
{
name = topleft;
position = "{15, 500}";
}
);
layerId = "A98666DC-4638-42B6-8332-BBF4982DF0EF";
paths = (
{
closed = 1;
nodes = (
"31 600 LINE",
"15 547 LINE",
"255 547 LINE",
"255 600 LINE"
);
},
{
closed = 1;
nodes = (
"191 0 LINE",
"246 0 OFFCURVE",
"285 39 OFFCURVE",
"285 93 CURVE",
"285 600 LINE",
"232 600 LINE",
"232 21 LINE",
"264 53 LINE",
"58 53 LINE",
"58 0 LINE"
);
},
{
closed = 1;
nodes = (
"50 0 LINE",
"104 0 LINE",
"104 600 LINE",
"50 600 LINE"
);
}
);
width = 300;
},
{
anchors = (
{
name = bottom;
position = "{217, 0}";
},
{
name = bottomleft;
position = "{20, 0}";
},
{
name = center;
position = "{230, 300}";
},
{
name = top;
position = "{217, 500}";
},
{
name = topleft;
position = "{20, 500}";
}
);
layerId = "E6A807D2-02F5-45B7-9AC8-B5230FFEC057";
paths = (
{
closed = 1;
nodes = (
"304 0 LINE SMOOTH",
"360 0 OFFCURVE",
"398 37 OFFCURVE",
"398 93 CURVE SMOOTH",
"398 600 LINE",
"262 600 LINE",
"262 51 LINE",
"347 133 LINE",
"61 133 LINE",
"61 0 LINE"
);
},
{
closed = 1;
nodes = (
"61 0 LINE",
"197 0 LINE",
"197 600 LINE",
"61 600 LINE"
);
},
{
closed = 1;
nodes = (
"42 600 LINE",
"20 467 LINE",
"398 467 LINE",
"398 600 LINE"
);
}
);
width = 418;
}
);
note = samekhhebrew;
unicode = 05E1;
},
{
glyphname = "ayin-hb";
lastChange = "2020-10-24 22:53:08 +0000";
layers = (
{
anchors = (
{
name = bottom;
position = "{191, 0}";
},
{
name = center;
position = "{198, 300}";
},
{
name = top;
position = "{192, 600}";
},
{
name = topleft;
position = "{75, 600}";
}
);
layerId = "83682BA5-5A7B-4081-8B26-D550B6F33EEB";
paths = (
{
closed = 1;
nodes = (
"74 0 LINE",
"169 0 LINE",
"169 600 LINE",
"74 600 LINE"
);
},
{
closed = 1;
nodes = (
"232 0 LINE",
"287 0 OFFCURVE",
"326 39 OFFCURVE",
"326 93 CURVE",
"326 600 LINE",
"231 600 LINE",
"231 51 LINE",
"275 93 LINE",
"20 93 LINE",
"20 0 LINE"
);
},
{
closed = 1;
nodes = (
"58 600 LINE",
"38 507 LINE",
"169 507 LINE",
"169 600 LINE"
);
},
{
closed = 1;
nodes = (
"215 600 LINE",
"195 507 LINE",
"326 507 LINE",
"326 600 LINE"
);
}
);
width = 346;
},
{
anchors = (
{
name = bottom;
position = "{160, 0}";
},
{
name = bottomleft;
position = "{15, 0}";
},
{
name = center;
position = "{195, 290}";
},
{
name = top;
position = "{168, 500}";
},
{
name = topleft;
position = "{15, 500}";
}
);
layerId = "A98666DC-4638-42B6-8332-BBF4982DF0EF";
paths = (
{
closed = 1;
nodes = (
"188 0 LINE",
"243 0 OFFCURVE",
"282 39 OFFCURVE",
"282 93 CURVE",
"282 600 LINE",
"229 600 LINE",
"229 21 LINE",
"261 53 LINE",
"15 53 LINE",
"15 0 LINE"
);
},
{
closed = 1;
nodes = (
"97 0 LINE",
"150 0 LINE",
"150 600 LINE",
"97 600 LINE"
);
},
{
closed = 1;
nodes = (
"73 600 LINE",
"57 547 LINE",
"150 547 LINE",
"150 600 LINE"
);
},
{
closed = 1;
nodes = (
"205 600 LINE",
"189 547 LINE",
"282 547 LINE",
"282 600 LINE"
);
}
);
width = 297;
},
{
anchors = (
{
name = bottom;
position = "{201, 0}";
},
{
name = bottomleft;
position = "{20, 0}";
},
{
name = center;
position = "{221, 300}";
},
{
name = top;
position = "{201, 500}";
},
{
name = topleft;
position = "{20, 500}";
}
);
layerId = "E6A807D2-02F5-45B7-9AC8-B5230FFEC057";
paths = (
{
closed = 1;
nodes = (
"304 0 LINE SMOOTH",
"360 0 OFFCURVE",
"398 37 OFFCURVE",
"398 93 CURVE SMOOTH",
"398 600 LINE",
"262 600 LINE",
"262 51 LINE",
"347 133 LINE",
"20 133 LINE",
"20 0 LINE"
);
},
{
closed = 1;
nodes = (
"71 0 LINE",
"207 0 LINE",
"207 600 LINE",
"71 600 LINE"
);
},
{
closed = 1;
nodes = (
"52 600 LINE",
"30 467 LINE",
"207 467 LINE",
"207 600 LINE"
);
},
{
closed = 1;
nodes = (
"247 600 LINE",
"225 467 LINE",
"398 467 LINE",
"398 600 LINE"
);
}
);
width = 418;
}
);
note = ayinhebrew;
unicode = 05E2;
},
{
glyphname = "finalpe-hb";
lastChange = "2020-10-24 22:53:44 +0000";
layers = (
{
anchors = (
{
name = bottom;
position = "{165, 0}";
},
{
name = bottomleft;
position = "{20, 0}";
},
{
name = center;
position = "{120, 140}";
},
{
name = top;
position = "{178, 600}";
},
{
name = topleft;
position = "{62, 600}";
}
);
layerId = "83682BA5-5A7B-4081-8B26-D550B6F33EEB";
paths = (
{
closed = 1;
nodes = (
"62 206 LINE",
"178 206 LINE",
"186 299 LINE",
"62 299 LINE"
);
},
{
closed = 1;
nodes = (
"214 -80 LINE",
"309 -80 LINE",
"309 600 LINE",
"214 600 LINE"
);
},
{
closed = 1;
nodes = (
"62 206 LINE",
"157 206 LINE",
"157 600 LINE",
"62 600 LINE"
);
},
{
closed = 1;
nodes = (
"46 600 LINE",
"26 507 LINE",
"309 507 LINE",
"309 600 LINE"
);
}
);
width = 329;
},
{
anchors = (
{
name = bottom;
position = "{109, 189}";
},
{
name = bottomleft;
position = "{20, 0}";
},
{
name = center;
position = "{140, 140}";
},
{
name = top;
position = "{204, 500}";
},
{
name = topleft;
position = "{20, 500}";
}
);
layerId = "E6A807D2-02F5-45B7-9AC8-B5230FFEC057";
paths = (
{
closed = 1;
nodes = (
"61 210 LINE",
"197 210 LINE",
"197 600 LINE",
"61 600 LINE"
);
},
{
closed = 1;
nodes = (
"42 600 LINE",
"20 467 LINE",
"396 467 LINE",
"396 600 LINE"
);
},
{
closed = 1;
nodes = (
"228 210 LINE",
"236 343 LINE",
"61 343 LINE",
"61 210 LINE"
);
},
{
closed = 1;
nodes = (
"260 -100 LINE",
"396 -100 LINE",
"396 600 LINE",
"260 600 LINE"
);
}
);
width = 416;
},
{
anchors = (
{
name = bottom;
position = "{45, 220}";
},
{
name = bottomleft;
position = "{15, 0}";
},
{
name = center;
position = "{95, 290}";
},
{
name = top;
position = "{137, 500}";
},
{
name = topleft;
position = "{15, 500}";
}
);
layerId = "A98666DC-4638-42B6-8332-BBF4982DF0EF";
paths = (
{
closed = 1;
nodes = (
"31 600 LINE",
"15 547 LINE",
"258 547 LINE",
"258 600 LINE"
);
},
{
closed = 1;
nodes = (
"45 220 LINE",
"98 220 LINE",
"98 600 LINE",
"45 600 LINE"
);
},
{
closed = 1;
nodes = (
"205 -80 LINE",
"258 -80 LINE",
"258 600 LINE",
"205 600 LINE"
);
},
{
closed = 1;
nodes = (
"142 220 LINE",
"148 273 LINE",
"45 273 LINE",
"45 220 LINE"
);
}
);
width = 273;
}
);
note = finalpehebrew;
unicode = 05E3;
},
{
glyphname = "pe-hb";
lastChange = "2020-10-24 22:53:12 +0000";
layers = (
{
anchors = (
{
name = bottom;
position = "{145, 0}";
},
{
name = center;
position = "{121, 151}";
},
{
name = top;
position = "{176, 600}";
},
{
name = topleft;
position = "{-15, 600}";
}
);
layerId = "83682BA5-5A7B-4081-8B26-D550B6F33EEB";
paths = (
{
closed = 1;
nodes = (
"52 299 LINE",
"147 299 LINE",
"147 600 LINE",
"52 600 LINE"
);
},
{
closed = 1;
nodes = (
"205 0 LINE SMOOTH",
"261 0 OFFCURVE",
"299 37 OFFCURVE",
"299 93 CURVE SMOOTH",
"299 600 LINE",
"204 600 LINE",
"204 51 LINE",
"248 93 LINE",
"42 93 LINE",
"42 0 LINE"
);
},
{
closed = 1;
nodes = (
"52 206 LINE",
"168 206 LINE",
"176 299 LINE",
"52 299 LINE"
);
},
{
closed = 1;
nodes = (
"40 600 LINE",
"20 507 LINE",
"299 507 LINE",
"299 600 LINE"
);
}
);
width = 319;
},
{
anchors = (
{
name = bottom;
position = "{132, 0}";
},
{
name = bottomleft;
position = "{0, 0}";
},
{
name = center;
position = "{120, 135}";
},
{
name = top;
position = "{132, 500}";
},
{
name = topleft;
position = "{0, 500}";
}
);
layerId = "A98666DC-4638-42B6-8332-BBF4982DF0EF";
paths = (
{
closed = 1;
nodes = (
"26 600 LINE",
"15 547 LINE",
"242 547 LINE",
"242 600 LINE"
);
},
{
closed = 1;
nodes = (
"169 0 LINE SMOOTH",
"225 0 OFFCURVE",
"263 37 OFFCURVE",
"263 93 CURVE SMOOTH",
"263 600 LINE",
"210 600 LINE",
"210 21 LINE",
"242 53 LINE",
"25 53 LINE",
"25 0 LINE"
);
},
{
closed = 1;
nodes = (
"147 220 LINE",
"153 273 LINE",
"50 273 LINE",
"50 220 LINE"
);
},
{
closed = 1;
nodes = (
"50 220 LINE",
"103 220 LINE",
"103 600 LINE",
"50 600 LINE"
);
}
);
width = 278;
},
{
anchors = (
{
name = bottom;
position = "{240, 0}";
},
{
name = bottomleft;
position = "{56, 0}";
},
{
name = center;
position = "{174, 171}";
},
{
name = top;
position = "{240, 500}";
},
{
name = topleft;
position = "{56, 500}";
}
);
layerId = "E6A807D2-02F5-45B7-9AC8-B5230FFEC057";
paths = (
{
closed = 1;
nodes = (
"302 0 LINE SMOOTH",
"358 0 OFFCURVE",
"396 37 OFFCURVE",
"396 93 CURVE SMOOTH",
"396 600 LINE",
"260 600 LINE",
"260 51 LINE",
"345 133 LINE",
"61 133 LINE",
"61 0 LINE"
);
},
{
closed = 1;
nodes = (
"61 210 LINE",
"197 210 LINE",
"197 600 LINE",
"61 600 LINE"
);
},
{
closed = 1;
nodes = (
"42 600 LINE",
"20 467 LINE",
"396 467 LINE",
"396 600 LINE"
);
},
{
closed = 1;
nodes = (
"228 210 LINE",
"236 343 LINE",
"61 343 LINE",
"61 210 LINE"
);
}
);
width = 416;
}
);
note = pehebrew;
unicode = 05E4;
},
{
glyphname = "finaltsadi-hb";
lastChange = "2020-10-24 22:53:40 +0000";
layers = (
{
anchors = (
{
name = bottom;
position = "{158, 0}";
},
{
name = bottomleft;
position = "{14, 0}";
},
{
name = center;
position = "{158, 275}";
},
{
name = top;
position = "{171, 600}";
},
{
name = topleft;
position = "{56, 600}";
}
);
layerId = "83682BA5-5A7B-4081-8B26-D550B6F33EEB";
paths = (
{
closed = 1;
nodes = (
"207 263 LINE SMOOTH",
"263 263 OFFCURVE",
"301 300 OFFCURVE",
"301 356 CURVE SMOOTH",
"301 600 LINE",
"206 600 LINE",
"206 314 LINE",
"250 356 LINE",
"138 356 LINE",
"138 263 LINE"
);
},
{
closed = 1;
nodes = (
"56 -80 LINE",
"151 -80 LINE",
"151 600 LINE",
"56 600 LINE"
);
},
{
closed = 1;
nodes = (
"40 600 LINE",
"20 507 LINE",
"151 507 LINE",
"151 600 LINE"
);
},
{
closed = 1;
nodes = (
"189 600 LINE",
"169 507 LINE",
"301 507 LINE",
"301 600 LINE"
);
}
);
width = 321;
},
{
anchors = (
{
name = bottom;
position = "{274, 0}";
},
{
name = bottomleft;
position = "{109, 0}";
},
{
name = center;
position = "{339, 140}";
},
{
name = top;
position = "{274, 500}";
},
{
name = topleft;
position = "{109, 500}";
}
);
layerId = "E6A807D2-02F5-45B7-9AC8-B5230FFEC057";
paths = (
{
closed = 1;
nodes = (
"280 230 LINE SMOOTH",
"336 230 OFFCURVE",
"374 267 OFFCURVE",
"374 323 CURVE SMOOTH",
"374 600 LINE",
"248 600 LINE",
"248 281 LINE",
"323 363 LINE",
"73 363 LINE",
"73 230 LINE"
);
},
{
closed = 1;
nodes = (
"61 -100 LINE",
"197 -100 LINE",
"197 600 LINE",
"61 600 LINE"
);
},
{
closed = 1;
nodes = (
"42 600 LINE",
"20 467 LINE",
"197 467 LINE",
"197 600 LINE"
);
},
{
closed = 1;
nodes = (
"239 600 LINE",
"217 467 LINE",
"374 467 LINE",
"374 600 LINE"
);
}
);
width = 394;
},
{
anchors = (
{
name = bottom;
position = "{120, 0}";
},
{
name = bottomleft;
position = "{15, 0}";
},
{
name = center;
position = "{171, 187}";
},
{
name = top;
position = "{120, 500}";
},
{
name = topleft;
position = "{15, 500}";
}
);
layerId = "A98666DC-4638-42B6-8332-BBF4982DF0EF";
paths = (
{
closed = 1;
nodes = (
"147 600 LINE",
"131 547 LINE",
"205 547 LINE",
"205 600 LINE"
);
},
{
closed = 1;
nodes = (
"130 283 LINE SMOOTH",
"185 283 OFFCURVE",
"224 322 OFFCURVE",
"224 376 CURVE SMOOTH",
"224 600 LINE",
"171 600 LINE",
"171 324 LINE",
"193 346 LINE",
"100 346 LINE",
"100 283 LINE"
);
},
{
closed = 1;
nodes = (
"55 -80 LINE",
"108 -80 LINE",
"108 600 LINE",
"55 600 LINE"
);
},
{
closed = 1;
nodes = (
"31 600 LINE",
"15 547 LINE",
"89 547 LINE",
"89 600 LINE"
);
}
);
width = 239;
}
);
note = finaltsadihebrew;
unicode = 05E5;
},
{
glyphname = "tsadi-hb";
lastChange = "2020-10-24 22:53:16 +0000";
layers = (
{
anchors = (
{
name = bottom;
position = "{166, 0}";
},
{
name = center;
position = "{79, 187}";
},
{
name = top;
position = "{176, 600}";
},
{
name = topleft;
position = "{7, 600}";
}
);
layerId = "83682BA5-5A7B-4081-8B26-D550B6F33EEB";
paths = (
{
closed = 1;
nodes = (
"213 263 LINE SMOOTH",
"273 263 OFFCURVE",
"307 313 OFFCURVE",
"307 356 CURVE SMOOTH",
"307 600 LINE",
"214 600 LINE",
"214 314 LINE",
"256 356 LINE",
"164 356 LINE",
"164 263 LINE"
);
},
{
closed = 1;
nodes = (
"218 0 LINE SMOOTH",
"278 0 OFFCURVE",
"307 39 OFFCURVE",
"287 93 CURVE SMOOTH",
"235 257 OFFCURVE",
"180 431 OFFCURVE",
"126 600 CURVE",
"33 565 LINE",
"204 68 LINE",
"236 93 LINE",
"22 93 LINE",
"22 0 LINE"
);
},
{
closed = 1;
nodes = (
"40 600 LINE",
"20 507 LINE",
"126 507 LINE",
"126 600 LINE"
);
},
{
closed = 1;
nodes = (
"200 600 LINE",
"180 507 LINE",
"307 507 LINE",
"307 600 LINE"
);
}
);
width = 327;
},
{
anchors = (
{
name = bottom;
position = "{121, 0}";
},
{
name = bottomleft;
position = "{-2, 0}";
},
{
name = center;
position = "{88, 135}";
},
{
name = top;
position = "{121, 500}";
},
{
name = topleft;
position = "{-2, 500}";
}
);
layerId = "A98666DC-4638-42B6-8332-BBF4982DF0EF";
paths = (
{
closed = 1;
nodes = (
"167 600 LINE",
"151 547 LINE",
"225 547 LINE",
"225 600 LINE"
);
},
{
closed = 1;
nodes = (
"150 283 LINE SMOOTH",
"205 283 OFFCURVE",
"244 322 OFFCURVE",
"244 376 CURVE SMOOTH",
"244 600 LINE",
"191 600 LINE",
"191 324 LINE",
"213 346 LINE",
"140 346 LINE",
"140 283 LINE"
);
},
{
closed = 1;
nodes = (
"31 600 LINE",
"15 547 LINE",
"86 547 LINE",
"86 600 LINE"
);
},
{
closed = 1;
nodes = (
"168 0 LINE SMOOTH",
"228 0 OFFCURVE",
"257 39 OFFCURVE",
"237 93 CURVE SMOOTH",
"185 257 OFFCURVE",
"140 431 OFFCURVE",
"86 600 CURVE",
"41 574 LINE",
"205 28 LINE",
"213 53 LINE",
"21 53 LINE",
"21 0 LINE"
);
}
);
width = 259;
},
{
anchors = (
{
name = bottom;
position = "{186, 0}";
},
{
name = bottomleft;
position = "{20, 0}";
},
{
name = center;
position = "{98, 197}";
},
{
name = top;
position = "{186, 500}";
},
{
name = topleft;
position = "{20, 500}";
}
);
layerId = "E6A807D2-02F5-45B7-9AC8-B5230FFEC057";
paths = (
{
closed = 1;
nodes = (
"25 534 LINE",
"230 51 LINE",
"287 133 LINE",
"35 133 LINE",
"35 0 LINE",
"244 0 LINE SMOOTH",
"326 0 OFFCURVE",
"360 53 OFFCURVE",
"329 133 CURVE SMOOTH",
"275 271 OFFCURVE",
"197 465 OFFCURVE",
"144 600 CURVE"
);
},
{
closed = 1;
nodes = (
"258 230 LINE SMOOTH",
"314 230 OFFCURVE",
"352 267 OFFCURVE",
"352 323 CURVE SMOOTH",
"352 600 LINE",
"226 600 LINE",
"226 281 LINE",
"301 353 LINE",
"200 353 LINE",
"200 230 LINE"
);
},
{
closed = 1;
nodes = (
"223 600 LINE",
"207 467 LINE",
"352 467 LINE",
"352 600 LINE"
);
},
{
closed = 1;
nodes = (
"36 600 LINE",
"14 467 LINE",
"144 467 LINE",
"144 600 LINE"
);
}
);
width = 372;
}
);
note = tsadihebrew;
unicode = 05E6;
},
{
glyphname = "qof-hb";
lastChange = "2020-10-24 22:53:21 +0000";
layers = (
{
anchors = (
{
name = bottom;
position = "{139, 0}";
},
{
name = center;
position = "{141, 300}";
},
{
name = top;
position = "{147, 600}";
},
{
name = topleft;
position = "{47, 600}";
}
);
layerId = "83682BA5-5A7B-4081-8B26-D550B6F33EEB";
paths = (
{
closed = 1;
nodes = (
"20 -80 LINE",
"113 -80 LINE",
"113 453 LINE",
"20 453 LINE"
);
},
{
closed = 1;
nodes = (
"20 600 LINE",
"20 507 LINE",
"259 507 LINE",
"259 600 LINE"
);
},
{
closed = 1;
nodes = (
"163 200 LINE",
"259 200 LINE",
"259 600 LINE",
"163 600 LINE"
);
},
{
closed = 1;
nodes = (
"89 0 LINE",
"185 0 LINE",
"258 200 LINE",
"163 200 LINE"
);
}
);
width = 279;
},
{
anchors = (
{
name = bottom;
position = "{105, 0}";
},
{
name = bottomleft;
position = "{15, 0}";
},
{
name = center;
position = "{107, 250}";
},
{
name = top;
position = "{117, 500}";
},
{
name = topleft;
position = "{15, 500}";
}
);
layerId = "A98666DC-4638-42B6-8332-BBF4982DF0EF";
paths = (
{
closed = 1;
nodes = (
"165 273 LINE",
"219 273 LINE",
"219 600 LINE",
"165 600 LINE"
);
},
{
closed = 1;
nodes = (
"15 600 LINE",
"15 547 LINE",
"219 547 LINE",
"219 600 LINE"
);
},
{
closed = 1;
nodes = (
"51 0 LINE",
"105 0 LINE",
"219 273 LINE",
"165 273 LINE"
);
},
{
closed = 1;
nodes = (
"15 -80 LINE",
"69 -80 LINE",
"69 452 LINE",
"15 452 LINE"
);
}
);
width = 234;
},
{
anchors = (
{
name = bottom;
position = "{178, 0}";
},
{
name = bottomleft;
position = "{30, 0}";
},
{
name = center;
position = "{178, 300}";
},
{
name = top;
position = "{178, 500}";
},
{
name = topleft;
position = "{30, 500}";
}
);
layerId = "E6A807D2-02F5-45B7-9AC8-B5230FFEC057";
paths = (
{
closed = 1;
nodes = (
"199 230 LINE",
"335 230 LINE",
"335 600 LINE",
"199 600 LINE"
);
},
{
closed = 1;
nodes = (
"117 0 LINE",
"253 0 LINE",
"335 230 LINE",
"199 230 LINE"
);
},
{
closed = 1;
nodes = (
"20 600 LINE",
"20 467 LINE",
"335 467 LINE",
"335 600 LINE"
);
},
{
closed = 1;
nodes = (
"20 -100 LINE",
"156 -100 LINE",
"156 424 LINE",
"20 424 LINE"
);
}
);
width = 355;
}
);
note = qofhebrew;
unicode = 05E7;
},
{
glyphname = "resh-hb";
lastChange = "2020-10-24 22:53:25 +0000";
layers = (
{
anchors = (
{
name = bottom;
position = "{182, 0}";
},
{
name = center;
position = "{84, 300}";
},
{
name = top;
position = "{161, 600}";
},
{
name = topleft;
position = "{9, 600}";
}
);
layerId = "83682BA5-5A7B-4081-8B26-D550B6F33EEB";
paths = (
{
closed = 1;
nodes = (
"161 0 LINE",
"254 0 LINE",
"254 600 LINE",
"161 600 LINE"
);
},
{
closed = 1;
nodes = (
"40 600 LINE",
"20 507 LINE",
"254 507 LINE",
"254 600 LINE"
);
}
);
width = 274;
},
{
anchors = (
{
name = bottom;
position = "{130, 0}";
},
{
name = bottomleft;
position = "{15, 0}";
},
{
name = center;
position = "{100, 250}";
},
{
name = top;
position = "{130, 500}";
},
{
name = topleft;
position = "{15, 500}";
}
);
layerId = "A98666DC-4638-42B6-8332-BBF4982DF0EF";
paths = (
{
closed = 1;
nodes = (
"191 0 LINE",
"245 0 LINE",
"245 600 LINE",
"191 600 LINE"
);
},
{
closed = 1;
nodes = (
"31 600 LINE",
"15 547 LINE",
"245 547 LINE",
"245 600 LINE"
);
}
);
width = 260;
},
{
anchors = (
{
name = bottom;
position = "{163, 0}";
},
{
name = bottomleft;
position = "{10, 0}";
},
{
name = center;
position = "{110, 300}";
},
{
name = top;
position = "{163, 500}";
},
{
name = topleft;
position = "{10, 500}";
}
);
layerId = "E6A807D2-02F5-45B7-9AC8-B5230FFEC057";
paths = (
{
closed = 1;
nodes = (
"42 600 LINE",
"20 467 LINE",
"316 467 LINE",
"316 600 LINE"
);
},
{
closed = 1;
nodes = (
"180 0 LINE",
"316 0 LINE",
"316 600 LINE",
"180 600 LINE"
);
}
);
width = 336;
}
);
note = reshhebrew;
unicode = 05E8;
},
{
glyphname = "shin-hb";
lastChange = "2020-10-24 22:53:28 +0000";
layers = (
{
anchors = (
{
name = bottom;
position = "{238, 0}";
},
{
name = center;
position = "{160, 300}";
},
{
name = shin;
position = "{431, 600}";
},
{
name = sin;
position = "{75, 600}";
},
{
name = top;
position = "{241, 600}";
},
{
name = topleft;
position = "{67, 600}";
}
);
layerId = "83682BA5-5A7B-4081-8B26-D550B6F33EEB";
paths = (
{
closed = 1;
nodes = (
"189 0 LINE",
"284 0 LINE",
"284 600 LINE",
"189 600 LINE"
);
},
{
closed = 1;
nodes = (
"337 0 LINE SMOOTH",
"392 0 OFFCURVE",
"431 39 OFFCURVE",
"431 93 CURVE SMOOTH",
"431 600 LINE",
"336 600 LINE",
"336 51 LINE",
"380 93 LINE",
"40 93 LINE",
"40 0 LINE"
);
},
{
closed = 1;
nodes = (
"40 0 LINE",
"135 0 LINE",
"135 600 LINE",
"40 600 LINE"
);
},
{
closed = 1;
nodes = (
"40 600 LINE",
"20 507 LINE",
"135 507 LINE",
"135 600 LINE"
);
},
{
closed = 1;
nodes = (
"173 600 LINE",
"153 507 LINE",
"284 507 LINE",
"284 600 LINE"
);
},
{
closed = 1;
nodes = (
"322 600 LINE",
"302 507 LINE",
"431 507 LINE",
"431 600 LINE"
);
}
);
width = 451;
},
{
anchors = (
{
name = bottom;
position = "{183, 0}";
},
{
name = bottomleft;
position = "{15, 0}";
},
{
name = center;
position = "{119, 250}";
},
{
name = top;
position = "{174, 500}";
},
{
name = topleft;
position = "{15, 500}";
},
{
name = topright;
position = "{332, 500}";
}
);
layerId = "A98666DC-4638-42B6-8332-BBF4982DF0EF";
paths = (
{
closed = 1;
nodes = (
"238 0 LINE",
"293 0 OFFCURVE",
"332 39 OFFCURVE",
"332 93 CURVE",
"332 600 LINE",
"279 600 LINE",
"279 21 LINE",
"311 53 LINE",
"65 53 LINE",
"65 0 LINE"
);
},
{
closed = 1;
nodes = (
"157 0 LINE",
"210 0 LINE",
"210 600 LINE",
"157 600 LINE"
);
},
{
closed = 1;
nodes = (
"133 600 LINE",
"117 547 LINE",
"210 547 LINE",
"210 600 LINE"
);
},
{
closed = 1;
nodes = (
"255 600 LINE",
"239 547 LINE",
"332 547 LINE",
"332 600 LINE"
);
},
{
closed = 1;
nodes = (
"35 0 LINE",
"88 0 LINE",
"88 600 LINE",
"35 600 LINE"
);
},
{
closed = 1;
nodes = (
"31 600 LINE",
"15 547 LINE",
"88 547 LINE",
"88 600 LINE"
);
}
);
width = 347;
},
{
anchors = (
{
name = bottom;
position = "{344, 0}";
},
{
name = bottomleft;
position = "{81, 0}";
},
{
name = center;
position = "{268, 300}";
},
{
name = top;
position = "{344, 500}";
},
{
name = topleft;
position = "{81, 500}";
},
{
name = topright;
position = "{606, 500}";
}
);
layerId = "E6A807D2-02F5-45B7-9AC8-B5230FFEC057";
paths = (
{
closed = 1;
nodes = (
"465 0 LINE SMOOTH",
"515 0 OFFCURVE",
"549 37 OFFCURVE",
"549 93 CURVE SMOOTH",
"549 600 LINE",
"423 600 LINE",
"423 51 LINE",
"498 133 LINE",
"61 133 LINE",
"61 0 LINE"
);
},
{
closed = 1;
nodes = (
"244 0 LINE",
"370 0 LINE",
"370 600 LINE",
"244 600 LINE"
);
},
{
closed = 1;
nodes = (
"225 600 LINE",
"203 467 LINE",
"370 467 LINE",
"370 600 LINE"
);
},
{
closed = 1;
nodes = (
"408 600 LINE",
"386 467 LINE",
"549 467 LINE",
"549 600 LINE"
);
},
{
closed = 1;
nodes = (
"61 0 LINE",
"187 0 LINE",
"187 600 LINE",
"61 600 LINE"
);
},
{
closed = 1;
nodes = (
"42 600 LINE",
"20 467 LINE",
"187 467 LINE",
"187 600 LINE"
);
}
);
width = 569;
}
);
note = shinhebrew;
unicode = 05E9;
},
{
glyphname = "tav-hb";
lastChange = "2020-10-24 22:53:33 +0000";
layers = (
{
anchors = (
{
name = bottom;
position = "{235, 0}";
},
{
name = center;
position = "{199, 300}";
},
{
name = top;
position = "{203, 600}";
},
{
name = topleft;
position = "{34, 600}";
}
);
layerId = "83682BA5-5A7B-4081-8B26-D550B6F33EEB";
paths = (
{
closed = 1;
nodes = (
"233 0 LINE",
"328 0 LINE",
"328 600 LINE",
"233 600 LINE"
);
},
{
closed = 1;
nodes = (
"70 0 LINE SMOOTH",
"126 0 OFFCURVE",
"164 37 OFFCURVE",
"164 93 CURVE SMOOTH",
"164 600 LINE",
"69 600 LINE",
"69 51 LINE",
"113 93 LINE",
"20 93 LINE",
"20 0 LINE"
);
},
{
closed = 1;
nodes = (
"55 600 LINE",
"35 507 LINE",
"328 507 LINE",
"328 600 LINE"
);
}
);
width = 348;
},
{
anchors = (
{
name = bottom;
position = "{169, 0}";
},
{
name = bottomleft;
position = "{15, 0}";
},
{
name = center;
position = "{192, 290}";
},
{
name = top;
position = "{159, 500}";
},
{
name = topleft;
position = "{15, 500}";
}
);
layerId = "A98666DC-4638-42B6-8332-BBF4982DF0EF";
paths = (
{
closed = 1;
nodes = (
"248 0 LINE",
"302 0 LINE",
"302 600 LINE",
"248 600 LINE"
);
},
{
closed = 1;
nodes = (
"59 600 LINE",
"43 547 LINE",
"302 547 LINE",
"302 600 LINE"
);
},
{
closed = 1;
nodes = (
"42 0 LINE SMOOTH",
"97 0 OFFCURVE",
"136 39 OFFCURVE",
"136 93 CURVE SMOOTH",
"136 600 LINE",
"83 600 LINE",
"83 21 LINE",
"115 53 LINE",
"15 53 LINE",
"15 0 LINE"
);
}
);
width = 317;
},
{
anchors = (
{
name = bottom;
position = "{196, 0}";
},
{
name = bottomleft;
position = "{18, 0}";
},
{
name = center;
position = "{228, 300}";
},
{
name = top;
position = "{196, 500}";
},
{
name = topleft;
position = "{18, 500}";
}
);
layerId = "E6A807D2-02F5-45B7-9AC8-B5230FFEC057";
paths = (
{
closed = 1;
nodes = (
"108 0 LINE SMOOTH",
"164 0 OFFCURVE",
"202 37 OFFCURVE",
"202 93 CURVE SMOOTH",
"202 600 LINE",
"66 600 LINE",
"66 51 LINE",
"151 133 LINE",
"20 133 LINE",
"20 0 LINE"
);
},
{
closed = 1;
nodes = (
"62 600 LINE",
"40 467 LINE",
"373 467 LINE",
"373 600 LINE"
);
},
{
closed = 1;
nodes = (
"237 0 LINE",
"373 0 LINE",
"373 600 LINE",
"237 600 LINE"
);
}
);
width = 393;
}
);
note = tavhebrew;
unicode = 05EA;
},
{
glyphname = zero;
lastChange = "2020-10-24 16:00:04 +0000";
layers = (
{
layerId = "83682BA5-5A7B-4081-8B26-D550B6F33EEB";
paths = (
{
closed = 1;
nodes = (
"167 0 LINE",
"222 0 OFFCURVE",
"261 39 OFFCURVE",
"261 93 CURVE",
"261 300 LINE",
"170 300 LINE",
"170 51 LINE",
"212 93 LINE",
"129 93 LINE",
"127 0 LINE"
);
},
{
closed = 1;
nodes = (
"165 93 LINE",
"73 93 LINE",
"113 51 LINE",
"115 300 LINE",
"20 300 LINE",
"20 93 LINE",
"20 39 OFFCURVE",
"59 0 OFFCURVE",
"114 0 CURVE",
"163 0 LINE"
);
},
{
closed = 1;
nodes = (
"119 507 LINE",
"212 507 LINE",
"170 549 LINE",
"170 300 LINE",
"261 300 LINE",
"261 507 LINE",
"261 561 OFFCURVE",
"222 600 OFFCURVE",
"167 600 CURVE",
"117 600 LINE"
);
},
{
closed = 1;
nodes = (
"114 600 LINE",
"58 601 OFFCURVE",
"20 561 OFFCURVE",
"20 507 CURVE",
"20 300 LINE",
"115 300 LINE",
"115 549 LINE",
"73 507 LINE",
"139 507 LINE",
"139 600 LINE"
);
}
);
width = 281;
},
{
layerId = "E6A807D2-02F5-45B7-9AC8-B5230FFEC057";
paths = (
{
closed = 1;
nodes = (
"20 37 OFFCURVE",
"58 0 OFFCURVE",
"114 0 CURVE SMOOTH",
"229 0 LINE SMOOTH",
"285 0 OFFCURVE",
"323 37 OFFCURVE",
"323 93 CURVE SMOOTH",
"323 507 LINE SMOOTH",
"323 563 OFFCURVE",
"285 600 OFFCURVE",
"229 600 CURVE SMOOTH",
"114 600 LINE SMOOTH",
"58 600 OFFCURVE",
"20 563 OFFCURVE",
"20 507 CURVE SMOOTH",
"20 93 LINE SMOOTH"
);
},
{
closed = 1;
nodes = (
"156 512 LINE",
"111 467 LINE",
"232 467 LINE",
"187 512 LINE",
"187 88 LINE",
"232 133 LINE",
"111 133 LINE",
"156 88 LINE"
);
}
);
width = 343;
},
{
layerId = "A98666DC-4638-42B6-8332-BBF4982DF0EF";
paths = (
{
closed = 1;
nodes = (
"20 39 OFFCURVE",
"59 0 OFFCURVE",
"114 0 CURVE SMOOTH",
"163 0 LINE",
"163 53 LINE",
"48 53 LINE",
"73 28 LINE",
"73 572 LINE",
"48 547 LINE",
"162 547 LINE",
"162 600 LINE",
"114 600 LINE SMOOTH",
"58 600 OFFCURVE",
"20 561 OFFCURVE",
"20 507 CURVE SMOOTH",
"20 93 LINE SMOOTH"
);
},
{
closed = 1;
nodes = (
"304 507 LINE SMOOTH",
"304 561 OFFCURVE",
"266 600 OFFCURVE",
"210 600 CURVE SMOOTH",
"162 600 LINE",
"162 547 LINE",
"276 547 LINE",
"251 572 LINE",
"251 28 LINE",
"276 53 LINE",
"161 53 LINE",
"161 0 LINE",
"210 0 LINE SMOOTH",
"265 0 OFFCURVE",
"304 39 OFFCURVE",
"304 93 CURVE SMOOTH"
);
}
);
width = 324;
}
);
note = zero;
unicode = 0030;
},
{
glyphname = one;
lastChange = "2020-10-24 15:46:25 +0000";
layers = (
{
layerId = "83682BA5-5A7B-4081-8B26-D550B6F33EEB";
paths = (
{
closed = 1;
nodes = (
"56 0 LINE",
"151 0 LINE",
"151 600 LINE",
"56 600 LINE"
);
},
{
closed = 1;
nodes = (
"22 93 LINE",
"22 0 LINE",
"180 0 LINE",
"180 93 LINE"
);
},
{
closed = 1;
nodes = (
"40 600 LINE",
"20 507 LINE",
"151 507 LINE",
"151 600 LINE"
);
}
);
width = 200;
},
{
layerId = "E6A807D2-02F5-45B7-9AC8-B5230FFEC057";
paths = (
{
closed = 1;
nodes = (
"24 133 LINE",
"24 0 LINE",
"223 0 LINE",
"223 133 LINE"
);
},
{
closed = 1;
nodes = (
"55 0 LINE",
"191 0 LINE",
"191 600 LINE",
"55 600 LINE"
);
},
{
closed = 1;
nodes = (
"42 600 LINE",
"20 467 LINE",
"191 467 LINE",
"191 600 LINE"
);
}
);
width = 243;
},
{
layerId = "A98666DC-4638-42B6-8332-BBF4982DF0EF";
paths = (
{
closed = 1;
nodes = (
"60 0 LINE",
"113 0 LINE",
"113 600 LINE",
"60 600 LINE"
);
},
{
closed = 1;
nodes = (
"28 53 LINE",
"28 0 LINE",
"144 0 LINE",
"144 53 LINE"
);
},
{
closed = 1;
nodes = (
"36 600 LINE",
"20 547 LINE",
"113 547 LINE",
"113 600 LINE"
);
}
);
width = 164;
}
);
note = one;
unicode = 0031;
},
{
glyphname = two;
lastChange = "2020-10-24 15:47:32 +0000";
layers = (
{
layerId = "83682BA5-5A7B-4081-8B26-D550B6F33EEB";
paths = (
{
closed = 1;
nodes = (
"21 507 LINE",
"197 507 LINE",
"153 549 LINE",
"153 259 LINE",
"248 259 LINE",
"248 507 LINE SMOOTH",
"248 563 OFFCURVE",
"210 600 OFFCURVE",
"154 600 CURVE SMOOTH",
"21 600 LINE"
);
},
{
closed = 1;
nodes = (
"247 93 LINE",
"20 93 LINE",
"20 0 LINE",
"247 0 LINE"
);
},
{
closed = 1;
nodes = (
"115 352 LINE SMOOTH",
"59 352 OFFCURVE",
"21 315 OFFCURVE",
"21 259 CURVE SMOOTH",
"20 0 LINE",
"115 0 LINE",
"116 301 LINE",
"72 259 LINE",
"248 259 LINE",
"248 352 LINE"
);
}
);
width = 268;
},
{
associatedMasterId = "83682BA5-5A7B-4081-8B26-D550B6F33EEB";
layerId = "E9243E21-C394-459F-BFE7-9AD4FFDE2A51";
name = "Dec 7 18, 11:33";
paths = (
{
closed = 1;
nodes = (
"34 254 OFFCURVE",
"194 300 OFFCURVE",
"254 317 CURVE SMOOTH",
"402 359 OFFCURVE",
"549 396 OFFCURVE",
"549 503 CURVE SMOOTH",
"549 587 OFFCURVE",
"488 659 OFFCURVE",
"279 659 CURVE SMOOTH",
"69 659 OFFCURVE",
"8 553 OFFCURVE",
"10 503 CURVE SMOOTH",
"10 503 OFFCURVE",
"8 503 OFFCURVE",
"152 503 CURVE",
"152 553 OFFCURVE",
"188 630 OFFCURVE",
"279 630 CURVE SMOOTH",
"397 630 OFFCURVE",
"405 550 OFFCURVE",
"405 503 CURVE SMOOTH",
"405 387 OFFCURVE",
"330 356 OFFCURVE",
"253 346 CURVE SMOOTH",
"172 335 OFFCURVE",
"33 283 OFFCURVE",
"29 283 CURVE",
"29 275 OFFCURVE",
"29 262 OFFCURVE",
"29 254 CURVE"
);
},
{
closed = 1;
nodes = (
"29 254 LINE",
"48 138 OFFCURVE",
"158 55 OFFCURVE",
"275 55 CURVE SMOOTH",
"417 55 OFFCURVE",
"508 115 OFFCURVE",
"545 169 CURVE",
"458 241 LINE",
"428 184 OFFCURVE",
"383 84 OFFCURVE",
"275 84 CURVE SMOOTH",
"195 84 OFFCURVE",
"134 228 OFFCURVE",
"181 305 CURVE"
);
}
);
width = 559;
},
{
layerId = "E6A807D2-02F5-45B7-9AC8-B5230FFEC057";
paths = (
{
closed = 1;
nodes = (
"20 467 LINE",
"223 467 LINE",
"151 549 LINE",
"151 393 LINE",
"287 393 LINE",
"287 507 LINE SMOOTH",
"287 563 OFFCURVE",
"249 600 OFFCURVE",
"193 600 CURVE SMOOTH",
"20 600 LINE"
);
},
{
closed = 1;
nodes = (
"287 133 LINE",
"20 133 LINE",
"20 0 LINE",
"287 0 LINE"
);
},
{
closed = 1;
nodes = (
"193 207 LINE SMOOTH",
"249 207 OFFCURVE",
"287 244 OFFCURVE",
"287 300 CURVE SMOOTH",
"287 466 LINE",
"151 466 LINE",
"151 278 LINE",
"223 340 LINE",
"142 340 LINE",
"155 207 LINE"
);
},
{
closed = 1;
nodes = (
"114 340 LINE SMOOTH",
"58 340 OFFCURVE",
"20 303 OFFCURVE",
"20 247 CURVE SMOOTH",
"20 0 LINE",
"156 0 LINE",
"156 269 LINE",
"71 207 LINE",
"155 207 LINE",
"155 340 LINE"
);
}
);
width = 307;
},
{
layerId = "A98666DC-4638-42B6-8332-BBF4982DF0EF";
paths = (
{
closed = 1;
nodes = (
"20 547 LINE",
"216 547 LINE",
"194 579 LINE",
"194 278 LINE",
"247 278 LINE",
"247 507 LINE SMOOTH",
"247 561 OFFCURVE",
"208 600 OFFCURVE",
"153 600 CURVE",
"20 600 LINE"
);
},
{
closed = 1;
nodes = (
"247 53 LINE",
"20 53 LINE",
"20 0 LINE",
"247 0 LINE"
);
},
{
closed = 1;
nodes = (
"114 331 LINE",
"59 331 OFFCURVE",
"20 292 OFFCURVE",
"20 238 CURVE SMOOTH",
"20 72 LINE",
"73 72 LINE",
"73 280 LINE",
"31 278 LINE",
"247 278 LINE",
"247 331 LINE"
);
},
{
closed = 1;
nodes = (
"73 0 LINE",
"73 207 LINE",
"20 207 LINE",
"20 0 LINE"
);
}
);
width = 267;
}
);
note = two;
unicode = 0032;
},
{
glyphname = three;
lastChange = "2020-10-24 16:05:11 +0000";
layers = (
{
layerId = "83682BA5-5A7B-4081-8B26-D550B6F33EEB";
paths = (
{
closed = 1;
nodes = (
"248 352 LINE",
"49 352 LINE",
"49 259 LINE",
"248 259 LINE"
);
},
{
closed = 1;
nodes = (
"153 1 LINE SMOOTH",
"209 1 OFFCURVE",
"247 38 OFFCURVE",
"247 94 CURVE SMOOTH",
"248 259 LINE",
"248 507 LINE SMOOTH",
"248 563 OFFCURVE",
"210 600 OFFCURVE",
"154 600 CURVE SMOOTH",
"21 600 LINE",
"21 507 LINE",
"197 507 LINE",
"153 549 LINE",
"153 353 LINE",
"152 52 LINE",
"196 94 LINE",
"20 94 LINE",
"20 1 LINE"
);
}
);
width = 268;
},
{
layerId = "E6A807D2-02F5-45B7-9AC8-B5230FFEC057";
paths = (
{
closed = 1;
nodes = (
"50 372 LINE",
"50 239 LINE",
"287 239 LINE",
"287 372 LINE"
);
},
{
closed = 1;
nodes = (
"193 0 LINE SMOOTH",
"249 0 OFFCURVE",
"287 37 OFFCURVE",
"287 93 CURVE SMOOTH",
"287 507 LINE SMOOTH",
"287 563 OFFCURVE",
"249 600 OFFCURVE",
"193 600 CURVE SMOOTH",
"20 600 LINE",
"20 467 LINE",
"196 467 LINE",
"151 512 LINE",
"151 88 LINE",
"196 133 LINE",
"20 133 LINE",
"20 0 LINE"
);
}
);
width = 307;
},
{
layerId = "A98666DC-4638-42B6-8332-BBF4982DF0EF";
paths = (
{
closed = 1;
nodes = (
"50 327 LINE",
"50 274 LINE",
"247 274 LINE",
"247 327 LINE"
);
},
{
closed = 1;
nodes = (
"153 0 LINE SMOOTH",
"208 0 OFFCURVE",
"247 39 OFFCURVE",
"247 93 CURVE SMOOTH",
"247 507 LINE SMOOTH",
"247 561 OFFCURVE",
"208 600 OFFCURVE",
"153 600 CURVE SMOOTH",
"20 600 LINE",
"20 547 LINE",
"239 547 LINE",
"194 592 LINE",
"194 8 LINE",
"239 53 LINE",
"20 53 LINE",
"20 0 LINE"
);
}
);
width = 267;
}
);
note = three;
unicode = 0033;
},
{
glyphname = four;
lastChange = "2020-10-24 15:53:35 +0000";
layers = (
{
layerId = "83682BA5-5A7B-4081-8B26-D550B6F33EEB";
paths = (
{
closed = 1;
nodes = (
"203 0 LINE",
"298 0 LINE",
"298 600 LINE",
"203 600 LINE"
);
},
{
closed = 1;
nodes = (
"173 93 LINE",
"173 0 LINE",
"327 0 LINE",
"327 93 LINE"
);
},
{
closed = 1;
nodes = (
"327 257 LINE",
"72 257 LINE",
"113 215 LINE",
"168 600 LINE",
"75 600 LINE",
"65 537 OFFCURVE",
"38 367 OFFCURVE",
"22 274 CURVE SMOOTH",
"11 208 OFFCURVE",
"48 164 OFFCURVE",
"115 164 CURVE SMOOTH",
"327 164 LINE"
);
}
);
width = 347;
},
{
layerId = "E6A807D2-02F5-45B7-9AC8-B5230FFEC057";
paths = (
{
closed = 1;
nodes = (
"373 307 LINE",
"60 307 LINE",
"145 225 LINE",
"188 600 LINE",
"52 600 LINE",
"12 307 LINE SMOOTH",
"1 227 OFFCURVE",
"46 174 OFFCURVE",
"124 174 CURVE SMOOTH",
"373 174 LINE"
);
},
{
closed = 1;
nodes = (
"174 133 LINE",
"174 0 LINE",
"373 0 LINE",
"373 133 LINE"
);
},
{
closed = 1;
nodes = (
"205 0 LINE",
"341 0 LINE",
"341 600 LINE",
"205 600 LINE"
);
}
);
width = 383;
},
{
layerId = "A98666DC-4638-42B6-8332-BBF4982DF0EF";
paths = (
{
closed = 1;
nodes = (
"215 0 LINE",
"268 0 LINE",
"268 600 LINE",
"218 600 LINE"
);
},
{
closed = 1;
nodes = (
"183 53 LINE",
"183 0 LINE",
"299 0 LINE",
"299 53 LINE"
);
},
{
closed = 1;
nodes = (
"191 600 LINE",
"175 547 LINE",
"268 547 LINE",
"268 600 LINE"
);
},
{
closed = 1;
nodes = (
"299 229 LINE",
"41 229 LINE",
"49 204 LINE",
"242 600 LINE",
"187 600 LINE",
"174 574 OFFCURVE",
"89 402 OFFCURVE",
"37 302 CURVE SMOOTH",
"-2 226 OFFCURVE",
"30 176 OFFCURVE",
"98 176 CURVE SMOOTH",
"299 176 LINE"
);
}
);
width = 319;
}
);
note = four;
unicode = 0034;
},
{
glyphname = five;
lastChange = "2020-10-24 15:53:24 +0000";
layers = (
{
layerId = "83682BA5-5A7B-4081-8B26-D550B6F33EEB";
paths = (
{
closed = 1;
nodes = (
"153 0 LINE SMOOTH",
"208 0 OFFCURVE",
"247 39 OFFCURVE",
"247 93 CURVE SMOOTH",
"247 207 LINE",
"152 207 LINE",
"152 51 LINE",
"194 93 LINE",
"20 93 LINE",
"20 0 LINE"
);
},
{
closed = 1;
nodes = (
"20 600 LINE",
"20 507 LINE",
"247 507 LINE",
"247 600 LINE"
);
},
{
closed = 1;
nodes = (
"20 300 LINE",
"194 300 LINE",
"152 342 LINE",
"152 134 LINE",
"247 134 LINE",
"247 300 LINE SMOOTH",
"247 354 OFFCURVE",
"208 393 OFFCURVE",
"153 393 CURVE SMOOTH",
"20 393 LINE"
);
},
{
closed = 1;
nodes = (
"20 300 LINE",
"115 300 LINE",
"115 600 LINE",
"20 600 LINE"
);
}
);
width = 267;
},
{
layerId = "E6A807D2-02F5-45B7-9AC8-B5230FFEC057";
paths = (
{
closed = 1;
nodes = (
"193 0 LINE SMOOTH",
"249 0 OFFCURVE",
"287 37 OFFCURVE",
"287 93 CURVE SMOOTH",
"287 207 LINE",
"151 207 LINE",
"151 51 LINE",
"223 133 LINE",
"20 133 LINE",
"20 0 LINE"
);
},
{
closed = 1;
nodes = (
"60 600 LINE",
"60 467 LINE",
"287 467 LINE",
"287 600 LINE"
);
},
{
closed = 1;
nodes = (
"60 260 LINE",
"223 260 LINE",
"151 322 LINE",
"151 133 LINE",
"287 133 LINE",
"287 300 LINE SMOOTH",
"287 356 OFFCURVE",
"249 393 OFFCURVE",
"193 393 CURVE SMOOTH",
"60 393 LINE"
);
},
{
closed = 1;
nodes = (
"20 260 LINE",
"156 260 LINE",
"156 600 LINE",
"20 600 LINE"
);
}
);
width = 307;
},
{
layerId = "A98666DC-4638-42B6-8332-BBF4982DF0EF";
paths = (
{
closed = 1;
nodes = (
"153 0 LINE",
"208 0 OFFCURVE",
"247 39 OFFCURVE",
"247 93 CURVE SMOOTH",
"247 207 LINE",
"194 207 LINE",
"194 21 LINE",
"216 53 LINE",
"20 53 LINE",
"20 0 LINE"
);
},
{
closed = 1;
nodes = (
"20 600 LINE",
"20 547 LINE",
"247 547 LINE",
"247 600 LINE"
);
},
{
closed = 1;
nodes = (
"20 340 LINE",
"236 340 LINE",
"194 342 LINE",
"194 134 LINE",
"247 134 LINE",
"247 300 LINE SMOOTH",
"247 354 OFFCURVE",
"208 393 OFFCURVE",
"153 393 CURVE",
"20 393 LINE"
);
},
{
closed = 1;
nodes = (
"20 340 LINE",
"73 340 LINE",
"73 600 LINE",
"20 600 LINE"
);
}
);
width = 267;
}
);
note = five;
unicode = 0035;
},
{
glyphname = six;
lastChange = "2020-10-24 15:55:27 +0000";
layers = (
{
layerId = "83682BA5-5A7B-4081-8B26-D550B6F33EEB";
paths = (
{
closed = 1;
nodes = (
"163 0 LINE SMOOTH",
"218 0 OFFCURVE",
"257 39 OFFCURVE",
"257 93 CURVE SMOOTH",
"257 207 LINE",
"162 207 LINE",
"162 51 LINE",
"204 93 LINE",
"123 93 LINE",
"123 0 LINE"
);
},
{
closed = 1;
nodes = (
"30 300 LINE",
"204 300 LINE",
"162 342 LINE",
"162 134 LINE",
"257 134 LINE",
"257 300 LINE SMOOTH",
"257 354 OFFCURVE",
"218 393 OFFCURVE",
"163 393 CURVE SMOOTH",
"30 393 LINE"
);
},
{
closed = 1;
nodes = (
"161 93 LINE",
"73 93 LINE",
"115 51 LINE",
"115 393 LINE",
"20 393 LINE",
"20 93 LINE",
"20 39 OFFCURVE",
"59 0 OFFCURVE",
"114 0 CURVE SMOOTH",
"163 0 LINE"
);
},
{
closed = 1;
nodes = (
"114 600 LINE SMOOTH",
"59 600 OFFCURVE",
"20 561 OFFCURVE",
"20 507 CURVE SMOOTH",
"20 341 LINE",
"115 341 LINE",
"115 549 LINE",
"73 507 LINE",
"247 507 LINE",
"247 600 LINE"
);
}
);
width = 277;
},
{
layerId = "E6A807D2-02F5-45B7-9AC8-B5230FFEC057";
paths = (
{
closed = 1;
nodes = (
"226 0 LINE SMOOTH",
"282 0 OFFCURVE",
"320 37 OFFCURVE",
"320 93 CURVE SMOOTH",
"320 207 LINE",
"184 207 LINE",
"184 51 LINE",
"256 133 LINE",
"176 133 LINE",
"176 0 LINE"
);
},
{
closed = 1;
nodes = (
"93 260 LINE",
"256 260 LINE",
"184 322 LINE",
"184 134 LINE",
"320 134 LINE",
"320 300 LINE SMOOTH",
"320 356 OFFCURVE",
"282 393 OFFCURVE",
"226 393 CURVE SMOOTH",
"93 393 LINE"
);
},
{
closed = 1;
nodes = (
"176 133 LINE",
"71 133 LINE",
"156 51 LINE",
"156 275 LINE",
"20 275 LINE",
"20 93 LINE SMOOTH",
"20 37 OFFCURVE",
"63 0 OFFCURVE",
"127 0 CURVE SMOOTH",
"176 0 LINE"
);
},
{
closed = 1;
nodes = (
"114 600 LINE SMOOTH",
"59 600 OFFCURVE",
"20 561 OFFCURVE",
"20 507 CURVE SMOOTH",
"20 260 LINE",
"156 260 LINE",
"156 529 LINE",
"71 467 LINE",
"310 467 LINE",
"310 600 LINE"
);
}
);
width = 340;
},
{
layerId = "A98666DC-4638-42B6-8332-BBF4982DF0EF";
paths = (
{
closed = 1;
nodes = (
"153 0 LINE",
"208 0 OFFCURVE",
"247 39 OFFCURVE",
"247 93 CURVE SMOOTH",
"247 207 LINE",
"194 207 LINE",
"194 21 LINE",
"216 53 LINE",
"114 53 LINE",
"114 0 LINE"
);
},
{
closed = 1;
nodes = (
"20 340 LINE",
"236 340 LINE",
"194 342 LINE",
"194 134 LINE",
"247 134 LINE",
"247 300 LINE SMOOTH",
"247 354 OFFCURVE",
"208 393 OFFCURVE",
"153 393 CURVE",
"20 393 LINE"
);
},
{
closed = 1;
nodes = (
"114 600 LINE",
"59 600 OFFCURVE",
"20 561 OFFCURVE",
"20 507 CURVE SMOOTH",
"20 341 LINE",
"73 341 LINE",
"73 549 LINE",
"31 547 LINE",
"237 547 LINE",
"237 600 LINE"
);
},
{
closed = 1;
nodes = (
"153 53 LINE",
"51 53 LINE",
"73 21 LINE",
"73 341 LINE",
"20 341 LINE",
"20 93 LINE SMOOTH",
"20 39 OFFCURVE",
"59 0 OFFCURVE",
"114 0 CURVE",
"153 0 LINE"
);
}
);
width = 267;
}
);
note = six;
unicode = 0036;
},
{
glyphname = seven;
lastChange = "2020-10-24 16:05:25 +0000";
layers = (
{
layerId = "83682BA5-5A7B-4081-8B26-D550B6F33EEB";
paths = (
{
closed = 1;
nodes = (
"288 352 LINE",
"61 352 LINE",
"61 259 LINE",
"288 259 LINE"
);
},
{
closed = 1;
nodes = (
"30 507 LINE",
"229 507 LINE",
"189 549 LINE",
"94 0 LINE",
"185 0 LINE",
"210 122 OFFCURVE",
"260 413 OFFCURVE",
"270 471 CURVE SMOOTH",
"283 549 OFFCURVE",
"251 600 OFFCURVE",
"186 600 CURVE SMOOTH",
"30 600 LINE"
);
}
);
width = 298;
},
{
associatedMasterId = "83682BA5-5A7B-4081-8B26-D550B6F33EEB";
layerId = "48FB0190-7060-4206-B442-6B2C9BC87A56";
name = "Apr 24 20, 15:11";
paths = (
{
closed = 1;
nodes = (
"21 507 LINE",
"197 507 LINE",
"155 549 LINE",
"155 0 LINE",
"248 0 LINE",
"248 507 LINE",
"248 561 OFFCURVE",
"209 600 OFFCURVE",
"154 600 CURVE",
"21 600 LINE"
);
},
{
closed = 1;
nodes = (
"286 354 LINE",
"49 354 LINE",
"49 261 LINE",
"286 261 LINE"
);
}
);
width = 620;
},
{
layerId = "E6A807D2-02F5-45B7-9AC8-B5230FFEC057";
paths = (
{
closed = 1;
nodes = (
"42 362 LINE",
"42 229 LINE",
"309 229 LINE",
"309 362 LINE"
);
},
{
closed = 1;
nodes = (
"10 467 LINE",
"243 467 LINE",
"168 549 LINE",
"93 0 LINE",
"219 0 LINE",
"291 467 LINE SMOOTH",
"303 547 OFFCURVE",
"258 600 OFFCURVE",
"179 600 CURVE SMOOTH",
"10 600 LINE"
);
}
);
width = 319;
},
{
layerId = "A98666DC-4638-42B6-8332-BBF4982DF0EF";
paths = (
{
closed = 1;
nodes = (
"90 333 LINE",
"90 280 LINE",
"277 280 LINE",
"277 333 LINE"
);
},
{
closed = 1;
nodes = (
"20 547 LINE",
"249 547 LINE",
"233 572 LINE",
"94 0 LINE",
"147 0 LINE",
"160 26 OFFCURVE",
"229 334 OFFCURVE",
"263 474 CURVE SMOOTH",
"283 555 OFFCURVE",
"270 600 OFFCURVE",
"202 600 CURVE SMOOTH",
"20 600 LINE"
);
}
);
width = 297;
}
);
note = seven;
unicode = 0037;
},
{
glyphname = eight;
lastChange = "2020-10-24 16:02:27 +0000";
layers = (
{
layerId = "83682BA5-5A7B-4081-8B26-D550B6F33EEB";
paths = (
{
closed = 1;
nodes = (
"163 0 LINE",
"218 0 OFFCURVE",
"257 39 OFFCURVE",
"257 93 CURVE SMOOTH",
"257 207 LINE",
"162 207 LINE",
"162 51 LINE",
"204 93 LINE",
"125 93 LINE",
"123 0 LINE"
);
},
{
closed = 1;
nodes = (
"115 300 LINE",
"204 300 LINE",
"162 342 LINE",
"162 134 LINE",
"257 134 LINE",
"257 300 LINE",
"257 354 OFFCURVE",
"216 393 OFFCURVE",
"161 393 CURVE",
"115 393 LINE"
);
},
{
closed = 1;
nodes = (
"161 93 LINE",
"73 93 LINE",
"115 51 LINE",
"115 300 LINE",
"20 300 LINE",
"20 93 LINE SMOOTH",
"20 39 OFFCURVE",
"59 0 OFFCURVE",
"114 0 CURVE SMOOTH",
"163 0 LINE"
);
},
{
closed = 1;
nodes = (
"116 393 LINE",
"61 393 OFFCURVE",
"20 354 OFFCURVE",
"20 300 CURVE",
"20 134 LINE",
"115 134 LINE",
"115 342 LINE",
"73 300 LINE",
"139 300 LINE",
"139 393 LINE"
);
},
{
closed = 1;
nodes = (
"114 600 LINE",
"59 601 OFFCURVE",
"20 562 OFFCURVE",
"20 507 CURVE SMOOTH",
"20 471 LINE",
"115 471 LINE",
"115 549 LINE",
"73 507 LINE",
"139 507 LINE",
"139 600 LINE"
);
},
{
closed = 1;
nodes = (
"139 393 LINE",
"73 393 LINE",
"115 351 LINE",
"115 479 LINE",
"20 479 LINE",
"20 393 LINE SMOOTH",
"20 339 OFFCURVE",
"61 300 OFFCURVE",
"116 300 CURVE",
"139 300 LINE"
);
},
{
closed = 1;
nodes = (
"115 507 LINE",
"204 507 LINE",
"162 549 LINE",
"162 471 LINE",
"257 471 LINE",
"257 507 LINE SMOOTH",
"257 561 OFFCURVE",
"217 600 OFFCURVE",
"163 600 CURVE",
"113 600 LINE"
);
},
{
closed = 1;
nodes = (
"161 300 LINE",
"216 300 OFFCURVE",
"257 339 OFFCURVE",
"257 393 CURVE SMOOTH",
"257 479 LINE",
"162 479 LINE",
"162 351 LINE",
"204 393 LINE",
"115 393 LINE",
"115 300 LINE"
);
}
);
width = 277;
},
{
layerId = "E6A807D2-02F5-45B7-9AC8-B5230FFEC057";
paths = (
{
closed = 1;
nodes = (
"179 133 LINE",
"84 133 LINE",
"156 51 LINE",
"156 227 LINE",
"20 227 LINE",
"20 93 LINE SMOOTH",
"20 39 OFFCURVE",
"59 0 OFFCURVE",
"114 0 CURVE SMOOTH",
"179 0 LINE"
);
},
{
closed = 1;
nodes = (
"193 392 OFFCURVE",
"159 393 OFFCURVE",
"127 393 CURVE SMOOTH",
"72 393 OFFCURVE",
"20 354 OFFCURVE",
"20 300 CURVE SMOOTH",
"20 219 LINE",
"156 219 LINE",
"156 322 LINE",
"84 260 LINE",
"225 260 LINE",
"225 393 LINE"
);
},
{
closed = 1;
nodes = (
"184 366 LINE",
"224 411 LINE",
"111 411 LINE",
"156 366 LINE",
"156 442 LINE",
"20 442 LINE",
"20 371 LINE SMOOTH",
"20 315 OFFCURVE",
"58 278 OFFCURVE",
"114 278 CURVE SMOOTH",
"218 278 LINE SMOOTH",
"274 278 OFFCURVE",
"320 315 OFFCURVE",
"320 371 CURVE SMOOTH",
"320 442 LINE",
"184 442 LINE"
);
},
{
closed = 1;
nodes = (
"226 0 LINE SMOOTH",
"281 0 OFFCURVE",
"320 39 OFFCURVE",
"320 93 CURVE SMOOTH",
"320 227 LINE",
"184 227 LINE",
"184 51 LINE",
"256 133 LINE",
"161 133 LINE",
"161 0 LINE"
);
},
{
closed = 1;
nodes = (
"115 260 LINE",
"256 260 LINE",
"184 322 LINE",
"184 219 LINE",
"320 219 LINE",
"320 300 LINE SMOOTH",
"320 354 OFFCURVE",
"268 393 OFFCURVE",
"213 393 CURVE SMOOTH",
"181 393 OFFCURVE",
"147 393 OFFCURVE",
"115 393 CURVE"
);
},
{
closed = 1;
nodes = (
"156 433 LINE",
"156 512 LINE",
"111 467 LINE",
"229 467 LINE",
"184 512 LINE",
"184 433 LINE",
"320 433 LINE",
"320 507 LINE SMOOTH",
"320 561 OFFCURVE",
"281 600 OFFCURVE",
"226 600 CURVE SMOOTH",
"114 600 LINE SMOOTH",
"59 600 OFFCURVE",
"20 561 OFFCURVE",
"20 507 CURVE SMOOTH",
"20 433 LINE"
);
}
);
width = 340;
},
{
layerId = "A98666DC-4638-42B6-8332-BBF4982DF0EF";
paths = (
{
closed = 1;
nodes = (
"153 0 LINE",
"208 0 OFFCURVE",
"247 39 OFFCURVE",
"247 93 CURVE SMOOTH",
"247 207 LINE",
"194 207 LINE",
"194 21 LINE",
"216 53 LINE",
"114 53 LINE",
"114 0 LINE"
);
},
{
closed = 1;
nodes = (
"120 320 LINE",
"216 320 LINE",
"194 342 LINE",
"194 134 LINE",
"247 134 LINE",
"247 280 LINE SMOOTH",
"247 334 OFFCURVE",
"208 373 OFFCURVE",
"153 373 CURVE",
"120 373 LINE"
);
},
{
closed = 1;
nodes = (
"114 373 LINE",
"59 373 OFFCURVE",
"20 334 OFFCURVE",
"20 280 CURVE SMOOTH",
"20 134 LINE",
"73 134 LINE",
"73 342 LINE",
"51 320 LINE",
"133 320 LINE",
"133 373 LINE"
);
},
{
closed = 1;
nodes = (
"153 53 LINE",
"51 53 LINE",
"73 21 LINE",
"73 279 LINE",
"20 279 LINE",
"20 93 LINE SMOOTH",
"20 39 OFFCURVE",
"59 0 OFFCURVE",
"114 0 CURVE",
"153 0 LINE"
);
},
{
closed = 1;
nodes = (
"20 359 OFFCURVE",
"59 320 OFFCURVE",
"114 320 CURVE SMOOTH",
"143 320 LINE SMOOTH",
"198 320 OFFCURVE",
"237 359 OFFCURVE",
"237 413 CURVE SMOOTH",
"237 507 LINE SMOOTH",
"237 561 OFFCURVE",
"198 600 OFFCURVE",
"143 600 CURVE SMOOTH",
"114 600 LINE SMOOTH",
"59 600 OFFCURVE",
"20 561 OFFCURVE",
"20 507 CURVE SMOOTH",
"20 413 LINE SMOOTH"
);
},
{
closed = 1;
nodes = (
"73 572 LINE",
"48 547 LINE",
"209 547 LINE",
"184 572 LINE",
"184 348 LINE",
"209 373 LINE",
"48 373 LINE",
"73 348 LINE"
);
}
);
width = 267;
}
);
note = eight;
unicode = 0038;
},
{
glyphname = nine;
lastChange = "2020-10-24 16:03:29 +0000";
layers = (
{
layerId = "83682BA5-5A7B-4081-8B26-D550B6F33EEB";
paths = (
{
closed = 1;
nodes = (
"114 600 LINE",
"59 600 OFFCURVE",
"20 561 OFFCURVE",
"20 507 CURVE SMOOTH",
"20 393 LINE",
"115 393 LINE",
"115 549 LINE",
"73 507 LINE",
"152 507 LINE",
"154 600 LINE"
);
},
{
closed = 1;
nodes = (
"247 300 LINE",
"73 300 LINE",
"115 258 LINE",
"115 466 LINE",
"20 466 LINE",
"20 300 LINE SMOOTH",
"20 246 OFFCURVE",
"59 207 OFFCURVE",
"114 207 CURVE SMOOTH",
"247 207 LINE"
);
},
{
closed = 1;
nodes = (
"116 507 LINE",
"204 507 LINE",
"163 549 LINE",
"162 207 LINE",
"257 207 LINE",
"257 507 LINE SMOOTH",
"257 561 OFFCURVE",
"218 600 OFFCURVE",
"163 600 CURVE SMOOTH",
"114 600 LINE"
);
},
{
closed = 1;
nodes = (
"162 0 LINE",
"257 0 LINE",
"257 259 LINE",
"162 259 LINE",
"162 51 LINE"
);
}
);
width = 277;
},
{
layerId = "E6A807D2-02F5-45B7-9AC8-B5230FFEC057";
paths = (
{
closed = 1;
nodes = (
"114 600 LINE SMOOTH",
"58 600 OFFCURVE",
"20 563 OFFCURVE",
"20 507 CURVE SMOOTH",
"20 393 LINE",
"156 393 LINE",
"156 549 LINE",
"84 467 LINE",
"164 467 LINE",
"164 600 LINE"
);
},
{
closed = 1;
nodes = (
"247 340 LINE",
"84 340 LINE",
"156 278 LINE",
"156 466 LINE",
"20 466 LINE",
"20 300 LINE SMOOTH",
"20 244 OFFCURVE",
"58 207 OFFCURVE",
"114 207 CURVE SMOOTH",
"247 207 LINE"
);
},
{
closed = 1;
nodes = (
"164 467 LINE",
"269 467 LINE",
"184 549 LINE",
"184 325 LINE",
"320 325 LINE",
"320 507 LINE SMOOTH",
"320 563 OFFCURVE",
"277 600 OFFCURVE",
"213 600 CURVE SMOOTH",
"164 600 LINE"
);
},
{
closed = 1;
nodes = (
"184 0 LINE",
"320 0 LINE",
"320 468 LINE",
"184 468 LINE"
);
}
);
width = 340;
},
{
layerId = "A98666DC-4638-42B6-8332-BBF4982DF0EF";
paths = (
{
closed = 1;
nodes = (
"114 600 LINE",
"59 600 OFFCURVE",
"20 561 OFFCURVE",
"20 507 CURVE SMOOTH",
"20 393 LINE",
"73 393 LINE",
"73 579 LINE",
"51 547 LINE",
"153 547 LINE",
"153 600 LINE"
);
},
{
closed = 1;
nodes = (
"247 260 LINE",
"31 260 LINE",
"73 258 LINE",
"73 466 LINE",
"20 466 LINE",
"20 300 LINE SMOOTH",
"20 246 OFFCURVE",
"59 207 OFFCURVE",
"114 207 CURVE",
"247 207 LINE"
);
},
{
closed = 1;
nodes = (
"114 547 LINE",
"216 547 LINE",
"194 579 LINE",
"194 0 LINE",
"247 0 LINE",
"247 507 LINE SMOOTH",
"247 561 OFFCURVE",
"208 600 OFFCURVE",
"153 600 CURVE",
"114 600 LINE"
);
}
);
width = 267;
}
);
note = nine;
unicode = 0039;
},
{
glyphname = period;
lastChange = "2020-10-23 14:08:25 +0000";
layers = (
{
layerId = "83682BA5-5A7B-4081-8B26-D550B6F33EEB";
paths = (
{
closed = 1;
nodes = (
"20 0 LINE",
"113 0 LINE",
"113 93 LINE",
"20 93 LINE"
);
}
);
width = 133;
},
{
layerId = "E6A807D2-02F5-45B7-9AC8-B5230FFEC057";
paths = (
{
closed = 1;
nodes = (
"20 0 LINE",
"123 0 LINE",
"123 103 LINE",
"20 103 LINE"
);
}
);
width = 143;
},
{
layerId = "A98666DC-4638-42B6-8332-BBF4982DF0EF";
paths = (
{
closed = 1;
nodes = (
"20 0 LINE",
"73 0 LINE",
"73 53 LINE",
"20 53 LINE"
);
}
);
width = 93;
}
);
note = period;
unicode = 002E;
},
{
glyphname = comma;
lastChange = "2020-10-24 21:37:01 +0000";
layers = (
{
layerId = "83682BA5-5A7B-4081-8B26-D550B6F33EEB";
paths = (
{
closed = 1;
nodes = (
"20 -63 LINE",
"110 -63 LINE",
"142 93 LINE",
"52 93 LINE"
);
}
);
width = 152;
},
{
layerId = "E6A807D2-02F5-45B7-9AC8-B5230FFEC057";
paths = (
{
closed = 1;
nodes = (
"20 -63 LINE",
"120 -63 LINE",
"152 93 LINE",
"52 93 LINE"
);
}
);
width = 162;
},
{
layerId = "A98666DC-4638-42B6-8332-BBF4982DF0EF";
paths = (
{
closed = 1;
nodes = (
"20 -63 LINE",
"70 -63 LINE",
"102 93 LINE",
"52 93 LINE"
);
}
);
width = 112;
}
);
note = comma;
unicode = 002C;
},
{
glyphname = colon;
lastChange = "2020-10-23 14:08:25 +0000";
layers = (
{
layerId = "83682BA5-5A7B-4081-8B26-D550B6F33EEB";
paths = (
{
closed = 1;
nodes = (
"20 100 LINE",
"113 100 LINE",
"113 193 LINE",
"20 193 LINE"
);
},
{
closed = 1;
nodes = (
"20 356 LINE",
"113 356 LINE",
"113 449 LINE",
"20 449 LINE"
);
}
);
width = 133;
},
{
layerId = "E6A807D2-02F5-45B7-9AC8-B5230FFEC057";
paths = (
{
closed = 1;
nodes = (
"20 150 LINE",
"133 150 LINE",
"133 286 LINE",
"20 286 LINE"
);
},
{
closed = 1;
nodes = (
"20 356 LINE",
"133 356 LINE",
"133 492 LINE",
"20 492 LINE"
);
}
);
width = 153;
},
{
layerId = "A98666DC-4638-42B6-8332-BBF4982DF0EF";
paths = (
{
closed = 1;
nodes = (
"20 140 LINE",
"73 140 LINE",
"73 193 LINE",
"20 193 LINE"
);
},
{
closed = 1;
nodes = (
"20 356 LINE",
"73 356 LINE",
"73 409 LINE",
"20 409 LINE"
);
}
);
width = 93;
}
);
note = colon;
unicode = 003A;
},
{
glyphname = semicolon;
lastChange = "2020-10-23 14:08:25 +0000";
layers = (
{
layerId = "83682BA5-5A7B-4081-8B26-D550B6F33EEB";
paths = (
{
closed = 1;
nodes = (
"49 356 LINE",
"142 356 LINE",
"142 449 LINE",
"49 449 LINE"
);
},
{
closed = 1;
nodes = (
"20 86 LINE",
"110 86 LINE",
"142 242 LINE",
"52 242 LINE"
);
}
);
width = 162;
},
{
layerId = "E6A807D2-02F5-45B7-9AC8-B5230FFEC057";
paths = (
{
closed = 1;
nodes = (
"52 356 LINE",
"165 356 LINE",
"165 492 LINE",
"52 492 LINE"
);
},
{
closed = 1;
nodes = (
"20 130 LINE",
"133 130 LINE",
"165 286 LINE",
"52 286 LINE"
);
}
);
width = 185;
},
{
layerId = "A98666DC-4638-42B6-8332-BBF4982DF0EF";
paths = (
{
closed = 1;
nodes = (
"47 356 LINE",
"100 356 LINE",
"100 409 LINE",
"47 409 LINE"
);
},
{
closed = 1;
nodes = (
"20 96 LINE",
"70 96 LINE",
"99 242 LINE",
"49 242 LINE"
);
}
);
width = 120;
}
);
note = semicolon;
unicode = 003B;
},
{
glyphname = exclam;
lastChange = "2020-10-23 14:08:25 +0000";
layers = (
{
layerId = "83682BA5-5A7B-4081-8B26-D550B6F33EEB";
paths = (
{
closed = 1;
nodes = (
"20 0 LINE",
"113 0 LINE",
"113 93 LINE",
"20 93 LINE"
);
},
{
closed = 1;
nodes = (
"20 128 LINE",
"113 128 LINE",
"113 600 LINE",
"20 600 LINE"
);
}
);
width = 133;
},
{
layerId = "E6A807D2-02F5-45B7-9AC8-B5230FFEC057";
paths = (
{
closed = 1;
nodes = (
"20 0 LINE",
"133 0 LINE",
"133 136 LINE",
"20 136 LINE"
);
},
{
closed = 1;
nodes = (
"20 171 LINE",
"133 171 LINE",
"133 600 LINE",
"20 600 LINE"
);
}
);
width = 153;
},
{
layerId = "A98666DC-4638-42B6-8332-BBF4982DF0EF";
paths = (
{
closed = 1;
nodes = (
"20 0 LINE",
"73 0 LINE",
"73 53 LINE",
"20 53 LINE"
);
},
{
closed = 1;
nodes = (
"20 78 LINE",
"73 78 LINE",
"73 600 LINE",
"20 600 LINE"
);
}
);
width = 93;
}
);
note = exclam;
unicode = 0021;
},
{
glyphname = exclamdown;
lastChange = "2020-10-23 14:08:25 +0000";
layers = (
{
layerId = "83682BA5-5A7B-4081-8B26-D550B6F33EEB";
paths = (
{
closed = 1;
nodes = (
"113 457 LINE",
"113 550 LINE",
"20 550 LINE",
"20 457 LINE"
);
},
{
closed = 1;
nodes = (
"113 -50 LINE",
"113 422 LINE",
"20 422 LINE",
"20 -50 LINE"
);
}
);
width = 133;
},
{
layerId = "E6A807D2-02F5-45B7-9AC8-B5230FFEC057";
paths = (
{
closed = 1;
nodes = (
"133 414 LINE",
"133 550 LINE",
"20 550 LINE",
"20 414 LINE"
);
},
{
closed = 1;
nodes = (
"133 -50 LINE",
"133 379 LINE",
"20 379 LINE",
"20 -50 LINE"
);
}
);
width = 153;
},
{
layerId = "A98666DC-4638-42B6-8332-BBF4982DF0EF";
paths = (
{
closed = 1;
nodes = (
"73 471 LINE",
"73 524 LINE",
"20 524 LINE",
"20 471 LINE"
);
},
{
closed = 1;
nodes = (
"73 -76 LINE",
"73 446 LINE",
"20 446 LINE",
"20 -76 LINE"
);
}
);
width = 93;
}
);
unicode = 00A1;
},
{
glyphname = question;
lastChange = "2020-10-23 14:08:25 +0000";
layers = (
{
associatedMasterId = "83682BA5-5A7B-4081-8B26-D550B6F33EEB";
layerId = "856EE622-7C51-4EC8-82B4-A95ACD8E5035";
name = "Apr 25 20, 14:29";
paths = (
{
closed = 1;
nodes = (
"147 128 LINE",
"147 327 LINE",
"147 244 LINE",
"118 276 LINE",
"229 310 OFFCURVE",
"324 375 OFFCURVE",
"324 508 CURVE SMOOTH",
"324 615 OFFCURVE",
"239 690 OFFCURVE",
"118 690 CURVE SMOOTH",
"26 690 LINE",
"0 598 LINE",
"118 598 LINE SMOOTH",
"181 598 OFFCURVE",
"225 560 OFFCURVE",
"225 506 CURVE SMOOTH",
"225 434 OFFCURVE",
"154 395 OFFCURVE",
"54 366 CURVE",
"54 128 LINE"
);
},
{
closed = 1;
nodes = (
"53 0 LINE",
"146 0 LINE",
"146 93 LINE",
"53 93 LINE"
);
}
);
width = 324;
},
{
layerId = "83682BA5-5A7B-4081-8B26-D550B6F33EEB";
paths = (
{
closed = 1;
nodes = (
"68 0 LINE",
"161 0 LINE",
"161 93 LINE",
"68 93 LINE"
);
},
{
closed = 1;
nodes = (
"160 351 LINE",
"105 349 OFFCURVE",
"66 310 OFFCURVE",
"66 258 CURVE",
"66 136 LINE",
"159 136 LINE",
"159 300 LINE",
"117 258 LINE",
"164 258 LINE",
"164 351 LINE"
);
},
{
closed = 1;
nodes = (
"214 258 OFFCURVE",
"247 295 OFFCURVE",
"247 351 CURVE",
"247 407 LINE",
"153 407 LINE",
"153 309 LINE",
"196 351 LINE",
"164 351 LINE",
"164 258 LINE"
);
},
{
closed = 1;
nodes = (
"114 400 LINE",
"114 549 LINE",
"72 507 LINE",
"195 507 LINE",
"153 549 LINE",
"153 370 LINE",
"247 370 LINE",
"247 507 LINE SMOOTH",
"247 561 OFFCURVE",
"207 600 OFFCURVE",
"153 600 CURVE SMOOTH",
"20 600 LINE",
"20 400 LINE"
);
}
);
visible = 1;
width = 267;
},
{
associatedMasterId = "83682BA5-5A7B-4081-8B26-D550B6F33EEB";
layerId = "E1EAF09E-09E4-4562-84C5-BB5C7FF15285";
name = "Apr 29 20, 20:44";
paths = (
{
closed = 1;
nodes = (
"167 128 LINE",
"167 257 LINE",
"167 174 LINE",
"138 206 LINE",
"248 206 OFFCURVE",
"334 299 OFFCURVE",
"334 418 CURVE SMOOTH",
"334 537 OFFCURVE",
"248 630 OFFCURVE",
"138 630 CURVE SMOOTH",
"20 630 LINE",
"20 448 LINE",
"113 448 LINE",
"113 580 LINE",
"71 538 LINE",
"138 538 LINE SMOOTH",
"192 538 OFFCURVE",
"235 484 OFFCURVE",
"235 416 CURVE SMOOTH",
"235 351 OFFCURVE",
"164 300 OFFCURVE",
"74 300 CURVE",
"74 128 LINE"
);
},
{
closed = 1;
nodes = (
"73 0 LINE",
"166 0 LINE",
"166 93 LINE",
"73 93 LINE"
);
}
);
width = 354;
},
{
associatedMasterId = "83682BA5-5A7B-4081-8B26-D550B6F33EEB";
layerId = "21EC71B7-9445-4D23-97C0-5FE19C498071";
name = "Oct 16 20, 17:50";
paths = (
{
closed = 1;
nodes = (
"78 0 LINE",
"171 0 LINE",
"171 93 LINE",
"78 93 LINE"
);
},
{
closed = 1;
nodes = (
"153 370 LINE",
"247 370 LINE",
"247 507 LINE",
"153 507 LINE"
);
},
{
closed = 1;
nodes = (
"78 253 LINE",
"171 253 LINE",
"247 370 LINE",
"154 370 LINE"
);
},
{
closed = 1;
nodes = (
"20 400 LINE",
"114 400 LINE",
"114 600 LINE",
"20 600 LINE"
);
},
{
closed = 1;
nodes = (
"78 140 LINE",
"171 140 LINE",
"171 253 LINE",
"78 253 LINE"
);
},
{
closed = 1;
nodes = (
"103 507 LINE",
"196 507 LINE",
"153 549 LINE",
"153 471 LINE",
"247 471 LINE",
"247 507 LINE",
"246 561 OFFCURVE",
"207 600 OFFCURVE",
"153 600 CURVE",
"103 600 LINE"
);
}
);
width = 267;
},
{
layerId = "E6A807D2-02F5-45B7-9AC8-B5230FFEC057";
paths = (
{
closed = 1;
nodes = (
"160 351 LINE",
"105 349 OFFCURVE",
"86 310 OFFCURVE",
"86 258 CURVE",
"86 171 LINE",
"199 171 LINE",
"199 300 LINE",
"137 258 LINE",
"184 258 LINE",
"164 351 LINE"
);
},
{
closed = 1;
nodes = (
"234 258 OFFCURVE",
"287 295 OFFCURVE",
"287 351 CURVE",
"287 407 LINE",
"173 407 LINE",
"173 309 LINE",
"196 351 LINE",
"164 351 LINE",
"184 258 LINE"
);
},
{
closed = 1;
nodes = (
"134 400 LINE",
"134 549 LINE",
"92 467 LINE",
"215 467 LINE",
"173 549 LINE",
"173 370 LINE",
"287 370 LINE",
"287 507 LINE SMOOTH",
"287 561 OFFCURVE",
"247 600 OFFCURVE",
"193 600 CURVE SMOOTH",
"20 600 LINE",
"20 400 LINE"
);
},
{
closed = 1;
nodes = (
"86 0 LINE",
"199 0 LINE",
"199 136 LINE",
"86 136 LINE"
);
}
);
width = 307;
},
{
layerId = "A98666DC-4638-42B6-8332-BBF4982DF0EF";
paths = (
{
closed = 1;
nodes = (
"74 400 LINE",
"74 569 LINE",
"32 546 LINE",
"155 546 LINE",
"153 549 LINE",
"153 391 LINE",
"207 391 LINE",
"207 507 LINE SMOOTH",
"207 561 OFFCURVE",
"167 600 OFFCURVE",
"113 600 CURVE SMOOTH",
"20 600 LINE",
"20 400 LINE"
);
},
{
closed = 1;
nodes = (
"58 0 LINE",
"111 0 LINE",
"111 53 LINE",
"58 53 LINE"
);
},
{
closed = 1;
nodes = (
"112 83 LINE",
"112 291 LINE",
"113 291 LINE SMOOTH",
"167 291 OFFCURVE",
"207 330 OFFCURVE",
"207 384 CURVE SMOOTH",
"207 446 LINE",
"153 446 LINE",
"153 345 LINE",
"123 345 LINE SMOOTH",
"85 345 OFFCURVE",
"59 310 OFFCURVE",
"59 258 CURVE SMOOTH",
"59 83 LINE"
);
}
);
width = 227;
}
);
note = question;
unicode = 003F;
},
{
glyphname = questiondown;
lastChange = "2020-10-23 14:08:25 +0000";
layers = (
{
layerId = "83682BA5-5A7B-4081-8B26-D550B6F33EEB";
paths = (
{
closed = 1;
nodes = (
"199 550 LINE",
"106 550 LINE",
"106 457 LINE",
"199 457 LINE"
);
},
{
closed = 1;
nodes = (
"107 199 LINE",
"162 201 OFFCURVE",
"201 240 OFFCURVE",
"201 292 CURVE",
"201 414 LINE",
"108 414 LINE",
"108 250 LINE",
"150 292 LINE",
"103 292 LINE",
"103 199 LINE"
);
},
{
closed = 1;
nodes = (
"53 292 OFFCURVE",
"20 255 OFFCURVE",
"20 199 CURVE",
"20 143 LINE",
"114 143 LINE",
"114 241 LINE",
"71 199 LINE",
"103 199 LINE",
"103 292 LINE"
);
},
{
closed = 1;
nodes = (
"153 150 LINE",
"153 1 LINE",
"195 43 LINE",
"72 43 LINE",
"114 1 LINE",
"114 180 LINE",
"20 180 LINE",
"20 43 LINE SMOOTH",
"20 -11 OFFCURVE",
"60 -50 OFFCURVE",
"114 -50 CURVE SMOOTH",
"247 -50 LINE",
"247 150 LINE"
);
}
);
width = 267;
},
{
layerId = "E6A807D2-02F5-45B7-9AC8-B5230FFEC057";
paths = (
{
closed = 1;
nodes = (
"147 199 LINE",
"202 201 OFFCURVE",
"221 240 OFFCURVE",
"221 292 CURVE",
"221 379 LINE",
"108 379 LINE",
"108 250 LINE",
"170 292 LINE",
"123 292 LINE",
"143 199 LINE"
);
},
{
closed = 1;
nodes = (
"73 292 OFFCURVE",
"20 255 OFFCURVE",
"20 199 CURVE",
"20 143 LINE",
"134 143 LINE",
"134 241 LINE",
"111 199 LINE",
"143 199 LINE",
"123 292 LINE"
);
},
{
closed = 1;
nodes = (
"153 150 LINE",
"153 1 LINE",
"195 43 LINE",
"92 43 LINE",
"134 1 LINE",
"134 180 LINE",
"20 180 LINE",
"20 43 LINE SMOOTH",
"20 -11 OFFCURVE",
"60 -50 OFFCURVE",
"114 -50 CURVE SMOOTH",
"267 -50 LINE",
"267 150 LINE"
);
},
{
closed = 1;
nodes = (
"221 550 LINE",
"108 550 LINE",
"108 414 LINE",
"221 414 LINE"
);
}
);
width = 287;
},
{
layerId = "A98666DC-4638-42B6-8332-BBF4982DF0EF";
paths = (
{
closed = 1;
nodes = (
"153 124 LINE",
"153 -45 LINE",
"195 -22 LINE",
"72 -22 LINE",
"74 -25 LINE",
"74 133 LINE",
"20 133 LINE",
"20 17 LINE SMOOTH",
"20 -37 OFFCURVE",
"60 -76 OFFCURVE",
"114 -76 CURVE SMOOTH",
"207 -76 LINE",
"207 124 LINE"
);
},
{
closed = 1;
nodes = (
"169 524 LINE",
"116 524 LINE",
"116 471 LINE",
"169 471 LINE"
);
},
{
closed = 1;
nodes = (
"115 441 LINE",
"115 233 LINE",
"114 233 LINE SMOOTH",
"60 233 OFFCURVE",
"20 194 OFFCURVE",
"20 140 CURVE SMOOTH",
"20 78 LINE",
"74 78 LINE",
"74 179 LINE",
"104 179 LINE SMOOTH",
"142 179 OFFCURVE",
"168 214 OFFCURVE",
"168 266 CURVE SMOOTH",
"168 441 LINE"
);
}
);
width = 227;
}
);
unicode = 00BF;
},
{
glyphname = periodcentered;
lastChange = "2020-10-23 14:08:25 +0000";
layers = (
{
layerId = "83682BA5-5A7B-4081-8B26-D550B6F33EEB";
paths = (
{
closed = 1;
nodes = (
"186 217 LINE",
"186 383 LINE",
"20 383 LINE",
"20 217 LINE"
);
}
);
width = 206;
},
{
layerId = "E6A807D2-02F5-45B7-9AC8-B5230FFEC057";
paths = (
{
closed = 1;
nodes = (
"220 200 LINE",
"220 400 LINE",
"20 400 LINE",
"20 200 LINE"
);
}
);
width = 240;
},
{
layerId = "A98666DC-4638-42B6-8332-BBF4982DF0EF";
paths = (
{
closed = 1;
nodes = (
"20 244 LINE",
"146 244 LINE",
"146 369 LINE",
"20 369 LINE"
);
}
);
width = 166;
}
);
note = middot;
unicode = 00B7;
},
{
glyphname = bullet;
lastChange = "2020-10-23 14:08:25 +0000";
layers = (
{
layerId = "83682BA5-5A7B-4081-8B26-D550B6F33EEB";
paths = (
{
closed = 1;
nodes = (
"165 200 OFFCURVE",
"210 244 OFFCURVE",
"210 300 CURVE SMOOTH",
"210 355 OFFCURVE",
"165 400 OFFCURVE",
"110 400 CURVE SMOOTH",
"54 400 OFFCURVE",
"10 355 OFFCURVE",
"10 300 CURVE SMOOTH",
"10 244 OFFCURVE",
"54 200 OFFCURVE",
"110 200 CURVE SMOOTH"
);
}
);
width = 221;
},
{
layerId = "E6A807D2-02F5-45B7-9AC8-B5230FFEC057";
paths = (
{
closed = 1;
nodes = (
"190 188 OFFCURVE",
"240 238 OFFCURVE",
"240 299 CURVE SMOOTH",
"240 359 OFFCURVE",
"190 409 OFFCURVE",
"130 409 CURVE SMOOTH",
"69 409 OFFCURVE",
"20 359 OFFCURVE",
"20 299 CURVE SMOOTH",
"20 238 OFFCURVE",
"69 188 OFFCURVE",
"130 188 CURVE SMOOTH"
);
}
);
width = 260;
},
{
layerId = "A98666DC-4638-42B6-8332-BBF4982DF0EF";
paths = (
{
closed = 1;
nodes = (
"117 237 OFFCURVE",
"145 266 OFFCURVE",
"145 300 CURVE SMOOTH",
"145 334 OFFCURVE",
"117 363 OFFCURVE",
"82 363 CURVE SMOOTH",
"49 363 OFFCURVE",
"20 334 OFFCURVE",
"20 300 CURVE SMOOTH",
"20 266 OFFCURVE",
"49 237 OFFCURVE",
"82 237 CURVE SMOOTH"
);
}
);
width = 165;
}
);
unicode = 2022;
},
{
glyphname = asterisk;
lastChange = "2020-10-23 14:08:25 +0000";
layers = (
{
layerId = "83682BA5-5A7B-4081-8B26-D550B6F33EEB";
paths = (
{
closed = 1;
nodes = (
"104 321 LINE",
"180 321 LINE",
"179 600 LINE",
"103 600 LINE"
);
},
{
closed = 1;
nodes = (
"2 423 LINE",
"40 357 LINE",
"281 498 LINE",
"243 564 LINE"
);
},
{
closed = 1;
nodes = (
"2 498 LINE",
"243 357 LINE",
"281 423 LINE",
"40 564 LINE"
);
}
);
width = 283;
},
{
layerId = "E6A807D2-02F5-45B7-9AC8-B5230FFEC057";
paths = (
{
closed = 1;
nodes = (
"134 281 LINE",
"230 281 LINE",
"229 600 LINE",
"133 600 LINE"
);
},
{
closed = 1;
nodes = (
"20 402 LINE",
"68 319 LINE",
"343 479 LINE",
"295 562 LINE"
);
},
{
closed = 1;
nodes = (
"20 479 LINE",
"295 319 LINE",
"343 402 LINE",
"68 562 LINE"
);
}
);
width = 363;
},
{
layerId = "A98666DC-4638-42B6-8332-BBF4982DF0EF";
paths = (
{
closed = 1;
nodes = (
"119 351 LINE",
"155 351 LINE",
"154 600 LINE",
"118 600 LINE"
);
},
{
closed = 1;
nodes = (
"20 428 LINE",
"38 397 LINE",
"253 523 LINE",
"235 554 LINE"
);
},
{
closed = 1;
nodes = (
"20 523 LINE",
"235 397 LINE",
"253 428 LINE",
"38 554 LINE"
);
}
);
width = 273;
}
);
note = asterisk;
unicode = 002A;
},
{
glyphname = numbersign;
lastChange = "2020-10-23 14:08:25 +0000";
layers = (
{
layerId = "83682BA5-5A7B-4081-8B26-D550B6F33EEB";
paths = (
{
closed = 1;
nodes = (
"410 153 LINE",
"410 246 LINE",
"20 246 LINE",
"20 153 LINE"
);
},
{
closed = 1;
nodes = (
"430 341 LINE",
"430 434 LINE",
"40 434 LINE",
"40 341 LINE"
);
},
{
closed = 1;
nodes = (
"171 0 LINE",
"211 600 LINE",
"107 600 LINE",
"68 0 LINE"
);
},
{
closed = 1;
nodes = (
"341 0 LINE",
"381 600 LINE",
"277 600 LINE",
"238 0 LINE"
);
}
);
width = 450;
},
{
associatedMasterId = "83682BA5-5A7B-4081-8B26-D550B6F33EEB";
layerId = "8F878D9F-C941-4432-85BC-9A4B033D806C";
name = "Oct 16 20, 16:33";
paths = (
{
closed = 1;
nodes = (
"469 163 LINE",
"469 256 LINE",
"20 256 LINE",
"20 163 LINE"
);
},
{
closed = 1;
nodes = (
"469 351 LINE",
"469 444 LINE",
"20 444 LINE",
"20 351 LINE"
);
},
{
closed = 1;
nodes = (
"151 0 LINE",
"248 600 LINE",
"145 600 LINE",
"48 0 LINE"
);
},
{
closed = 1;
nodes = (
"330 0 LINE",
"427 600 LINE",
"324 600 LINE",
"227 0 LINE"
);
}
);
width = 489;
},
{
layerId = "E6A807D2-02F5-45B7-9AC8-B5230FFEC057";
paths = (
{
closed = 1;
nodes = (
"440 143 LINE",
"440 266 LINE",
"20 266 LINE",
"20 143 LINE"
);
},
{
closed = 1;
nodes = (
"460 321 LINE",
"460 444 LINE",
"40 444 LINE",
"40 321 LINE"
);
},
{
closed = 1;
nodes = (
"201 0 LINE",
"241 600 LINE",
"117 600 LINE",
"78 0 LINE"
);
},
{
closed = 1;
nodes = (
"371 0 LINE",
"411 600 LINE",
"287 600 LINE",
"248 0 LINE"
);
}
);
width = 480;
},
{
layerId = "A98666DC-4638-42B6-8332-BBF4982DF0EF";
paths = (
{
closed = 1;
nodes = (
"390 193 LINE",
"390 246 LINE",
"20 246 LINE",
"20 193 LINE"
);
},
{
closed = 1;
nodes = (
"410 341 LINE",
"410 394 LINE",
"40 394 LINE",
"40 341 LINE"
);
},
{
closed = 1;
nodes = (
"161 0 LINE",
"201 600 LINE",
"137 600 LINE",
"98 0 LINE"
);
},
{
closed = 1;
nodes = (
"291 0 LINE",
"331 600 LINE",
"267 600 LINE",
"228 0 LINE"
);
}
);
width = 430;
}
);
note = numbersign;
unicode = 0023;
},
{
glyphname = slash;
lastChange = "2020-10-23 14:08:25 +0000";
layers = (
{
layerId = "83682BA5-5A7B-4081-8B26-D550B6F33EEB";
paths = (
{
closed = 1;
nodes = (
"10 -67 LINE",
"113 -67 LINE",
"220 690 LINE",
"117 690 LINE"
);
}
);
width = 230;
},
{
layerId = "E6A807D2-02F5-45B7-9AC8-B5230FFEC057";
paths = (
{
closed = 1;
nodes = (
"10 -67 LINE",
"153 -67 LINE",
"260 690 LINE",
"117 690 LINE"
);
}
);
width = 270;
},
{
layerId = "A98666DC-4638-42B6-8332-BBF4982DF0EF";
paths = (
{
closed = 1;
nodes = (
"10 -67 LINE",
"63 -67 LINE",
"170 690 LINE",
"117 690 LINE"
);
}
);
width = 180;
}
);
note = slash;
unicode = 002F;
},
{
glyphname = backslash;
lastChange = "2020-10-23 14:08:25 +0000";
layers = (
{
layerId = "83682BA5-5A7B-4081-8B26-D550B6F33EEB";
paths = (
{
closed = 1;
nodes = (
"10 640 LINE",
"117 -37 LINE",
"220 -37 LINE",
"113 640 LINE"
);
}
);
width = 230;
},
{
layerId = "E6A807D2-02F5-45B7-9AC8-B5230FFEC057";
paths = (
{
closed = 1;
nodes = (
"10 640 LINE",
"117 -37 LINE",
"240 -37 LINE",
"133 640 LINE"
);
}
);
width = 260;
},
{
layerId = "A98666DC-4638-42B6-8332-BBF4982DF0EF";
paths = (
{
closed = 1;
nodes = (
"10 640 LINE",
"117 -37 LINE",
"170 -37 LINE",
"63 640 LINE"
);
}
);
width = 180;
}
);
note = backslash;
unicode = 005C;
},
{
glyphname = parenleft;
lastChange = "2020-10-23 14:08:25 +0000";
layers = (
{
layerId = "83682BA5-5A7B-4081-8B26-D550B6F33EEB";
paths = (
{
closed = 1;
nodes = (
"166 -57 LINE",
"71 -57 LINE",
"113 -79 LINE",
"113 682 LINE",
"71 660 LINE",
"166 660 LINE",
"166 733 LINE",
"114 733 LINE SMOOTH",
"59 733 OFFCURVE",
"20 694 OFFCURVE",
"20 640 CURVE SMOOTH",
"20 -37 LINE SMOOTH",
"20 -91 OFFCURVE",
"59 -130 OFFCURVE",
"114 -130 CURVE SMOOTH",
"166 -130 LINE"
);
}
);
width = 166;
},
{
associatedMasterId = "83682BA5-5A7B-4081-8B26-D550B6F33EEB";
layerId = "E4A9B78B-926E-4FEB-A119-E5D8921CA726";
name = "Oct 17 20, 17:16";
paths = (
{
closed = 1;
nodes = (
"101 733 LINE",
"44 633 OFFCURVE",
"11 475 OFFCURVE",
"11 300 CURVE SMOOTH",
"11 126 OFFCURVE",
"44 -31 OFFCURVE",
"101 -130 CURVE",
"199 -130 LINE",
"148 -29 OFFCURVE",
"104 129 OFFCURVE",
"113 300 CURVE SMOOTH",
"122 473 OFFCURVE",
"148 632 OFFCURVE",
"199 733 CURVE"
);
}
);
width = 179;
},
{
layerId = "E6A807D2-02F5-45B7-9AC8-B5230FFEC057";
paths = (
{
closed = 1;
nodes = (
"186 -37 LINE",
"51 -37 LINE",
"133 -79 LINE",
"133 682 LINE",
"51 640 LINE",
"186 640 LINE",
"186 733 LINE",
"94 733 LINE SMOOTH",
"39 733 OFFCURVE",
"0 694 OFFCURVE",
"0 640 CURVE SMOOTH",
"0 -37 LINE SMOOTH",
"0 -91 OFFCURVE",
"39 -130 OFFCURVE",
"94 -130 CURVE SMOOTH",
"186 -130 LINE"
);
}
);
width = 166;
},
{
layerId = "A98666DC-4638-42B6-8332-BBF4982DF0EF";
paths = (
{
closed = 1;
nodes = (
"126 -47 LINE",
"59 -47 LINE",
"73 -69 LINE",
"73 672 LINE",
"55 650 LINE",
"126 650 LINE",
"126 703 LINE",
"114 703 LINE SMOOTH",
"59 703 OFFCURVE",
"20 664 OFFCURVE",
"20 610 CURVE SMOOTH",
"20 -7 LINE SMOOTH",
"20 -61 OFFCURVE",
"59 -100 OFFCURVE",
"114 -100 CURVE SMOOTH",
"126 -100 LINE"
);
}
);
width = 126;
}
);
note = parenleft;
unicode = 0028;
},
{
glyphname = parenright;
lastChange = "2020-10-23 14:08:25 +0000";
layers = (
{
layerId = "83682BA5-5A7B-4081-8B26-D550B6F33EEB";
paths = (
{
closed = 1;
nodes = (
"52 -130 LINE SMOOTH",
"107 -130 OFFCURVE",
"146 -91 OFFCURVE",
"146 -37 CURVE SMOOTH",
"146 640 LINE SMOOTH",
"146 694 OFFCURVE",
"107 733 OFFCURVE",
"52 733 CURVE SMOOTH",
"0 733 LINE",
"0 660 LINE",
"95 660 LINE",
"53 682 LINE",
"53 -79 LINE",
"95 -57 LINE",
"0 -57 LINE",
"0 -130 LINE"
);
}
);
width = 166;
},
{
associatedMasterId = "83682BA5-5A7B-4081-8B26-D550B6F33EEB";
layerId = "BCB2C2A9-807C-4C8D-A415-D2B7B0F3624A";
name = "Oct 17 20, 17:20";
paths = (
{
closed = 1;
nodes = (
"9 -130 LINE SMOOTH",
"111 -130 OFFCURVE",
"152 -78 OFFCURVE",
"152 53 CURVE SMOOTH",
"152 560 LINE SMOOTH",
"150 683 OFFCURVE",
"109 733 OFFCURVE",
"9 733 CURVE SMOOTH",
"-40 733 LINE",
"-40 640 LINE",
"-1 640 LINE SMOOTH",
"46 640 OFFCURVE",
"59 612 OFFCURVE",
"59 551 CURVE SMOOTH",
"59 53 LINE SMOOTH",
"59 -14 OFFCURVE",
"46 -37 OFFCURVE",
"-1 -37 CURVE SMOOTH",
"-40 -37 LINE",
"-40 -130 LINE"
);
}
);
width = 166;
},
{
associatedMasterId = "83682BA5-5A7B-4081-8B26-D550B6F33EEB";
layerId = "C590DFC1-E144-4F19-9634-0BEE03020F2B";
name = "Oct 17 20, 17:12";
paths = (
{
closed = 1;
nodes = (
"31 588 OFFCURVE",
"64 450 OFFCURVE",
"66 300 CURVE SMOOTH",
"68 152 OFFCURVE",
"31 15 OFFCURVE",
"-20 -72 CURVE",
"79 -72 LINE",
"136 14 OFFCURVE",
"169 150 OFFCURVE",
"169 300 CURVE SMOOTH",
"169 452 OFFCURVE",
"136 589 OFFCURVE",
"79 675 CURVE",
"-20 675 LINE"
);
}
);
width = 245;
},
{
layerId = "E6A807D2-02F5-45B7-9AC8-B5230FFEC057";
paths = (
{
closed = 1;
nodes = (
"72 -130 LINE SMOOTH",
"127 -130 OFFCURVE",
"166 -91 OFFCURVE",
"166 -37 CURVE SMOOTH",
"166 640 LINE SMOOTH",
"166 694 OFFCURVE",
"127 733 OFFCURVE",
"72 733 CURVE SMOOTH",
"-20 733 LINE",
"-20 640 LINE",
"115 640 LINE",
"33 682 LINE",
"33 -79 LINE",
"115 -37 LINE",
"-20 -37 LINE",
"-20 -130 LINE"
);
}
);
width = 166;
},
{
layerId = "A98666DC-4638-42B6-8332-BBF4982DF0EF";
paths = (
{
closed = 1;
nodes = (
"12 -100 LINE SMOOTH",
"67 -100 OFFCURVE",
"106 -61 OFFCURVE",
"106 -7 CURVE SMOOTH",
"106 610 LINE SMOOTH",
"106 664 OFFCURVE",
"67 703 OFFCURVE",
"12 703 CURVE SMOOTH",
"0 703 LINE",
"0 650 LINE",
"71 650 LINE",
"53 672 LINE",
"53 -69 LINE",
"67 -47 LINE",
"0 -47 LINE",
"0 -100 LINE"
);
}
);
width = 126;
}
);
note = parenright;
unicode = 0029;
},
{
glyphname = braceleft;
lastChange = "2020-10-23 14:08:25 +0000";
layers = (
{
layerId = "83682BA5-5A7B-4081-8B26-D550B6F33EEB";
paths = (
{
closed = 1;
nodes = (
"268 -57 LINE",
"173 -57 LINE",
"215 -99 LINE",
"215 142 LINE SMOOTH",
"215 233 OFFCURVE",
"162 297 OFFCURVE",
"122 298 CURVE",
"122 305 LINE",
"162 303 OFFCURVE",
"215 368 OFFCURVE",
"215 461 CURVE SMOOTH",
"215 702 LINE",
"173 660 LINE",
"268 660 LINE",
"268 733 LINE",
"216 733 LINE SMOOTH",
"161 733 OFFCURVE",
"122 694 OFFCURVE",
"122 640 CURVE SMOOTH",
"122 550 LINE SMOOTH",
"122 458 OFFCURVE",
"110 355 OFFCURVE",
"20 354 CURVE",
"20 249 LINE",
"110 249 OFFCURVE",
"122 145 OFFCURVE",
"122 53 CURVE SMOOTH",
"122 -37 LINE SMOOTH",
"122 -91 OFFCURVE",
"161 -130 OFFCURVE",
"216 -130 CURVE SMOOTH",
"268 -130 LINE"
);
}
);
width = 288;
},
{
associatedMasterId = "83682BA5-5A7B-4081-8B26-D550B6F33EEB";
layerId = "B55F7317-1BBE-4BBE-A495-AD5F01AE815B";
name = "Oct 17 20, 17:45";
paths = (
{
closed = 1;
nodes = (
"314 -37 LINE",
"275 -37 LINE SMOOTH",
"228 -37 OFFCURVE",
"215 -14 OFFCURVE",
"215 53 CURVE SMOOTH",
"215 142 LINE SMOOTH",
"215 233 OFFCURVE",
"162 297 OFFCURVE",
"122 298 CURVE",
"122 305 LINE",
"162 306 OFFCURVE",
"215 370 OFFCURVE",
"215 461 CURVE SMOOTH",
"215 550 LINE SMOOTH",
"215 617 OFFCURVE",
"228 640 OFFCURVE",
"275 640 CURVE SMOOTH",
"314 640 LINE",
"314 733 LINE",
"265 733 LINE SMOOTH",
"163 733 OFFCURVE",
"122 681 OFFCURVE",
"122 550 CURVE SMOOTH",
"122 458 OFFCURVE",
"110 354 OFFCURVE",
"20 354 CURVE",
"20 249 LINE",
"110 249 OFFCURVE",
"122 145 OFFCURVE",
"122 53 CURVE SMOOTH",
"122 -78 OFFCURVE",
"163 -130 OFFCURVE",
"265 -130 CURVE SMOOTH",
"314 -130 LINE"
);
}
);
width = 334;
},
{
layerId = "E6A807D2-02F5-45B7-9AC8-B5230FFEC057";
paths = (
{
closed = 1;
nodes = (
"278 -27 LINE",
"183 -27 LINE",
"225 -99 LINE",
"225 142 LINE SMOOTH",
"225 233 OFFCURVE",
"172 297 OFFCURVE",
"132 298 CURVE",
"132 305 LINE",
"172 303 OFFCURVE",
"225 368 OFFCURVE",
"225 461 CURVE SMOOTH",
"225 702 LINE",
"183 630 LINE",
"278 630 LINE",
"278 733 LINE",
"226 733 LINE SMOOTH",
"127 733 OFFCURVE",
"122 714 OFFCURVE",
"122 640 CURVE SMOOTH",
"122 550 LINE SMOOTH",
"122 458 OFFCURVE",
"110 355 OFFCURVE",
"20 354 CURVE",
"20 249 LINE",
"110 249 OFFCURVE",
"122 145 OFFCURVE",
"122 53 CURVE SMOOTH",
"122 -37 LINE SMOOTH",
"122 -111 OFFCURVE",
"127 -130 OFFCURVE",
"226 -130 CURVE SMOOTH",
"278 -130 LINE"
);
}
);
width = 278;
},
{
layerId = "A98666DC-4638-42B6-8332-BBF4982DF0EF";
paths = (
{
closed = 1;
nodes = (
"228 -77 LINE",
"143 -77 LINE",
"175 -109 LINE",
"175 142 LINE SMOOTH",
"175 233 OFFCURVE",
"122 297 OFFCURVE",
"82 298 CURVE",
"82 305 LINE",
"122 303 OFFCURVE",
"175 368 OFFCURVE",
"175 461 CURVE SMOOTH",
"175 712 LINE",
"143 680 LINE",
"228 680 LINE",
"228 733 LINE",
"176 733 LINE SMOOTH",
"137 733 OFFCURVE",
"122 706 OFFCURVE",
"122 640 CURVE SMOOTH",
"122 550 LINE SMOOTH",
"122 458 OFFCURVE",
"110 335 OFFCURVE",
"20 334 CURVE",
"20 269 LINE",
"110 269 OFFCURVE",
"122 145 OFFCURVE",
"122 53 CURVE SMOOTH",
"122 -37 LINE SMOOTH",
"122 -103 OFFCURVE",
"137 -130 OFFCURVE",
"176 -130 CURVE SMOOTH",
"228 -130 LINE"
);
}
);
width = 228;
}
);
note = braceleft;
unicode = 007B;
},
{
glyphname = braceright;
lastChange = "2020-10-23 14:08:25 +0000";
layers = (
{
layerId = "83682BA5-5A7B-4081-8B26-D550B6F33EEB";
paths = (
{
closed = 1;
nodes = (
"52 -130 LINE SMOOTH",
"107 -130 OFFCURVE",
"146 -91 OFFCURVE",
"146 -37 CURVE SMOOTH",
"146 53 LINE SMOOTH",
"146 145 OFFCURVE",
"158 249 OFFCURVE",
"248 249 CURVE",
"248 354 LINE",
"158 355 OFFCURVE",
"146 458 OFFCURVE",
"146 550 CURVE SMOOTH",
"146 640 LINE SMOOTH",
"146 694 OFFCURVE",
"107 733 OFFCURVE",
"52 733 CURVE SMOOTH",
"0 733 LINE",
"0 660 LINE",
"95 660 LINE",
"53 702 LINE",
"53 461 LINE SMOOTH",
"53 368 OFFCURVE",
"106 303 OFFCURVE",
"146 305 CURVE",
"146 298 LINE",
"106 297 OFFCURVE",
"53 233 OFFCURVE",
"53 142 CURVE SMOOTH",
"53 -99 LINE",
"95 -57 LINE",
"0 -57 LINE",
"0 -130 LINE"
);
}
);
width = 268;
},
{
associatedMasterId = "83682BA5-5A7B-4081-8B26-D550B6F33EEB";
layerId = "0599B98A-4789-4A8B-BF24-DBC2AA26EEE9";
name = "Oct 17 20, 17:18";
paths = (
{
closed = 1;
nodes = (
"69 -130 LINE SMOOTH",
"171 -130 OFFCURVE",
"212 -78 OFFCURVE",
"212 53 CURVE SMOOTH",
"212 145 OFFCURVE",
"224 249 OFFCURVE",
"314 249 CURVE",
"314 354 LINE",
"224 354 OFFCURVE",
"212 458 OFFCURVE",
"212 550 CURVE SMOOTH",
"212 681 OFFCURVE",
"171 733 OFFCURVE",
"69 733 CURVE SMOOTH",
"20 733 LINE",
"20 640 LINE",
"59 640 LINE SMOOTH",
"106 640 OFFCURVE",
"119 617 OFFCURVE",
"119 550 CURVE SMOOTH",
"119 461 LINE SMOOTH",
"119 370 OFFCURVE",
"172 306 OFFCURVE",
"212 305 CURVE",
"212 298 LINE",
"172 297 OFFCURVE",
"119 233 OFFCURVE",
"119 142 CURVE SMOOTH",
"119 53 LINE SMOOTH",
"119 -14 OFFCURVE",
"106 -37 OFFCURVE",
"59 -37 CURVE SMOOTH",
"20 -37 LINE",
"20 -130 LINE"
);
}
);
width = 334;
},
{
layerId = "E6A807D2-02F5-45B7-9AC8-B5230FFEC057";
paths = (
{
closed = 1;
nodes = (
"52 -130 LINE SMOOTH",
"151 -130 OFFCURVE",
"156 -111 OFFCURVE",
"156 -37 CURVE SMOOTH",
"156 53 LINE SMOOTH",
"156 145 OFFCURVE",
"168 249 OFFCURVE",
"258 249 CURVE",
"258 354 LINE",
"168 355 OFFCURVE",
"156 458 OFFCURVE",
"156 550 CURVE SMOOTH",
"156 640 LINE SMOOTH",
"156 714 OFFCURVE",
"151 733 OFFCURVE",
"52 733 CURVE SMOOTH",
"0 733 LINE",
"0 630 LINE",
"95 630 LINE",
"53 702 LINE",
"53 461 LINE SMOOTH",
"53 368 OFFCURVE",
"106 303 OFFCURVE",
"146 305 CURVE",
"146 298 LINE",
"106 297 OFFCURVE",
"53 233 OFFCURVE",
"53 142 CURVE SMOOTH",
"53 -99 LINE",
"95 -27 LINE",
"0 -27 LINE",
"0 -130 LINE"
);
}
);
width = 278;
},
{
layerId = "A98666DC-4638-42B6-8332-BBF4982DF0EF";
paths = (
{
closed = 1;
nodes = (
"52 -130 LINE SMOOTH",
"91 -130 OFFCURVE",
"106 -103 OFFCURVE",
"106 -37 CURVE SMOOTH",
"106 53 LINE SMOOTH",
"106 145 OFFCURVE",
"118 269 OFFCURVE",
"208 269 CURVE",
"208 334 LINE",
"118 335 OFFCURVE",
"106 458 OFFCURVE",
"106 550 CURVE SMOOTH",
"106 640 LINE SMOOTH",
"106 706 OFFCURVE",
"91 733 OFFCURVE",
"52 733 CURVE SMOOTH",
"0 733 LINE",
"0 680 LINE",
"85 680 LINE",
"53 712 LINE",
"53 461 LINE SMOOTH",
"53 368 OFFCURVE",
"106 303 OFFCURVE",
"146 305 CURVE",
"146 298 LINE",
"106 297 OFFCURVE",
"53 233 OFFCURVE",
"53 142 CURVE SMOOTH",
"53 -109 LINE",
"85 -77 LINE",
"0 -77 LINE",
"0 -130 LINE"
);
}
);
width = 228;
}
);
note = braceright;
unicode = 007D;
},
{
glyphname = bracketleft;
lastChange = "2020-10-23 14:08:25 +0000";
layers = (
{
layerId = "83682BA5-5A7B-4081-8B26-D550B6F33EEB";
paths = (
{
closed = 1;
nodes = (
"146 -57 LINE",
"51 -57 LINE",
"93 -79 LINE",
"93 682 LINE",
"51 660 LINE",
"146 660 LINE",
"146 733 LINE",
"0 733 LINE",
"0 -130 LINE",
"146 -130 LINE"
);
}
);
width = 157;
},
{
layerId = "E6A807D2-02F5-45B7-9AC8-B5230FFEC057";
paths = (
{
closed = 1;
nodes = (
"177 -47 LINE",
"82 -47 LINE",
"124 -79 LINE",
"124 682 LINE",
"82 650 LINE",
"177 650 LINE",
"177 733 LINE",
"11 733 LINE",
"11 -130 LINE",
"177 -130 LINE"
);
}
);
width = 177;
},
{
layerId = "A98666DC-4638-42B6-8332-BBF4982DF0EF";
paths = (
{
closed = 1;
nodes = (
"106 -87 LINE",
"11 -87 LINE",
"53 -119 LINE",
"53 714 LINE",
"11 690 LINE",
"106 690 LINE",
"106 733 LINE",
"0 733 LINE",
"0 -130 LINE",
"106 -130 LINE"
);
}
);
width = 86;
}
);
note = bracketleft;
unicode = 005B;
},
{
glyphname = bracketright;
lastChange = "2020-10-23 14:08:25 +0000";
layers = (
{
layerId = "83682BA5-5A7B-4081-8B26-D550B6F33EEB";
paths = (
{
closed = 1;
nodes = (
"146 -130 LINE",
"146 733 LINE",
"0 733 LINE",
"0 660 LINE",
"95 660 LINE",
"53 682 LINE",
"53 -79 LINE",
"95 -57 LINE",
"0 -57 LINE",
"0 -130 LINE"
);
}
);
width = 157;
},
{
associatedMasterId = "83682BA5-5A7B-4081-8B26-D550B6F33EEB";
layerId = "5B2A6624-AB3F-440A-83A0-82582668E146";
name = "Oct 17 20, 17:16";
paths = (
{
closed = 1;
nodes = (
"137 733 LINE",
"-60 733 LINE",
"-60 640 LINE",
"44 640 LINE",
"44 -37 LINE",
"-60 -37 LINE",
"-60 -130 LINE",
"137 -130 LINE"
);
}
);
width = 157;
},
{
layerId = "E6A807D2-02F5-45B7-9AC8-B5230FFEC057";
paths = (
{
closed = 1;
nodes = (
"166 -130 LINE",
"166 733 LINE",
"0 733 LINE",
"0 650 LINE",
"95 650 LINE",
"53 682 LINE",
"53 -79 LINE",
"95 -47 LINE",
"0 -47 LINE",
"0 -130 LINE"
);
}
);
width = 177;
},
{
layerId = "A98666DC-4638-42B6-8332-BBF4982DF0EF";
paths = (
{
closed = 1;
nodes = (
"86 -130 LINE",
"86 733 LINE",
"-20 733 LINE",
"-20 690 LINE",
"75 690 LINE",
"33 714 LINE",
"33 -119 LINE",
"75 -87 LINE",
"-20 -87 LINE",
"-20 -130 LINE"
);
}
);
width = 86;
}
);
note = bracketright;
unicode = 005D;
},
{
glyphname = hyphen;
lastChange = "2020-10-23 14:08:25 +0000";
layers = (
{
layerId = "83682BA5-5A7B-4081-8B26-D550B6F33EEB";
paths = (
{
closed = 1;
nodes = (
"240 254 LINE",
"240 347 LINE",
"0 347 LINE",
"0 254 LINE"
);
}
);
width = 240;
},
{
layerId = "E6A807D2-02F5-45B7-9AC8-B5230FFEC057";
paths = (
{
closed = 1;
nodes = (
"20 358 LINE",
"20 245 LINE",
"300 245 LINE",
"300 358 LINE"
);
}
);
width = 320;
},
{
layerId = "A98666DC-4638-42B6-8332-BBF4982DF0EF";
paths = (
{
closed = 1;
nodes = (
"240 254 LINE",
"240 307 LINE",
"20 307 LINE",
"20 254 LINE"
);
}
);
width = 260;
}
);
note = hyphen;
unicode = 002D;
},
{
glyphname = underscore;
lastChange = "2020-10-23 14:08:25 +0000";
layers = (
{
layerId = "83682BA5-5A7B-4081-8B26-D550B6F33EEB";
paths = (
{
closed = 1;
nodes = (
"260 0 LINE",
"260 93 LINE",
"20 93 LINE",
"20 0 LINE"
);
}
);
width = 280;
},
{
layerId = "E6A807D2-02F5-45B7-9AC8-B5230FFEC057";
paths = (
{
closed = 1;
nodes = (
"300 0 LINE",
"300 103 LINE",
"20 103 LINE",
"20 0 LINE"
);
}
);
width = 320;
},
{
layerId = "A98666DC-4638-42B6-8332-BBF4982DF0EF";
paths = (
{
closed = 1;
nodes = (
"260 0 LINE",
"260 53 LINE",
"20 53 LINE",
"20 0 LINE"
);
}
);
width = 280;
}
);
note = underscore;
unicode = 005F;
},
{
glyphname = quotedbl;
lastChange = "2020-10-23 14:08:25 +0000";
layers = (
{
layerId = "83682BA5-5A7B-4081-8B26-D550B6F33EEB";
paths = (
{
closed = 1;
nodes = (
"0 507 LINE",
"90 507 LINE",
"128 690 LINE",
"38 690 LINE"
);
},
{
closed = 1;
nodes = (
"120 509 LINE",
"210 509 LINE",
"248 692 LINE",
"158 692 LINE"
);
}
);
width = 248;
},
{
layerId = "E6A807D2-02F5-45B7-9AC8-B5230FFEC057";
paths = (
{
closed = 1;
nodes = (
"0 467 LINE",
"110 467 LINE",
"147 657 LINE",
"37 657 LINE"
);
},
{
closed = 1;
nodes = (
"138 467 LINE",
"248 467 LINE",
"285 657 LINE",
"175 657 LINE"
);
}
);
width = 285;
},
{
layerId = "A98666DC-4638-42B6-8332-BBF4982DF0EF";
paths = (
{
closed = 1;
nodes = (
"0 500 LINE",
"40 500 LINE",
"72 653 LINE",
"32 653 LINE"
);
},
{
closed = 1;
nodes = (
"68 500 LINE",
"108 500 LINE",
"140 653 LINE",
"100 653 LINE"
);
}
);
width = 140;
}
);
note = quotedbl;
unicode = 0022;
},
{
glyphname = quotesingle;
lastChange = "2020-10-23 14:08:25 +0000";
layers = (
{
layerId = "83682BA5-5A7B-4081-8B26-D550B6F33EEB";
paths = (
{
closed = 1;
nodes = (
"10 507 LINE",
"100 507 LINE",
"145 670 LINE",
"55 670 LINE"
);
}
);
width = 115;
},
{
layerId = "E6A807D2-02F5-45B7-9AC8-B5230FFEC057";
paths = (
{
closed = 1;
nodes = (
"5 467 LINE",
"115 467 LINE",
"152 657 LINE",
"42 657 LINE"
);
}
);
width = 122;
},
{
layerId = "A98666DC-4638-42B6-8332-BBF4982DF0EF";
paths = (
{
closed = 1;
nodes = (
"10 500 LINE",
"50 500 LINE",
"82 653 LINE",
"42 653 LINE"
);
}
);
width = 52;
}
);
note = quotesingle;
unicode = 0027;
},
{
glyphname = gereshhb;
lastChange = "2020-10-23 14:08:25 +0000";
layers = (
{
layerId = "83682BA5-5A7B-4081-8B26-D550B6F33EEB";
paths = (
{
closed = 1;
nodes = (
"0 507 LINE",
"90 507 LINE",
"135 670 LINE",
"45 670 LINE"
);
}
);
width = 125;
},
{
layerId = "E6A807D2-02F5-45B7-9AC8-B5230FFEC057";
paths = (
{
closed = 1;
nodes = (
"0 507 LINE",
"100 507 LINE",
"145 670 LINE",
"45 670 LINE"
);
}
);
width = 115;
},
{
layerId = "A98666DC-4638-42B6-8332-BBF4982DF0EF";
paths = (
{
closed = 1;
nodes = (
"-10 507 LINE",
"40 507 LINE",
"85 670 LINE",
"35 670 LINE"
);
}
);
width = 65;
}
);
unicode = 05F3;
},
{
glyphname = gershayimhb;
lastChange = "2020-10-23 14:08:25 +0000";
layers = (
{
layerId = "83682BA5-5A7B-4081-8B26-D550B6F33EEB";
paths = (
{
closed = 1;
nodes = (
"0 507 LINE",
"90 507 LINE",
"135 670 LINE",
"45 670 LINE"
);
},
{
closed = 1;
nodes = (
"120 507 LINE",
"210 507 LINE",
"255 670 LINE",
"165 670 LINE"
);
}
);
width = 245;
},
{
layerId = "E6A807D2-02F5-45B7-9AC8-B5230FFEC057";
paths = (
{
closed = 1;
nodes = (
"0 500 LINE",
"100 500 LINE",
"145 663 LINE",
"45 663 LINE"
);
},
{
closed = 1;
nodes = (
"120 500 LINE",
"220 500 LINE",
"265 663 LINE",
"165 663 LINE"
);
}
);
width = 245;
},
{
layerId = "A98666DC-4638-42B6-8332-BBF4982DF0EF";
paths = (
{
closed = 1;
nodes = (
"20 500 LINE",
"60 500 LINE",
"92 653 LINE",
"52 653 LINE"
);
},
{
closed = 1;
nodes = (
"76 500 LINE",
"116 500 LINE",
"148 653 LINE",
"108 653 LINE"
);
}
);
width = 168;
}
);
unicode = 05F4;
},
{
glyphname = "maqaf-hb";
lastChange = "2020-10-23 14:08:25 +0000";
layers = (
{
layerId = "83682BA5-5A7B-4081-8B26-D550B6F33EEB";
paths = (
{
closed = 1;
nodes = (
"250 507 LINE",
"250 600 LINE",
"10 600 LINE",
"10 507 LINE"
);
}
);
width = 260;
},
{
layerId = "E6A807D2-02F5-45B7-9AC8-B5230FFEC057";
paths = (
{
closed = 1;
nodes = (
"260 487 LINE",
"260 600 LINE",
"20 600 LINE",
"20 487 LINE"
);
}
);
width = 280;
},
{
layerId = "A98666DC-4638-42B6-8332-BBF4982DF0EF";
paths = (
{
closed = 1;
nodes = (
"240 547 LINE",
"240 600 LINE",
"20 600 LINE",
"20 547 LINE"
);
}
);
width = 260;
}
);
note = maqaf;
unicode = 05BE;
},
{
glyphname = .notdef;
lastChange = "2020-10-23 14:08:25 +0000";
layers = (
{
layerId = "83682BA5-5A7B-4081-8B26-D550B6F33EEB";
paths = (
{
closed = 1;
nodes = (
"480 0 LINE",
"480 600 LINE",
"46 600 LINE",
"45 0 LINE"
);
},
{
closed = 1;
nodes = (
"453 41 LINE",
"129 578 LINE",
"72 559 LINE",
"396 22 LINE"
);
},
{
closed = 1;
nodes = (
"130 22 LINE",
"452 559 LINE",
"395 578 LINE",
"73 41 LINE"
);
},
{
closed = 1;
nodes = (
"114 534 LINE",
"411 534 LINE",
"411 66 LINE",
"114 66 LINE"
);
}
);
width = 525;
},
{
layerId = "E6A807D2-02F5-45B7-9AC8-B5230FFEC057";
width = 600;
},
{
layerId = "A98666DC-4638-42B6-8332-BBF4982DF0EF";
paths = (
{
closed = 1;
nodes = (
"401 0 LINE",
"401 600 LINE",
"21 600 LINE",
"20 0 LINE"
);
},
{
closed = 1;
nodes = (
"393 41 LINE",
"69 578 LINE",
"29 559 LINE",
"353 22 LINE"
);
},
{
closed = 1;
nodes = (
"67 547 LINE",
"355 547 LINE",
"355 53 LINE",
"67 53 LINE"
);
},
{
closed = 1;
nodes = (
"393 559 LINE",
"353 578 LINE",
"29 41 LINE",
"69 22 LINE"
);
}
);
width = 421;
}
);
note = .notdef;
},
{
glyphname = dollar;
lastChange = "2020-10-23 14:08:25 +0000";
layers = (
{
layerId = "83682BA5-5A7B-4081-8B26-D550B6F33EEB";
paths = (
{
closed = 1;
nodes = (
"103 288 LINE",
"251 288 LINE",
"209 330 LINE",
"209 272 LINE",
"302 272 LINE",
"302 288 LINE",
"302 340 OFFCURVE",
"263 379 OFFCURVE",
"208 381 CURVE",
"103 381 LINE"
);
},
{
closed = 1;
nodes = (
"103 381 LINE",
"71 381 LINE",
"114 339 LINE",
"114 437 LINE",
"20 437 LINE",
"20 381 LINE",
"19 325 OFFCURVE",
"52 288 OFFCURVE",
"103 288 CURVE"
);
},
{
closed = 1;
nodes = (
"297 580 LINE",
"114 580 LINE SMOOTH",
"59 580 OFFCURVE",
"20 541 OFFCURVE",
"20 487 CURVE SMOOTH",
"20 407 LINE",
"114 407 LINE",
"114 529 LINE",
"72 487 LINE",
"255 487 LINE",
"213 529 LINE",
"213 400 LINE",
"297 400 LINE"
);
},
{
closed = 1;
nodes = (
"25 50 LINE",
"208 50 LINE SMOOTH",
"262 50 OFFCURVE",
"302 89 OFFCURVE",
"302 143 CURVE SMOOTH",
"302 278 LINE",
"208 285 LINE",
"208 101 LINE",
"250 143 LINE",
"67 143 LINE",
"109 101 LINE",
"109 151 OFFCURVE",
"109 211 OFFCURVE",
"109 261 CURVE",
"25 261 LINE"
);
},
{
closed = 1;
nodes = (
"112 0 LINE",
"205 0 LINE",
"205 93 LINE",
"112 93 LINE"
);
},
{
closed = 1;
nodes = (
"117 537 LINE",
"210 537 LINE",
"210 630 LINE",
"117 630 LINE"
);
}
);
width = 322;
},
{
associatedMasterId = "83682BA5-5A7B-4081-8B26-D550B6F33EEB";
layerId = "2FF37F60-114D-4421-9863-B1CED433790B";
name = "Oct 18 20, 01:26";
paths = (
{
closed = 1;
nodes = (
"20 84 OFFCURVE",
"58 47 OFFCURVE",
"114 47 CURVE SMOOTH",
"214 47 LINE SMOOTH",
"270 47 OFFCURVE",
"308 84 OFFCURVE",
"308 140 CURVE SMOOTH",
"308 254 LINE SMOOTH",
"308 310 OFFCURVE",
"270 347 OFFCURVE",
"214 347 CURVE SMOOTH",
"71 347 LINE",
"113 305 LINE",
"113 503 LINE",
"71 461 LINE",
"257 461 LINE",
"215 503 LINE",
"215 382 LINE",
"308 382 LINE",
"308 461 LINE SMOOTH",
"308 517 OFFCURVE",
"270 554 OFFCURVE",
"214 554 CURVE SMOOTH",
"114 554 LINE SMOOTH",
"58 554 OFFCURVE",
"20 517 OFFCURVE",
"20 461 CURVE SMOOTH",
"20 347 LINE SMOOTH",
"20 291 OFFCURVE",
"58 254 OFFCURVE",
"114 254 CURVE SMOOTH",
"257 254 LINE",
"215 296 LINE",
"215 98 LINE",
"257 140 LINE",
"71 140 LINE",
"113 98 LINE",
"113 219 LINE",
"20 219 LINE",
"20 140 LINE SMOOTH"
);
},
{
closed = 1;
nodes = (
"126 -2 LINE",
"202 -2 LINE",
"202 600 LINE",
"126 600 LINE"
);
}
);
width = 328;
},
{
layerId = "E6A807D2-02F5-45B7-9AC8-B5230FFEC057";
paths = (
{
closed = 1;
nodes = (
"128 277 LINE",
"276 277 LINE",
"204 349 LINE",
"204 251 LINE",
"327 251 LINE",
"327 307 LINE",
"327 359 OFFCURVE",
"288 398 OFFCURVE",
"233 400 CURVE",
"128 400 LINE"
);
},
{
closed = 1;
nodes = (
"320 599 LINE",
"115 599 LINE SMOOTH",
"60 599 OFFCURVE",
"21 560 OFFCURVE",
"21 506 CURVE SMOOTH",
"21 426 LINE",
"145 426 LINE",
"145 548 LINE",
"73 476 LINE",
"278 476 LINE",
"206 548 LINE",
"206 419 LINE",
"320 419 LINE"
);
},
{
closed = 1;
nodes = (
"20 50 LINE",
"233 50 LINE SMOOTH",
"287 50 OFFCURVE",
"327 89 OFFCURVE",
"327 143 CURVE SMOOTH",
"327 285 LINE",
"203 285 LINE",
"203 101 LINE",
"245 173 LINE",
"92 173 LINE",
"134 101 LINE",
"134 151 OFFCURVE",
"134 211 OFFCURVE",
"134 261 CURVE",
"20 261 LINE"
);
},
{
closed = 1;
nodes = (
"124 0 LINE",
"219 0 LINE",
"219 93 LINE",
"124 93 LINE"
);
},
{
closed = 1;
nodes = (
"124 560 LINE",
"219 560 LINE",
"219 631 LINE",
"124 631 LINE"
);
},
{
closed = 1;
nodes = (
"220 400 LINE",
"72 400 LINE",
"144 328 LINE",
"144 426 LINE",
"21 426 LINE",
"21 370 LINE",
"21 318 OFFCURVE",
"60 279 OFFCURVE",
"115 277 CURVE",
"220 277 LINE"
);
}
);
width = 347;
},
{
layerId = "A98666DC-4638-42B6-8332-BBF4982DF0EF";
paths = (
{
closed = 1;
nodes = (
"297 580 LINE",
"114 580 LINE SMOOTH",
"59 580 OFFCURVE",
"20 541 OFFCURVE",
"20 487 CURVE SMOOTH",
"20 407 LINE",
"73 407 LINE",
"73 559 LINE",
"42 527 LINE",
"275 527 LINE",
"244 559 LINE",
"244 400 LINE",
"297 400 LINE"
);
},
{
closed = 1;
nodes = (
"25 50 LINE",
"208 50 LINE SMOOTH",
"262 50 OFFCURVE",
"302 89 OFFCURVE",
"302 143 CURVE SMOOTH",
"302 288 LINE",
"249 288 LINE",
"249 91 LINE",
"270 103 LINE",
"47 103 LINE",
"78 91 LINE",
"78 141 OFFCURVE",
"78 211 OFFCURVE",
"78 261 CURVE",
"25 261 LINE"
);
},
{
closed = 1;
nodes = (
"137 0 LINE",
"190 0 LINE",
"190 630 LINE",
"137 630 LINE"
);
},
{
closed = 1;
nodes = (
"302 277 LINE SMOOTH",
"302 332 OFFCURVE",
"263 371 OFFCURVE",
"209 371 CURVE SMOOTH",
"114 371 LINE",
"114 318 LINE",
"281 318 LINE",
"249 350 LINE",
"249 250 LINE",
"302 250 LINE"
);
},
{
closed = 1;
nodes = (
"20 412 LINE SMOOTH",
"20 357 OFFCURVE",
"59 318 OFFCURVE",
"113 318 CURVE SMOOTH",
"208 318 LINE",
"208 371 LINE",
"41 371 LINE",
"73 339 LINE",
"73 439 LINE",
"20 439 LINE"
);
}
);
width = 322;
}
);
note = dollar;
unicode = 0024;
},
{
glyphname = euro;
lastChange = "2020-10-23 14:08:25 +0000";
layers = (
{
layerId = "83682BA5-5A7B-4081-8B26-D550B6F33EEB";
paths = (
{
closed = 1;
nodes = (
"21 339 LINE",
"21 281 LINE",
"297 281 LINE",
"297 339 LINE"
);
},
{
closed = 1;
nodes = (
"67 41 OFFCURVE",
"108 0 OFFCURVE",
"161 0 CURVE SMOOTH",
"361 0 LINE SMOOTH",
"428 0 OFFCURVE",
"455 27 OFFCURVE",
"455 93 CURVE SMOOTH",
"455 152 LINE",
"362 152 LINE",
"362 93 LINE",
"160 93 LINE",
"160 437 LINE",
"362 437 LINE",
"362 378 LINE",
"455 378 LINE",
"455 437 LINE SMOOTH",
"455 503 OFFCURVE",
"428 530 OFFCURVE",
"361 530 CURVE SMOOTH",
"161 530 LINE SMOOTH",
"108 530 OFFCURVE",
"67 489 OFFCURVE",
"67 437 CURVE SMOOTH",
"67 93 LINE SMOOTH"
);
},
{
closed = 1;
nodes = (
"20 250 LINE",
"20 192 LINE",
"296 192 LINE",
"296 250 LINE"
);
}
);
width = 475;
},
{
layerId = "E6A807D2-02F5-45B7-9AC8-B5230FFEC057";
paths = (
{
closed = 1;
nodes = (
"21 376 LINE",
"21 298 LINE",
"317 298 LINE",
"317 376 LINE"
);
},
{
closed = 1;
nodes = (
"67 41 OFFCURVE",
"108 0 OFFCURVE",
"161 0 CURVE SMOOTH",
"391 0 LINE SMOOTH",
"458 0 OFFCURVE",
"485 27 OFFCURVE",
"485 93 CURVE SMOOTH",
"485 192 LINE",
"352 192 LINE",
"352 88 LINE",
"437 133 LINE",
"115 133 LINE",
"200 48 LINE",
"200 519 LINE",
"115 434 LINE",
"437 434 LINE",
"352 519 LINE",
"352 375 LINE",
"485 375 LINE",
"485 474 LINE SMOOTH",
"485 540 OFFCURVE",
"458 567 OFFCURVE",
"391 567 CURVE SMOOTH",
"161 567 LINE SMOOTH",
"108 567 OFFCURVE",
"67 526 OFFCURVE",
"67 474 CURVE SMOOTH",
"67 93 LINE SMOOTH"
);
},
{
closed = 1;
nodes = (
"20 270 LINE",
"20 192 LINE",
"316 192 LINE",
"316 270 LINE"
);
}
);
width = 505;
},
{
layerId = "A98666DC-4638-42B6-8332-BBF4982DF0EF";
paths = (
{
closed = 1;
nodes = (
"21 319 LINE",
"21 281 LINE",
"307 281 LINE",
"307 319 LINE"
);
},
{
closed = 1;
nodes = (
"67 41 OFFCURVE",
"108 0 OFFCURVE",
"161 0 CURVE SMOOTH",
"291 0 LINE SMOOTH",
"358 0 OFFCURVE",
"385 27 OFFCURVE",
"385 93 CURVE SMOOTH",
"385 152 LINE",
"332 152 LINE",
"332 28 LINE",
"367 53 LINE",
"95 53 LINE",
"120 28 LINE",
"120 502 LINE",
"95 477 LINE",
"347 477 LINE",
"332 502 LINE",
"332 378 LINE",
"385 378 LINE",
"385 437 LINE SMOOTH",
"385 503 OFFCURVE",
"358 530 OFFCURVE",
"291 530 CURVE SMOOTH",
"161 530 LINE SMOOTH",
"108 530 OFFCURVE",
"67 489 OFFCURVE",
"67 437 CURVE SMOOTH",
"67 93 LINE SMOOTH"
);
},
{
closed = 1;
nodes = (
"20 250 LINE",
"20 212 LINE",
"306 212 LINE",
"306 250 LINE"
);
}
);
width = 405;
}
);
note = currency;
unicode = 20AC;
},
{
glyphname = newsheqelsign;
lastChange = "2020-10-24 14:55:01 +0000";
layers = (
{
layerId = "83682BA5-5A7B-4081-8B26-D550B6F33EEB";
paths = (
{
closed = 1;
nodes = (
"287 139 LINE",
"382 139 LINE",
"382 507 LINE",
"287 507 LINE"
);
},
{
closed = 1;
nodes = (
"18 0 LINE",
"113 0 LINE",
"113 507 LINE",
"18 507 LINE"
);
},
{
closed = 1;
nodes = (
"18 507 LINE",
"18 414 LINE",
"382 414 LINE",
"382 507 LINE"
);
},
{
closed = 1;
nodes = (
"156 0 LINE",
"249 0 LINE",
"249 370 LINE",
"156 370 LINE"
);
},
{
closed = 1;
nodes = (
"422 0 LINE SMOOTH",
"478 0 OFFCURVE",
"516 37 OFFCURVE",
"516 93 CURVE SMOOTH",
"516 507 LINE",
"421 507 LINE",
"421 51 LINE",
"463 93 LINE",
"156 93 LINE",
"156 0 LINE"
);
}
);
width = 534;
},
{
layerId = "E6A807D2-02F5-45B7-9AC8-B5230FFEC057";
paths = (
{
closed = 1;
nodes = (
"346 169 LINE",
"469 169 LINE",
"469 537 LINE",
"346 537 LINE"
);
},
{
closed = 1;
nodes = (
"20 0 LINE",
"143 0 LINE",
"143 537 LINE",
"20 537 LINE"
);
},
{
closed = 1;
nodes = (
"20 537 LINE",
"20 414 LINE",
"469 414 LINE",
"469 537 LINE"
);
},
{
closed = 1;
nodes = (
"183 0 LINE",
"306 0 LINE",
"306 370 LINE",
"183 370 LINE"
);
},
{
closed = 1;
nodes = (
"538 0 LINE",
"593 0 OFFCURVE",
"632 39 OFFCURVE",
"632 93 CURVE",
"632 537 LINE",
"509 537 LINE",
"509 51 LINE",
"551 123 LINE",
"183 123 LINE",
"183 0 LINE"
);
}
);
width = 652;
},
{
layerId = "A98666DC-4638-42B6-8332-BBF4982DF0EF";
paths = (
{
closed = 1;
nodes = (
"207 139 LINE",
"260 139 LINE",
"260 507 LINE",
"207 507 LINE"
);
},
{
closed = 1;
nodes = (
"20 0 LINE",
"73 0 LINE",
"73 507 LINE",
"20 507 LINE"
);
},
{
closed = 1;
nodes = (
"20 507 LINE",
"20 454 LINE",
"260 454 LINE",
"260 507 LINE"
);
},
{
closed = 1;
nodes = (
"114 0 LINE",
"167 0 LINE",
"167 370 LINE",
"114 370 LINE"
);
},
{
closed = 1;
nodes = (
"260 0 LINE",
"315 0 OFFCURVE",
"354 39 OFFCURVE",
"354 93 CURVE",
"354 507 LINE",
"301 507 LINE",
"301 11 LINE",
"343 53 LINE",
"114 53 LINE",
"114 0 LINE"
);
}
);
width = 374;
}
);
note = sheqelhebrew;
unicode = 20AA;
},
{
glyphname = u20BF;
lastChange = "2020-10-23 14:08:25 +0000";
layers = (
{
layerId = "83682BA5-5A7B-4081-8B26-D550B6F33EEB";
paths = (
{
closed = 1;
nodes = (
"271 268 OFFCURVE",
"298 295 OFFCURVE",
"298 361 CURVE SMOOTH",
"298 475 LINE SMOOTH",
"298 541 OFFCURVE",
"271 568 OFFCURVE",
"204 568 CURVE SMOOTH",
"114 568 LINE SMOOTH",
"47 568 OFFCURVE",
"20 541 OFFCURVE",
"20 475 CURVE SMOOTH",
"20 268 LINE",
"113 268 LINE",
"113 517 LINE",
"71 475 LINE",
"247 475 LINE",
"205 517 LINE",
"205 319 LINE",
"247 361 LINE",
"114 361 LINE SMOOTH",
"47 361 OFFCURVE",
"20 334 OFFCURVE",
"20 268 CURVE SMOOTH",
"20 268 LINE",
"204 268 LINE SMOOTH"
);
},
{
closed = 1;
nodes = (
"321 51 OFFCURVE",
"349 78 OFFCURVE",
"349 144 CURVE SMOOTH",
"349 268 LINE SMOOTH",
"349 334 OFFCURVE",
"322 361 OFFCURVE",
"255 361 CURVE SMOOTH",
"114 361 LINE SMOOTH",
"47 361 OFFCURVE",
"20 334 OFFCURVE",
"20 268 CURVE SMOOTH",
"20 51 LINE",
"113 51 LINE",
"113 310 LINE",
"71 268 LINE",
"298 268 LINE",
"256 310 LINE",
"256 102 LINE",
"298 144 LINE",
"121 144 LINE SMOOTH",
"54 144 OFFCURVE",
"27 117 OFFCURVE",
"27 51 CURVE SMOOTH",
"27 51 LINE",
"255 51 LINE SMOOTH"
);
},
{
closed = 1;
nodes = (
"90 494 LINE",
"152 494 LINE",
"152 630 LINE",
"90 630 LINE"
);
},
{
closed = 1;
nodes = (
"161 494 LINE",
"223 494 LINE",
"223 630 LINE",
"161 630 LINE"
);
},
{
closed = 1;
nodes = (
"90 0 LINE",
"152 0 LINE",
"152 124 LINE",
"90 124 LINE"
);
},
{
closed = 1;
nodes = (
"161 0 LINE",
"223 0 LINE",
"223 124 LINE",
"161 124 LINE"
);
}
);
width = 369;
},
{
associatedMasterId = "83682BA5-5A7B-4081-8B26-D550B6F33EEB";
layerId = "7F85E828-82C5-44C2-810A-F6D56AC34EC1";
name = "Oct 18 20, 01:43";
paths = (
{
closed = 1;
nodes = (
"361 300 OFFCURVE",
"388 327 OFFCURVE",
"388 393 CURVE SMOOTH",
"388 507 LINE SMOOTH",
"388 573 OFFCURVE",
"361 600 OFFCURVE",
"294 600 CURVE SMOOTH",
"114 600 LINE SMOOTH",
"47 600 OFFCURVE",
"20 573 OFFCURVE",
"20 507 CURVE SMOOTH",
"20 300 LINE",
"113 300 LINE",
"113 549 LINE",
"71 507 LINE",
"337 507 LINE",
"295 549 LINE",
"295 351 LINE",
"337 393 LINE",
"114 393 LINE SMOOTH",
"47 393 OFFCURVE",
"20 366 OFFCURVE",
"20 300 CURVE SMOOTH",
"20 300 LINE",
"294 300 LINE SMOOTH"
);
},
{
closed = 1;
nodes = (
"412 93 OFFCURVE",
"439 120 OFFCURVE",
"439 186 CURVE SMOOTH",
"439 300 LINE SMOOTH",
"439 366 OFFCURVE",
"412 393 OFFCURVE",
"345 393 CURVE SMOOTH",
"114 393 LINE SMOOTH",
"47 393 OFFCURVE",
"20 366 OFFCURVE",
"20 300 CURVE SMOOTH",
"20 93 LINE",
"113 93 LINE",
"113 342 LINE",
"71 300 LINE",
"388 300 LINE",
"346 342 LINE",
"346 144 LINE",
"388 186 LINE",
"121 186 LINE SMOOTH",
"54 186 OFFCURVE",
"27 159 OFFCURVE",
"27 93 CURVE SMOOTH",
"27 93 LINE",
"345 93 LINE SMOOTH"
);
},
{
closed = 1;
nodes = (
"128 507 LINE",
"196 507 LINE",
"196 643 LINE",
"128 643 LINE"
);
},
{
closed = 1;
nodes = (
"212 507 LINE",
"280 507 LINE",
"280 643 LINE",
"212 643 LINE"
);
},
{
closed = 1;
nodes = (
"128 49 LINE",
"196 49 LINE",
"196 173 LINE",
"128 173 LINE"
);
},
{
closed = 1;
nodes = (
"212 49 LINE",
"280 49 LINE",
"280 173 LINE",
"212 173 LINE"
);
}
);
width = 459;
},
{
layerId = "E6A807D2-02F5-45B7-9AC8-B5230FFEC057";
paths = (
{
closed = 1;
nodes = (
"128 277 LINE",
"276 277 LINE",
"204 349 LINE",
"204 251 LINE",
"327 251 LINE",
"327 307 LINE",
"327 359 OFFCURVE",
"288 398 OFFCURVE",
"233 400 CURVE",
"128 400 LINE"
);
},
{
closed = 1;
nodes = (
"134 211 LINE",
"135 548 LINE",
"63 476 LINE",
"248 476 LINE",
"176 548 LINE",
"176 426 LINE",
"300 426 LINE",
"300 506 LINE SMOOTH",
"300 560 OFFCURVE",
"261 599 OFFCURVE",
"206 599 CURVE SMOOTH",
"21 599 LINE",
"20 211 LINE"
);
},
{
closed = 1;
nodes = (
"20 50 LINE",
"233 50 LINE SMOOTH",
"287 50 OFFCURVE",
"327 89 OFFCURVE",
"327 143 CURVE SMOOTH",
"327 285 LINE",
"203 285 LINE",
"203 101 LINE",
"245 173 LINE",
"92 173 LINE",
"134 101 LINE",
"134 151 OFFCURVE",
"134 211 OFFCURVE",
"134 261 CURVE",
"20 261 LINE"
);
},
{
closed = 1;
nodes = (
"114 0 LINE",
"209 0 LINE",
"209 93 LINE",
"114 93 LINE"
);
},
{
closed = 1;
nodes = (
"104 560 LINE",
"199 560 LINE",
"199 631 LINE",
"104 631 LINE"
);
},
{
closed = 1;
nodes = (
"206 277 LINE",
"261 279 OFFCURVE",
"300 318 OFFCURVE",
"300 370 CURVE",
"300 426 LINE",
"176 426 LINE",
"176 328 LINE",
"249 400 LINE",
"101 400 LINE",
"101 277 LINE"
);
}
);
width = 347;
},
{
layerId = "A98666DC-4638-42B6-8332-BBF4982DF0EF";
paths = (
{
closed = 1;
nodes = (
"73 91 LINE",
"73 559 LINE",
"42 527 LINE",
"240 527 LINE",
"209 559 LINE",
"209 407 LINE",
"262 407 LINE",
"262 487 LINE SMOOTH",
"262 541 OFFCURVE",
"223 580 OFFCURVE",
"168 580 CURVE SMOOTH",
"20 580 LINE",
"20 91 LINE"
);
},
{
closed = 1;
nodes = (
"20 50 LINE",
"203 50 LINE SMOOTH",
"257 50 OFFCURVE",
"297 89 OFFCURVE",
"297 143 CURVE SMOOTH",
"297 288 LINE",
"244 288 LINE",
"244 91 LINE",
"265 103 LINE",
"42 103 LINE",
"73 91 LINE",
"73 141 OFFCURVE",
"73 211 OFFCURVE",
"73 261 CURVE",
"20 261 LINE"
);
},
{
closed = 1;
nodes = (
"135 541 LINE",
"188 541 LINE",
"188 630 LINE",
"135 630 LINE"
);
},
{
closed = 1;
nodes = (
"297 277 LINE SMOOTH",
"297 332 OFFCURVE",
"258 371 OFFCURVE",
"204 371 CURVE SMOOTH",
"109 371 LINE",
"109 318 LINE",
"276 318 LINE",
"244 350 LINE",
"244 250 LINE",
"297 250 LINE"
);
},
{
closed = 1;
nodes = (
"209 439 LINE",
"209 339 LINE",
"241 371 LINE",
"42 371 LINE",
"42 318 LINE",
"169 318 LINE SMOOTH",
"223 318 OFFCURVE",
"262 357 OFFCURVE",
"262 412 CURVE SMOOTH",
"262 439 LINE"
);
},
{
closed = 1;
nodes = (
"75 541 LINE",
"128 541 LINE",
"128 630 LINE",
"75 630 LINE"
);
},
{
closed = 1;
nodes = (
"153 0 LINE",
"206 0 LINE",
"206 89 LINE",
"153 89 LINE"
);
},
{
closed = 1;
nodes = (
"93 0 LINE",
"146 0 LINE",
"146 89 LINE",
"93 89 LINE"
);
}
);
width = 317;
}
);
unicode = 20BF;
},
{
glyphname = plus;
lastChange = "2020-10-23 14:08:25 +0000";
layers = (
{
layerId = "83682BA5-5A7B-4081-8B26-D550B6F33EEB";
paths = (
{
closed = 1;
nodes = (
"21 348 LINE",
"20 254 LINE",
"300 255 LINE",
"300 350 LINE"
);
},
{
closed = 1;
nodes = (
"114 162 LINE",
"208 161 LINE",
"207 441 LINE",
"112 441 LINE"
);
}
);
width = 320;
},
{
layerId = "E6A807D2-02F5-45B7-9AC8-B5230FFEC057";
paths = (
{
closed = 1;
nodes = (
"109 172 LINE",
"213 171 LINE",
"212 451 LINE",
"107 451 LINE"
);
},
{
closed = 1;
nodes = (
"21 362 LINE",
"20 258 LINE",
"300 259 LINE",
"300 364 LINE"
);
}
);
width = 320;
},
{
layerId = "A98666DC-4638-42B6-8332-BBF4982DF0EF";
paths = (
{
closed = 1;
nodes = (
"20 327 LINE",
"20 274 LINE",
"280 274 LINE",
"280 327 LINE"
);
},
{
closed = 1;
nodes = (
"177 421 LINE",
"124 421 LINE",
"124 181 LINE",
"177 181 LINE"
);
}
);
width = 300;
}
);
note = plus;
unicode = 002B;
},
{
glyphname = minus;
lastChange = "2020-10-23 14:08:25 +0000";
layers = (
{
layerId = "83682BA5-5A7B-4081-8B26-D550B6F33EEB";
paths = (
{
closed = 1;
nodes = (
"0 347 LINE",
"0 254 LINE",
"280 254 LINE",
"280 347 LINE"
);
}
);
width = 280;
},
{
layerId = "E6A807D2-02F5-45B7-9AC8-B5230FFEC057";
paths = (
{
closed = 1;
nodes = (
"0 357 LINE",
"0 244 LINE",
"280 244 LINE",
"280 357 LINE"
);
}
);
width = 280;
},
{
layerId = "A98666DC-4638-42B6-8332-BBF4982DF0EF";
paths = (
{
closed = 1;
nodes = (
"0 327 LINE",
"0 274 LINE",
"280 274 LINE",
"280 327 LINE"
);
}
);
width = 280;
}
);
unicode = 2212;
},
{
glyphname = multiply;
lastChange = "2020-10-23 14:08:25 +0000";
layers = (
{
layerId = "83682BA5-5A7B-4081-8B26-D550B6F33EEB";
paths = (
{
closed = 1;
nodes = (
"21 236 LINE",
"87 169 LINE",
"284 367 LINE",
"217 434 LINE"
);
},
{
closed = 1;
nodes = (
"218 170 LINE",
"285 236 LINE",
"87 433 LINE",
"20 366 LINE"
);
}
);
width = 305;
},
{
layerId = "E6A807D2-02F5-45B7-9AC8-B5230FFEC057";
paths = (
{
closed = 1;
nodes = (
"20 231 LINE",
"93 157 LINE",
"308 373 LINE",
"233 447 LINE"
);
},
{
closed = 1;
nodes = (
"20 373 LINE",
"235 157 LINE",
"308 231 LINE",
"95 447 LINE"
);
}
);
width = 328;
},
{
layerId = "A98666DC-4638-42B6-8332-BBF4982DF0EF";
paths = (
{
closed = 1;
nodes = (
"58 411 LINE",
"20 374 LINE",
"204 190 LINE",
"242 227 LINE"
);
},
{
closed = 1;
nodes = (
"58 190 LINE",
"242 374 LINE",
"204 411 LINE",
"20 227 LINE"
);
}
);
width = 262;
}
);
unicode = 00D7;
},
{
glyphname = equal;
lastChange = "2020-10-23 14:08:25 +0000";
layers = (
{
layerId = "83682BA5-5A7B-4081-8B26-D550B6F33EEB";
paths = (
{
closed = 1;
nodes = (
"20 417 LINE",
"20 324 LINE",
"260 324 LINE",
"260 417 LINE"
);
},
{
closed = 1;
nodes = (
"20 279 LINE",
"20 186 LINE",
"260 186 LINE",
"260 279 LINE"
);
}
);
width = 280;
},
{
layerId = "E6A807D2-02F5-45B7-9AC8-B5230FFEC057";
paths = (
{
closed = 1;
nodes = (
"20 438 LINE",
"20 325 LINE",
"300 325 LINE",
"300 438 LINE"
);
},
{
closed = 1;
nodes = (
"20 296 LINE",
"20 183 LINE",
"300 183 LINE",
"300 296 LINE"
);
}
);
width = 320;
},
{
layerId = "A98666DC-4638-42B6-8332-BBF4982DF0EF";
paths = (
{
closed = 1;
nodes = (
"20 377 LINE",
"20 324 LINE",
"260 324 LINE",
"260 377 LINE"
);
},
{
closed = 1;
nodes = (
"20 297 LINE",
"20 244 LINE",
"260 244 LINE",
"260 297 LINE"
);
}
);
width = 280;
}
);
note = equal;
unicode = 003D;
},
{
glyphname = greater;
lastChange = "2020-10-23 14:08:25 +0000";
layers = (
{
layerId = "83682BA5-5A7B-4081-8B26-D550B6F33EEB";
paths = (
{
closed = 1;
nodes = (
"260 258 LINE",
"260 340 LINE",
"20 443 LINE",
"20 348 LINE",
"195 273 LINE",
"195 325 LINE",
"20 250 LINE",
"20 155 LINE"
);
}
);
width = 280;
},
{
layerId = "E6A807D2-02F5-45B7-9AC8-B5230FFEC057";
paths = (
{
closed = 1;
nodes = (
"260 243 LINE",
"260 355 LINE",
"20 458 LINE",
"20 338 LINE",
"195 263 LINE",
"195 335 LINE",
"20 260 LINE",
"20 140 LINE"
);
}
);
width = 280;
},
{
layerId = "A98666DC-4638-42B6-8332-BBF4982DF0EF";
paths = (
{
closed = 1;
nodes = (
"224 283 LINE",
"224 314 LINE",
"20 403 LINE",
"20 348 LINE",
"172 283 LINE",
"172 315 LINE",
"20 250 LINE",
"20 195 LINE"
);
}
);
width = 244;
}
);
note = greater;
unicode = 003E;
},
{
glyphname = less;
lastChange = "2020-10-23 14:08:25 +0000";
layers = (
{
layerId = "83682BA5-5A7B-4081-8B26-D550B6F33EEB";
paths = (
{
closed = 1;
nodes = (
"260 250 LINE",
"85 325 LINE",
"85 273 LINE",
"260 348 LINE",
"260 443 LINE",
"20 340 LINE",
"20 258 LINE",
"260 155 LINE"
);
}
);
width = 280;
},
{
layerId = "E6A807D2-02F5-45B7-9AC8-B5230FFEC057";
paths = (
{
closed = 1;
nodes = (
"260 260 LINE",
"85 335 LINE",
"85 263 LINE",
"260 338 LINE",
"260 458 LINE",
"20 355 LINE",
"20 243 LINE",
"260 140 LINE"
);
}
);
width = 280;
},
{
layerId = "A98666DC-4638-42B6-8332-BBF4982DF0EF";
paths = (
{
closed = 1;
nodes = (
"224 250 LINE",
"72 315 LINE",
"72 283 LINE",
"224 348 LINE",
"224 403 LINE",
"20 314 LINE",
"20 283 LINE",
"224 195 LINE"
);
}
);
width = 244;
}
);
unicode = 003C;
},
{
glyphname = asciitilde;
lastChange = "2020-10-23 14:08:25 +0000";
layers = (
{
layerId = "83682BA5-5A7B-4081-8B26-D550B6F33EEB";
paths = (
{
closed = 1;
nodes = (
"125 375 OFFCURVE",
"62 375 OFFCURVE",
"20 334 CURVE",
"20 230 LINE",
"59 278 OFFCURVE",
"113 278 OFFCURVE",
"180 250 CURVE SMOOTH",
"251 220 OFFCURVE",
"313 217 OFFCURVE",
"355 263 CURVE",
"355 367 LINE",
"316 315 OFFCURVE",
"264 319 OFFCURVE",
"195 347 CURVE SMOOTH"
);
}
);
width = 375;
},
{
layerId = "E6A807D2-02F5-45B7-9AC8-B5230FFEC057";
paths = (
{
closed = 1;
nodes = (
"132 396 OFFCURVE",
"58 391 OFFCURVE",
"20 354 CURVE",
"20 210 LINE",
"54 251 OFFCURVE",
"122 259 OFFCURVE",
"190 230 CURVE SMOOTH",
"265 198 OFFCURVE",
"339 203 OFFCURVE",
"375 243 CURVE",
"375 387 LINE",
"345 346 OFFCURVE",
"277 338 OFFCURVE",
"205 367 CURVE SMOOTH"
);
}
);
width = 395;
},
{
layerId = "A98666DC-4638-42B6-8332-BBF4982DF0EF";
paths = (
{
closed = 1;
nodes = (
"120 357 OFFCURVE",
"60 353 OFFCURVE",
"20 314 CURVE",
"20 250 LINE",
"55 293 OFFCURVE",
"110 300 OFFCURVE",
"180 270 CURVE SMOOTH",
"259 237 OFFCURVE",
"319 242 OFFCURVE",
"355 283 CURVE",
"355 347 LINE",
"324 304 OFFCURVE",
"269 297 OFFCURVE",
"195 327 CURVE SMOOTH"
);
}
);
width = 375;
}
);
note = asciitilde;
unicode = 007E;
},
{
glyphname = asciicircum;
lastChange = "2020-10-23 14:08:25 +0000";
layers = (
{
layerId = "83682BA5-5A7B-4081-8B26-D550B6F33EEB";
paths = (
{
closed = 1;
nodes = (
"224 600 LINE",
"121 600 LINE",
"232 424 LINE",
"335 424 LINE"
);
},
{
closed = 1;
nodes = (
"113 424 LINE",
"224 600 LINE",
"121 600 LINE",
"10 424 LINE"
);
}
);
width = 345;
},
{
layerId = "E6A807D2-02F5-45B7-9AC8-B5230FFEC057";
paths = (
{
closed = 1;
nodes = (
"254 600 LINE",
"131 600 LINE",
"242 424 LINE",
"365 424 LINE"
);
},
{
closed = 1;
nodes = (
"143 424 LINE",
"254 600 LINE",
"131 600 LINE",
"20 424 LINE"
);
}
);
width = 385;
},
{
layerId = "A98666DC-4638-42B6-8332-BBF4982DF0EF";
paths = (
{
closed = 1;
nodes = (
"184 600 LINE",
"131 600 LINE",
"242 424 LINE",
"295 424 LINE"
);
},
{
closed = 1;
nodes = (
"73 424 LINE",
"184 600 LINE",
"131 600 LINE",
"20 424 LINE"
);
}
);
width = 315;
}
);
note = asciicircum;
unicode = 005E;
},
{
glyphname = percent;
lastChange = "2020-10-23 14:08:25 +0000";
layers = (
{
layerId = "83682BA5-5A7B-4081-8B26-D550B6F33EEB";
paths = (
{
closed = 1;
nodes = (
"123 0 LINE",
"500 600 LINE",
"396 600 LINE",
"20 0 LINE"
);
},
{
closed = 1;
nodes = (
"21 391 OFFCURVE",
"60 368 OFFCURVE",
"115 368 CURVE SMOOTH",
"164 368 LINE SMOOTH",
"219 368 OFFCURVE",
"258 391 OFFCURVE",
"258 424 CURVE SMOOTH",
"258 549 LINE SMOOTH",
"258 582 OFFCURVE",
"218 605 OFFCURVE",
"164 605 CURVE SMOOTH",
"115 605 LINE SMOOTH",
"60 605 OFFCURVE",
"21 582 OFFCURVE",
"21 549 CURVE SMOOTH",
"21 424 LINE SMOOTH"
);
},
{
closed = 1;
nodes = (
"114 575 LINE",
"72 549 LINE",
"207 549 LINE",
"165 575 LINE",
"165 398 LINE",
"207 424 LINE",
"72 424 LINE",
"114 398 LINE"
);
},
{
closed = 1;
nodes = (
"263 23 OFFCURVE",
"302 0 OFFCURVE",
"357 0 CURVE SMOOTH",
"406 0 LINE SMOOTH",
"461 0 OFFCURVE",
"500 23 OFFCURVE",
"500 56 CURVE SMOOTH",
"500 181 LINE SMOOTH",
"500 214 OFFCURVE",
"460 237 OFFCURVE",
"406 237 CURVE SMOOTH",
"357 237 LINE SMOOTH",
"302 237 OFFCURVE",
"263 214 OFFCURVE",
"263 181 CURVE SMOOTH",
"263 56 LINE SMOOTH"
);
},
{
closed = 1;
nodes = (
"356 207 LINE",
"314 181 LINE",
"449 181 LINE",
"407 207 LINE",
"407 30 LINE",
"449 56 LINE",
"314 56 LINE",
"356 30 LINE"
);
}
);
width = 520;
},
{
associatedMasterId = "83682BA5-5A7B-4081-8B26-D550B6F33EEB";
layerId = "C09702C0-9265-4113-8CE4-76331A12B2F5";
name = "Oct 16 20, 16:40";
paths = (
{
closed = 1;
nodes = (
"70 0 LINE",
"183 0 LINE",
"562 630 LINE",
"449 630 LINE"
);
},
{
closed = 1;
nodes = (
"237 317 OFFCURVE",
"273 362 OFFCURVE",
"273 473 CURVE SMOOTH",
"273 585 OFFCURVE",
"237 630 OFFCURVE",
"147 630 CURVE SMOOTH",
"57 630 OFFCURVE",
"20 585 OFFCURVE",
"20 473 CURVE SMOOTH",
"20 362 OFFCURVE",
"56 317 OFFCURVE",
"147 317 CURVE SMOOTH"
);
},
{
closed = 1;
nodes = (
"116 404 OFFCURVE",
"105 424 OFFCURVE",
"105 472 CURVE SMOOTH",
"105 523 OFFCURVE",
"116 543 OFFCURVE",
"146 543 CURVE SMOOTH",
"177 543 OFFCURVE",
"189 523 OFFCURVE",
"189 472 CURVE SMOOTH",
"189 423 OFFCURVE",
"177 404 OFFCURVE",
"146 404 CURVE SMOOTH"
);
},
{
closed = 1;
nodes = (
"577 0 OFFCURVE",
"613 45 OFFCURVE",
"613 156 CURVE SMOOTH",
"613 268 OFFCURVE",
"577 313 OFFCURVE",
"487 313 CURVE SMOOTH",
"397 313 OFFCURVE",
"360 269 OFFCURVE",
"360 156 CURVE SMOOTH",
"360 45 OFFCURVE",
"396 0 OFFCURVE",
"487 0 CURVE SMOOTH"
);
},
{
closed = 1;
nodes = (
"456 87 OFFCURVE",
"445 107 OFFCURVE",
"445 155 CURVE SMOOTH",
"445 206 OFFCURVE",
"456 226 OFFCURVE",
"486 226 CURVE SMOOTH",
"517 226 OFFCURVE",
"529 206 OFFCURVE",
"529 155 CURVE SMOOTH",
"529 107 OFFCURVE",
"517 87 OFFCURVE",
"486 87 CURVE SMOOTH"
);
}
);
width = 633;
},
{
associatedMasterId = "83682BA5-5A7B-4081-8B26-D550B6F33EEB";
layerId = "57543F5D-B711-4568-97D3-EEF31FCA8544";
name = "Oct 17 20, 17:40";
paths = (
{
closed = 1;
nodes = (
"155 0 LINE",
"415 600 LINE",
"301 600 LINE",
"42 0 LINE"
);
},
{
closed = 1;
nodes = (
"340 235 LINE",
"408 235 LINE",
"366 268 LINE",
"366 136 LINE",
"459 136 LINE",
"459 235 LINE",
"459 277 OFFCURVE",
"420 307 OFFCURVE",
"365 307 CURVE",
"340 307 LINE"
);
},
{
closed = 1;
nodes = (
"365 0 LINE",
"420 0 OFFCURVE",
"460 30 OFFCURVE",
"459 72 CURVE",
"459 140 LINE",
"366 140 LINE",
"366 39 LINE",
"408 72 LINE",
"340 72 LINE",
"340 0 LINE"
);
},
{
closed = 1;
nodes = (
"316 307 LINE",
"262 307 OFFCURVE",
"223 277 OFFCURVE",
"222 235 CURVE",
"222 167 LINE",
"315 167 LINE",
"315 268 LINE",
"273 235 LINE",
"366 235 LINE",
"366 307 LINE"
);
},
{
closed = 1;
nodes = (
"366 72 LINE",
"273 72 LINE",
"315 39 LINE",
"315 179 LINE",
"222 179 LINE",
"222 72 LINE",
"222 30 OFFCURVE",
"261 0 OFFCURVE",
"316 0 CURVE",
"366 0 LINE"
);
},
{
closed = 1;
nodes = (
"20 323 OFFCURVE",
"59 293 OFFCURVE",
"114 293 CURVE SMOOTH",
"163 293 LINE SMOOTH",
"218 293 OFFCURVE",
"257 323 OFFCURVE",
"257 365 CURVE SMOOTH",
"257 528 LINE SMOOTH",
"257 570 OFFCURVE",
"217 600 OFFCURVE",
"163 600 CURVE SMOOTH",
"114 600 LINE SMOOTH",
"59 600 OFFCURVE",
"20 570 OFFCURVE",
"20 528 CURVE SMOOTH",
"20 365 LINE SMOOTH"
);
},
{
closed = 1;
nodes = (
"113 561 LINE",
"71 528 LINE",
"206 528 LINE",
"164 561 LINE",
"164 332 LINE",
"206 365 LINE",
"71 365 LINE",
"113 332 LINE"
);
}
);
width = 479;
},
{
layerId = "E6A807D2-02F5-45B7-9AC8-B5230FFEC057";
paths = (
{
closed = 1;
nodes = (
"163 0 LINE",
"540 600 LINE",
"396 600 LINE",
"20 0 LINE"
);
},
{
closed = 1;
nodes = (
"21 391 OFFCURVE",
"60 368 OFFCURVE",
"115 368 CURVE SMOOTH",
"164 368 LINE SMOOTH",
"219 368 OFFCURVE",
"258 391 OFFCURVE",
"258 424 CURVE SMOOTH",
"258 549 LINE SMOOTH",
"258 582 OFFCURVE",
"218 605 OFFCURVE",
"164 605 CURVE SMOOTH",
"115 605 LINE SMOOTH",
"60 605 OFFCURVE",
"21 582 OFFCURVE",
"21 549 CURVE SMOOTH",
"21 424 LINE SMOOTH"
);
},
{
closed = 1;
nodes = (
"124 575 LINE",
"72 539 LINE",
"207 539 LINE",
"155 575 LINE",
"155 398 LINE",
"207 434 LINE",
"72 434 LINE",
"124 398 LINE"
);
},
{
closed = 1;
nodes = (
"303 23 OFFCURVE",
"342 0 OFFCURVE",
"397 0 CURVE SMOOTH",
"446 0 LINE SMOOTH",
"501 0 OFFCURVE",
"540 23 OFFCURVE",
"540 56 CURVE SMOOTH",
"540 181 LINE SMOOTH",
"540 214 OFFCURVE",
"500 237 OFFCURVE",
"446 237 CURVE SMOOTH",
"397 237 LINE SMOOTH",
"342 237 OFFCURVE",
"303 214 OFFCURVE",
"303 181 CURVE SMOOTH",
"303 56 LINE SMOOTH"
);
},
{
closed = 1;
nodes = (
"406 207 LINE",
"364 171 LINE",
"479 171 LINE",
"437 207 LINE",
"437 30 LINE",
"479 66 LINE",
"364 66 LINE",
"406 30 LINE"
);
}
);
width = 560;
},
{
layerId = "A98666DC-4638-42B6-8332-BBF4982DF0EF";
paths = (
{
closed = 1;
nodes = (
"102 0 LINE",
"479 600 LINE",
"415 600 LINE",
"39 0 LINE"
);
},
{
closed = 1;
nodes = (
"262 23 OFFCURVE",
"301 0 OFFCURVE",
"356 0 CURVE SMOOTH",
"405 0 LINE SMOOTH",
"460 0 OFFCURVE",
"499 23 OFFCURVE",
"499 56 CURVE SMOOTH",
"499 181 LINE SMOOTH",
"499 214 OFFCURVE",
"459 237 OFFCURVE",
"405 237 CURVE SMOOTH",
"356 237 LINE SMOOTH",
"301 237 OFFCURVE",
"262 214 OFFCURVE",
"262 181 CURVE SMOOTH",
"262 56 LINE SMOOTH"
);
},
{
closed = 1;
nodes = (
"315 217 LINE",
"273 191 LINE",
"488 191 LINE",
"446 217 LINE",
"446 20 LINE",
"488 46 LINE",
"273 46 LINE",
"315 20 LINE"
);
},
{
closed = 1;
nodes = (
"20 391 OFFCURVE",
"59 368 OFFCURVE",
"114 368 CURVE SMOOTH",
"163 368 LINE SMOOTH",
"218 368 OFFCURVE",
"257 391 OFFCURVE",
"257 424 CURVE SMOOTH",
"257 549 LINE SMOOTH",
"257 582 OFFCURVE",
"217 605 OFFCURVE",
"163 605 CURVE SMOOTH",
"114 605 LINE SMOOTH",
"59 605 OFFCURVE",
"20 582 OFFCURVE",
"20 549 CURVE SMOOTH",
"20 424 LINE SMOOTH"
);
},
{
closed = 1;
nodes = (
"73 585 LINE",
"31 559 LINE",
"246 559 LINE",
"204 585 LINE",
"204 388 LINE",
"246 414 LINE",
"31 414 LINE",
"73 388 LINE"
);
}
);
width = 519;
}
);
note = percent;
unicode = 0025;
},
{
glyphname = rightArrow;
lastChange = "2020-10-23 14:08:25 +0000";
layers = (
{
layerId = "83682BA5-5A7B-4081-8B26-D550B6F33EEB";
paths = (
{
closed = 1;
nodes = (
"368 300 LINE",
"218 455 LINE",
"218 305 LINE",
"260 347 LINE",
"20 347 LINE",
"20 254 LINE",
"260 254 LINE",
"218 296 LINE",
"218 145 LINE"
);
}
);
width = 388;
},
{
layerId = "E6A807D2-02F5-45B7-9AC8-B5230FFEC057";
paths = (
{
closed = 1;
nodes = (
"368 300 LINE",
"218 455 LINE",
"218 305 LINE",
"260 377 LINE",
"20 377 LINE",
"20 224 LINE",
"260 224 LINE",
"218 296 LINE",
"218 145 LINE"
);
}
);
width = 388;
},
{
layerId = "A98666DC-4638-42B6-8332-BBF4982DF0EF";
paths = (
{
closed = 1;
nodes = (
"260 328 LINE",
"20 328 LINE",
"20 275 LINE",
"260 275 LINE"
);
},
{
closed = 1;
nodes = (
"195 167 LINE",
"329 301 LINE",
"195 435 LINE",
"157 398 LINE",
"286 269 LINE",
"286 333 LINE",
"157 204 LINE"
);
}
);
width = 349;
}
);
note = arrowright;
unicode = 2192;
},
{
glyphname = leftArrow;
lastChange = "2020-10-23 14:08:25 +0000";
layers = (
{
layerId = "83682BA5-5A7B-4081-8B26-D550B6F33EEB";
paths = (
{
closed = 1;
nodes = (
"170 296 LINE",
"128 254 LINE",
"368 254 LINE",
"368 347 LINE",
"128 347 LINE",
"170 305 LINE",
"170 455 LINE",
"20 300 LINE",
"170 145 LINE"
);
}
);
width = 388;
},
{
layerId = "E6A807D2-02F5-45B7-9AC8-B5230FFEC057";
paths = (
{
closed = 1;
nodes = (
"170 296 LINE",
"128 224 LINE",
"368 224 LINE",
"368 377 LINE",
"128 377 LINE",
"170 305 LINE",
"170 455 LINE",
"20 300 LINE",
"170 145 LINE"
);
}
);
width = 388;
},
{
layerId = "A98666DC-4638-42B6-8332-BBF4982DF0EF";
paths = (
{
closed = 1;
nodes = (
"329 275 LINE",
"329 328 LINE",
"89 328 LINE",
"89 275 LINE"
);
},
{
closed = 1;
nodes = (
"63 333 LINE",
"63 269 LINE",
"192 398 LINE",
"154 435 LINE",
"20 301 LINE",
"154 167 LINE",
"192 204 LINE"
);
}
);
width = 349;
}
);
unicode = 2190;
},
{
glyphname = at;
lastChange = "2020-10-23 14:08:25 +0000";
layers = (
{
layerId = "83682BA5-5A7B-4081-8B26-D550B6F33EEB";
paths = (
{
closed = 1;
nodes = (
"421 257 LINE",
"514 257 LINE",
"514 500 LINE",
"421 500 LINE"
);
},
{
closed = 1;
nodes = (
"20 75 LINE",
"113 75 LINE",
"113 430 LINE",
"20 430 LINE"
);
},
{
closed = 1;
nodes = (
"120 550 LINE",
"120 457 LINE",
"514 457 LINE",
"514 550 LINE"
);
},
{
closed = 1;
nodes = (
"420 -5 LINE",
"475 -5 OFFCURVE",
"514 34 OFFCURVE",
"514 88 CURVE",
"514 122 LINE",
"421 122 LINE",
"421 46 LINE",
"463 88 LINE",
"114 88 LINE",
"114 -5 LINE"
);
},
{
closed = 1;
nodes = (
"420 155 LINE",
"475 155 OFFCURVE",
"514 194 OFFCURVE",
"514 248 CURVE",
"514 332 LINE",
"421 332 LINE",
"421 206 LINE",
"463 248 LINE",
"344 248 LINE",
"344 155 LINE"
);
},
{
closed = 1;
nodes = (
"241 421 LINE",
"186 419 OFFCURVE",
"147 382 OFFCURVE",
"147 328 CURVE",
"147 292 LINE",
"240 292 LINE",
"240 370 LINE",
"198 328 LINE",
"384 328 LINE",
"384 421 LINE"
);
},
{
closed = 1;
nodes = (
"266 214 LINE",
"198 214 LINE",
"240 172 LINE",
"240 300 LINE",
"147 300 LINE",
"147 214 LINE",
"146 160 OFFCURVE",
"186 121 OFFCURVE",
"241 121 CURVE",
"266 121 LINE"
);
},
{
closed = 1;
nodes = (
"290 121 LINE",
"345 121 OFFCURVE",
"384 160 OFFCURVE",
"384 214 CURVE",
"384 300 LINE",
"291 300 LINE",
"291 172 LINE",
"333 214 LINE",
"240 214 LINE",
"240 121 LINE"
);
},
{
closed = 1;
nodes = (
"114 550 LINE",
"59 550 OFFCURVE",
"20 511 OFFCURVE",
"20 457 CURVE",
"20 421 LINE",
"113 421 LINE",
"113 499 LINE",
"71 457 LINE",
"139 457 LINE",
"139 550 LINE"
);
},
{
closed = 1;
nodes = (
"139 88 LINE",
"71 88 LINE",
"113 46 LINE",
"113 124 LINE",
"20 124 LINE",
"20 88 LINE",
"20 34 OFFCURVE",
"59 -5 OFFCURVE",
"114 -5 CURVE",
"139 -5 LINE"
);
}
);
width = 534;
},
{
layerId = "E6A807D2-02F5-45B7-9AC8-B5230FFEC057";
paths = (
{
closed = 1;
nodes = (
"20 27 OFFCURVE",
"64 -5 OFFCURVE",
"114 -5 CURVE SMOOTH",
"535 -5 LINE SMOOTH",
"590 -5 OFFCURVE",
"629 34 OFFCURVE",
"629 88 CURVE SMOOTH",
"629 162 LINE",
"506 162 LINE",
"506 43 LINE",
"581 118 LINE",
"68 118 LINE",
"143 43 LINE",
"143 552 LINE",
"68 477 LINE",
"580 477 LINE",
"505 552 LINE",
"505 235 LINE",
"580 310 LINE",
"459 310 LINE",
"459 187 LINE",
"535 187 LINE SMOOTH",
"590 187 OFFCURVE",
"629 226 OFFCURVE",
"629 280 CURVE SMOOTH",
"629 334 LINE",
"628 334 LINE",
"628 600 LINE",
"114 600 LINE SMOOTH",
"59 600 OFFCURVE",
"20 561 OFFCURVE",
"20 507 CURVE SMOOTH",
"20 379 OFFCURVE",
"20 225 OFFCURVE",
"20 75 CURVE SMOOTH"
);
},
{
closed = 1;
nodes = (
"164 176 OFFCURVE",
"203 137 OFFCURVE",
"258 137 CURVE SMOOTH",
"392 137 LINE SMOOTH",
"447 137 OFFCURVE",
"486 176 OFFCURVE",
"486 230 CURVE SMOOTH",
"486 310 LINE",
"363 310 LINE",
"363 215 LINE",
"408 260 LINE",
"242 260 LINE",
"287 215 LINE",
"287 381 LINE",
"242 336 LINE",
"486 336 LINE",
"486 459 LINE",
"258 459 LINE SMOOTH",
"203 459 OFFCURVE",
"164 420 OFFCURVE",
"164 366 CURVE SMOOTH",
"164 230 LINE SMOOTH"
);
}
);
width = 649;
},
{
layerId = "A98666DC-4638-42B6-8332-BBF4982DF0EF";
paths = (
{
closed = 1;
nodes = (
"340 145 LINE SMOOTH",
"395 145 OFFCURVE",
"434 184 OFFCURVE",
"434 238 CURVE SMOOTH",
"434 552 LINE",
"114 552 LINE SMOOTH",
"59 552 OFFCURVE",
"20 513 OFFCURVE",
"20 459 CURVE SMOOTH",
"20 331 OFFCURVE",
"20 203 OFFCURVE",
"20 75 CURVE SMOOTH",
"20 28 OFFCURVE",
"64 -5 OFFCURVE",
"114 -5 CURVE SMOOTH",
"340 -5 LINE SMOOTH",
"395 -5 OFFCURVE",
"434 34 OFFCURVE",
"434 88 CURVE SMOOTH",
"434 122 LINE",
"381 122 LINE",
"381 23 LINE",
"396 48 LINE",
"38 48 LINE",
"73 23 LINE",
"73 534 LINE",
"38 499 LINE",
"405 499 LINE",
"380 534 LINE",
"380 173 LINE",
"406 198 LINE",
"329 198 LINE",
"309 145 LINE"
);
},
{
closed = 1;
nodes = (
"344 335 LINE",
"291 335 LINE",
"291 152 LINE",
"316 177 LINE",
"135 177 LINE",
"160 152 LINE",
"160 396 LINE",
"135 371 LINE",
"344 371 LINE",
"344 424 LINE",
"201 424 LINE SMOOTH",
"146 424 OFFCURVE",
"107 385 OFFCURVE",
"107 331 CURVE SMOOTH",
"107 217 LINE SMOOTH",
"107 163 OFFCURVE",
"146 124 OFFCURVE",
"201 124 CURVE SMOOTH",
"250 124 LINE SMOOTH",
"307 124 OFFCURVE",
"344 156 OFFCURVE",
"344 212 CURVE SMOOTH"
);
}
);
width = 454;
}
);
note = at;
unicode = 0040;
},
{
glyphname = ampersand;
lastChange = "2020-10-23 14:08:25 +0000";
layers = (
{
layerId = "83682BA5-5A7B-4081-8B26-D550B6F33EEB";
paths = (
{
closed = 1;
nodes = (
"141 0 LINE",
"196 0 OFFCURVE",
"235 39 OFFCURVE",
"235 93 CURVE",
"325 319 LINE",
"232 319 LINE",
"142 51 LINE",
"184 93 LINE",
"111 93 LINE",
"111 0 LINE"
);
},
{
closed = 1;
nodes = (
"122 300 LINE"
);
},
{
closed = 1;
nodes = (
"114 353 LINE",
"58 353 OFFCURVE",
"18 314 OFFCURVE",
"20 260 CURVE",
"20 144 LINE",
"113 144 LINE",
"113 302 LINE",
"71 260 LINE",
"139 260 LINE",
"139 353 LINE"
);
},
{
closed = 1;
nodes = (
"139 93 LINE",
"71 93 LINE",
"113 51 LINE",
"113 179 LINE",
"20 179 LINE",
"20 93 LINE",
"19 39 OFFCURVE",
"59 0 OFFCURVE",
"114 0 CURVE",
"139 0 LINE"
);
},
{
closed = 1;
nodes = (
"112 507 LINE",
"205 507 LINE",
"163 549 LINE",
"163 381 LINE",
"256 381 LINE",
"256 507 LINE",
"255 561 OFFCURVE",
"216 600 OFFCURVE",
"162 600 CURVE",
"112 600 LINE"
);
},
{
closed = 1;
nodes = (
"225 0 LINE",
"318 0 LINE",
"122 401 LINE",
"122 507 LINE",
"148 507 LINE",
"148 600 LINE",
"123 600 LINE SMOOTH",
"68 600 OFFCURVE",
"29 561 OFFCURVE",
"29 507 CURVE SMOOTH",
"29 400 LINE"
);
}
);
width = 345;
},
{
associatedMasterId = "83682BA5-5A7B-4081-8B26-D550B6F33EEB";
layerId = "EB658969-730F-4C47-B2FF-DBBD8CA5919C";
name = "Apr 29 20, 22:12";
paths = (
{
closed = 1;
nodes = (
"183 393 LINE",
"79 393 OFFCURVE",
"20 317 OFFCURVE",
"20 184 CURVE SMOOTH",
"20 67 OFFCURVE",
"77 0 OFFCURVE",
"178 0 CURVE SMOOTH",
"316 0 OFFCURVE",
"394 109 OFFCURVE",
"394 300 CURVE",
"301 300 LINE",
"301 168 OFFCURVE",
"256 93 OFFCURVE",
"178 93 CURVE SMOOTH",
"137 93 OFFCURVE",
"113 126 OFFCURVE",
"113 184 CURVE SMOOTH",
"113 259 OFFCURVE",
"138 301 OFFCURVE",
"183 300 CURVE"
);
},
{
closed = 1;
nodes = (
"315 0 LINE",
"418 0 LINE",
"183 393 LINE SMOOTH",
"147 454 OFFCURVE",
"163 507 OFFCURVE",
"204 507 CURVE",
"204 600 LINE",
"70 600 OFFCURVE",
"16 509 OFFCURVE",
"80 393 CURVE"
);
},
{
closed = 1;
nodes = (
"206 183 LINE",
"328 393 LINE",
"392 509 OFFCURVE",
"338 600 OFFCURVE",
"204 600 CURVE",
"204 507 LINE",
"245 507 OFFCURVE",
"262 454 OFFCURVE",
"225 393 CURVE SMOOTH",
"152 272 LINE"
);
}
);
width = 438;
},
{
associatedMasterId = "83682BA5-5A7B-4081-8B26-D550B6F33EEB";
layerId = "8EFC539A-187F-4BD8-A9A1-7C18263A99A9";
name = "Oct 16 20, 17:44";
paths = (
{
closed = 1;
nodes = (
"20 166 LINE",
"21 60 OFFCURVE",
"77 0 OFFCURVE",
"178 0 CURVE SMOOTH",
"316 0 OFFCURVE",
"394 99 OFFCURVE",
"394 272 CURVE",
"301 272 LINE",
"301 153 OFFCURVE",
"256 85 OFFCURVE",
"178 85 CURVE SMOOTH",
"137 85 OFFCURVE",
"113 115 OFFCURVE",
"113 167 CURVE SMOOTH",
"113 167 OFFCURVE",
"113 168 OFFCURVE",
"113 168 CURVE SMOOTH"
);
},
{
closed = 1;
nodes = (
"297 27 LINE",
"400 27 LINE",
"165 383 LINE SMOOTH",
"129 438 OFFCURVE",
"145 486 OFFCURVE",
"186 486 CURVE",
"186 571 LINE SMOOTH",
"52 571 OFFCURVE",
"-2 488 OFFCURVE",
"62 383 CURVE"
);
},
{
closed = 1;
nodes = (
"374 488 OFFCURVE",
"320 571 OFFCURVE",
"186 571 CURVE",
"186 486 LINE",
"227 486 OFFCURVE",
"243 438 OFFCURVE",
"207 383 CURVE SMOOTH",
"143 285 LINE",
"202 219 LINE",
"310 383 LINE"
);
},
{
closed = 1;
nodes = (
"178 336 LINE",
"77 336 OFFCURVE",
"21 272 OFFCURVE",
"20 166 CURVE",
"113 168 LINE SMOOTH",
"113 168 OFFCURVE",
"113 169 OFFCURVE",
"113 169 CURVE SMOOTH",
"113 222 OFFCURVE",
"137 252 OFFCURVE",
"178 252 CURVE"
);
}
);
width = 420;
},
{
layerId = "E6A807D2-02F5-45B7-9AC8-B5230FFEC057";
paths = (
{
closed = 1;
nodes = (
"223 0 LINE SMOOTH",
"269 0 OFFCURVE",
"299 57 OFFCURVE",
"326 119 CURVE SMOOTH",
"345 162 OFFCURVE",
"392 279 OFFCURVE",
"407 319 CURVE",
"294 319 LINE",
"191 51 LINE",
"266 123 LINE",
"150 123 LINE",
"150 0 LINE"
);
},
{
closed = 1;
nodes = (
"197 477 LINE",
"270 477 LINE",
"208 549 LINE",
"208 381 LINE",
"321 381 LINE",
"321 507 LINE SMOOTH",
"321 561 OFFCURVE",
"281 600 OFFCURVE",
"227 600 CURVE SMOOTH",
"197 600 LINE"
);
},
{
closed = 1;
nodes = (
"264 0 LINE",
"387 0 LINE",
"161 401 LINE",
"161 552 LINE",
"86 477 LINE",
"197 477 LINE",
"197 600 LINE",
"132 600 LINE SMOOTH",
"77 600 OFFCURVE",
"38 561 OFFCURVE",
"38 507 CURVE SMOOTH",
"38 400 LINE"
);
},
{
closed = 1;
nodes = (
"20 39 OFFCURVE",
"59 0 OFFCURVE",
"114 0 CURVE SMOOTH",
"219 0 LINE",
"219 123 LINE",
"98 123 LINE",
"143 48 LINE",
"143 305 LINE",
"98 230 LINE",
"179 230 LINE",
"179 353 LINE",
"114 353 LINE SMOOTH",
"58 353 OFFCURVE",
"20 313 OFFCURVE",
"20 260 CURVE SMOOTH",
"20 93 LINE SMOOTH"
);
}
);
width = 427;
},
{
layerId = "A98666DC-4638-42B6-8332-BBF4982DF0EF";
paths = (
{
closed = 1;
nodes = (
"117 300 LINE"
);
},
{
closed = 1;
nodes = (
"114 353 LINE",
"58 353 OFFCURVE",
"18 314 OFFCURVE",
"20 260 CURVE",
"20 144 LINE",
"73 144 LINE",
"73 322 LINE",
"51 300 LINE",
"95 300 LINE",
"95 353 LINE"
);
},
{
closed = 1;
nodes = (
"123 547 LINE",
"192 547 LINE",
"170 579 LINE",
"170 381 LINE",
"223 381 LINE",
"223 507 LINE",
"222 561 OFFCURVE",
"183 600 OFFCURVE",
"129 600 CURVE",
"123 600 LINE"
);
},
{
closed = 1;
nodes = (
"218 0 LINE",
"271 0 LINE",
"75 401 LINE",
"75 547 LINE",
"131 547 LINE",
"131 600 LINE",
"116 600 LINE SMOOTH",
"61 600 OFFCURVE",
"22 561 OFFCURVE",
"22 507 CURVE SMOOTH",
"22 400 LINE"
);
},
{
closed = 1;
nodes = (
"20 37 OFFCURVE",
"59 0 OFFCURVE",
"114 0 CURVE SMOOTH",
"116 0 LINE",
"126 0 LINE",
"129 0 LINE",
"176 6 OFFCURVE",
"202 40 OFFCURVE",
"220 93 CURVE SMOOTH",
"274 247 OFFCURVE",
"274 247 OFFCURVE",
"300 319 CURVE",
"247 319 LINE",
"144 10 LINE",
"203 53 LINE",
"28 53 LINE",
"73 8 LINE",
"73 179 LINE",
"20 179 LINE",
"20 93 LINE SMOOTH"
);
}
);
width = 320;
}
);
unicode = 0026;
},
{
glyphname = copyright;
lastChange = "2020-10-23 14:08:25 +0000";
layers = (
{
layerId = "83682BA5-5A7B-4081-8B26-D550B6F33EEB";
paths = (
{
closed = 1;
nodes = (
"243 420 LINE",
"188 420 OFFCURVE",
"149 381 OFFCURVE",
"149 327 CURVE",
"149 291 LINE",
"242 291 LINE",
"242 369 LINE",
"200 327 LINE",
"273 327 LINE",
"273 420 LINE"
);
},
{
closed = 1;
nodes = (
"268 213 LINE",
"200 213 LINE",
"242 171 LINE",
"242 299 LINE",
"149 299 LINE",
"149 213 LINE",
"148 159 OFFCURVE",
"188 120 OFFCURVE",
"243 120 CURVE",
"268 120 LINE"
);
},
{
closed = 1;
nodes = (
"292 120 LINE",
"347 120 OFFCURVE",
"386 159 OFFCURVE",
"386 213 CURVE",
"386 250 LINE",
"293 250 LINE",
"293 171 LINE",
"335 213 LINE",
"242 213 LINE",
"242 120 LINE"
);
},
{
closed = 1;
nodes = (
"242 327 LINE",
"335 327 LINE",
"293 369 LINE",
"293 290 LINE",
"386 290 LINE",
"386 327 LINE",
"386 381 OFFCURVE",
"347 420 OFFCURVE",
"292 420 CURVE",
"242 420 LINE"
);
},
{
closed = 1;
nodes = (
"20 20 OFFCURVE",
"64 -5 OFFCURVE",
"114 -5 CURVE SMOOTH",
"420 -5 LINE SMOOTH",
"475 -5 OFFCURVE",
"514 34 OFFCURVE",
"514 88 CURVE SMOOTH",
"514 550 LINE",
"114 550 LINE SMOOTH",
"59 550 OFFCURVE",
"20 511 OFFCURVE",
"20 457 CURVE",
"20 75 LINE SMOOTH"
);
},
{
closed = 1;
nodes = (
"113 499 LINE",
"71 457 LINE",
"463 457 LINE",
"421 499 LINE",
"421 46 LINE",
"463 88 LINE",
"71 88 LINE",
"113 46 LINE"
);
}
);
width = 534;
},
{
associatedMasterId = "83682BA5-5A7B-4081-8B26-D550B6F33EEB";
layerId = "54EAF8E2-CF84-43DC-8086-2E059A2711A3";
name = "Apr 25 20, 16:55";
paths = (
{
closed = 1;
nodes = (
"556 32 OFFCURVE",
"634 105 OFFCURVE",
"634 315 CURVE SMOOTH",
"634 526 OFFCURVE",
"556 600 OFFCURVE",
"337 600 CURVE SMOOTH",
"116 600 OFFCURVE",
"39 527 OFFCURVE",
"39 315 CURVE SMOOTH",
"39 105 OFFCURVE",
"117 32 OFFCURVE",
"337 32 CURVE SMOOTH"
);
},
{
closed = 1;
nodes = (
"181 115 OFFCURVE",
"126 166 OFFCURVE",
"126 312 CURVE SMOOTH",
"126 464 OFFCURVE",
"180 517 OFFCURVE",
"335 517 CURVE SMOOTH",
"491 517 OFFCURVE",
"547 464 OFFCURVE",
"547 312 CURVE SMOOTH",
"547 166 OFFCURVE",
"491 115 OFFCURVE",
"335 115 CURVE SMOOTH"
);
},
{
closed = 1;
nodes = (
"183 187 OFFCURVE",
"222 148 OFFCURVE",
"277 148 CURVE SMOOTH",
"397 148 LINE SMOOTH",
"452 148 OFFCURVE",
"491 187 OFFCURVE",
"491 241 CURVE SMOOTH",
"491 277 LINE",
"398 277 LINE",
"398 241 LINE",
"234 241 LINE",
"276 199 LINE",
"276 434 LINE",
"234 392 LINE",
"398 392 LINE",
"398 356 LINE",
"491 356 LINE",
"491 392 LINE SMOOTH",
"491 446 OFFCURVE",
"452 485 OFFCURVE",
"397 485 CURVE SMOOTH",
"277 485 LINE SMOOTH",
"222 485 OFFCURVE",
"183 446 OFFCURVE",
"183 392 CURVE SMOOTH",
"183 241 LINE SMOOTH"
);
}
);
width = 673;
},
{
associatedMasterId = "83682BA5-5A7B-4081-8B26-D550B6F33EEB";
layerId = "DB22086E-F75D-4219-B98F-952E4A57C58F";
name = "Apr 25 20, 16:57";
paths = (
{
closed = 1;
nodes = (
"556 32 OFFCURVE",
"634 105 OFFCURVE",
"634 315 CURVE SMOOTH",
"634 526 OFFCURVE",
"556 600 OFFCURVE",
"337 600 CURVE SMOOTH",
"116 600 OFFCURVE",
"39 527 OFFCURVE",
"39 315 CURVE SMOOTH",
"39 105 OFFCURVE",
"117 32 OFFCURVE",
"337 32 CURVE SMOOTH"
);
},
{
closed = 1;
nodes = (
"181 115 OFFCURVE",
"126 166 OFFCURVE",
"126 312 CURVE SMOOTH",
"126 464 OFFCURVE",
"180 517 OFFCURVE",
"335 517 CURVE SMOOTH",
"489 517 OFFCURVE",
"547 464 OFFCURVE",
"547 312 CURVE SMOOTH",
"547 166 OFFCURVE",
"491 115 OFFCURVE",
"335 115 CURVE SMOOTH"
);
},
{
closed = 1;
nodes = (
"179 196 OFFCURVE",
"206 169 OFFCURVE",
"273 169 CURVE SMOOTH",
"393 169 LINE SMOOTH",
"460 169 OFFCURVE",
"487 196 OFFCURVE",
"487 262 CURVE SMOOTH",
"487 281 LINE",
"394 281 LINE",
"394 262 LINE",
"230 262 LINE",
"272 220 LINE",
"272 395 LINE",
"230 353 LINE",
"394 353 LINE",
"394 321 LINE",
"487 321 LINE",
"487 352 LINE SMOOTH",
"487 419 OFFCURVE",
"460 446 OFFCURVE",
"393 446 CURVE SMOOTH",
"273 446 LINE SMOOTH",
"206 446 OFFCURVE",
"179 419 OFFCURVE",
"179 353 CURVE SMOOTH",
"179 262 LINE SMOOTH"
);
},
{
closed = 1;
nodes = (
"487 353 LINE",
"487 446 LINE",
"290 446 LINE",
"290 352 LINE"
);
}
);
width = 673;
},
{
layerId = "E6A807D2-02F5-45B7-9AC8-B5230FFEC057";
paths = (
{
closed = 1;
nodes = (
"164 176 OFFCURVE",
"203 137 OFFCURVE",
"258 137 CURVE SMOOTH",
"392 137 LINE SMOOTH",
"447 137 OFFCURVE",
"486 176 OFFCURVE",
"486 230 CURVE SMOOTH",
"486 282 LINE",
"363 282 LINE",
"363 215 LINE",
"408 260 LINE",
"242 260 LINE",
"287 215 LINE",
"287 381 LINE",
"242 336 LINE",
"407 336 LINE",
"363 381 LINE",
"363 314 LINE",
"486 314 LINE",
"486 366 LINE SMOOTH",
"486 420 OFFCURVE",
"447 459 OFFCURVE",
"392 459 CURVE SMOOTH",
"258 459 LINE SMOOTH",
"203 459 OFFCURVE",
"164 420 OFFCURVE",
"164 366 CURVE SMOOTH",
"164 230 LINE SMOOTH"
);
},
{
closed = 1;
nodes = (
"20 27 OFFCURVE",
"64 -5 OFFCURVE",
"114 -5 CURVE SMOOTH",
"535 -5 LINE SMOOTH",
"590 -5 OFFCURVE",
"629 34 OFFCURVE",
"629 88 CURVE SMOOTH",
"629 366 LINE",
"628 366 LINE",
"628 600 LINE",
"114 600 LINE SMOOTH",
"59 600 OFFCURVE",
"20 561 OFFCURVE",
"20 507 CURVE SMOOTH",
"20 75 LINE SMOOTH"
);
},
{
closed = 1;
nodes = (
"143 522 LINE",
"98 477 LINE",
"550 477 LINE",
"505 522 LINE",
"505 187 LINE",
"506 187 LINE",
"506 73 LINE",
"551 118 LINE",
"98 118 LINE",
"143 73 LINE"
);
}
);
width = 649;
},
{
layerId = "A98666DC-4638-42B6-8332-BBF4982DF0EF";
paths = (
{
closed = 1;
nodes = (
"434 552 LINE",
"114 552 LINE SMOOTH",
"59 552 OFFCURVE",
"20 513 OFFCURVE",
"20 459 CURVE SMOOTH",
"20 331 OFFCURVE",
"20 203 OFFCURVE",
"20 75 CURVE SMOOTH",
"20 28 OFFCURVE",
"64 -5 OFFCURVE",
"114 -5 CURVE SMOOTH",
"340 -5 LINE SMOOTH",
"395 -5 OFFCURVE",
"434 34 OFFCURVE",
"434 88 CURVE SMOOTH",
"434 534 LINE",
"381 534 LINE",
"381 23 LINE",
"396 48 LINE",
"38 48 LINE",
"73 23 LINE",
"73 534 LINE",
"38 499 LINE",
"434 500 LINE"
);
},
{
closed = 1;
nodes = (
"109 163 OFFCURVE",
"148 124 OFFCURVE",
"203 124 CURVE SMOOTH",
"252 124 LINE SMOOTH",
"309 124 OFFCURVE",
"346 156 OFFCURVE",
"346 212 CURVE SMOOTH",
"346 250 LINE",
"293 250 LINE",
"293 131 LINE",
"338 176 LINE",
"117 176 LINE",
"162 131 LINE",
"162 416 LINE",
"117 371 LINE",
"337 371 LINE",
"293 416 LINE",
"293 298 LINE",
"346 298 LINE",
"346 336 LINE SMOOTH",
"346 392 OFFCURVE",
"309 424 OFFCURVE",
"252 424 CURVE SMOOTH",
"203 424 LINE SMOOTH",
"148 424 OFFCURVE",
"109 385 OFFCURVE",
"109 331 CURVE SMOOTH",
"109 217 LINE SMOOTH"
);
}
);
width = 454;
}
);
note = copyright;
unicode = 00A9;
},
{
glyphname = degree;
lastChange = "2020-10-23 14:08:25 +0000";
layers = (
{
layerId = "83682BA5-5A7B-4081-8B26-D550B6F33EEB";
paths = (
{
closed = 1;
nodes = (
"227 285 OFFCURVE",
"263 330 OFFCURVE",
"263 441 CURVE SMOOTH",
"263 553 OFFCURVE",
"227 598 OFFCURVE",
"137 598 CURVE SMOOTH",
"47 598 OFFCURVE",
"10 553 OFFCURVE",
"10 441 CURVE SMOOTH",
"10 330 OFFCURVE",
"46 285 OFFCURVE",
"137 285 CURVE SMOOTH"
);
},
{
closed = 1;
nodes = (
"106 372 OFFCURVE",
"95 392 OFFCURVE",
"95 440 CURVE SMOOTH",
"95 491 OFFCURVE",
"106 511 OFFCURVE",
"136 511 CURVE SMOOTH",
"167 511 OFFCURVE",
"179 491 OFFCURVE",
"179 440 CURVE SMOOTH",
"179 392 OFFCURVE",
"167 372 OFFCURVE",
"136 372 CURVE SMOOTH"
);
}
);
width = 273;
},
{
layerId = "E6A807D2-02F5-45B7-9AC8-B5230FFEC057";
paths = (
{
closed = 1;
nodes = (
"227 285 OFFCURVE",
"263 330 OFFCURVE",
"263 441 CURVE SMOOTH",
"263 553 OFFCURVE",
"227 598 OFFCURVE",
"137 598 CURVE SMOOTH",
"47 598 OFFCURVE",
"10 553 OFFCURVE",
"10 441 CURVE SMOOTH",
"10 330 OFFCURVE",
"46 285 OFFCURVE",
"137 285 CURVE SMOOTH"
);
},
{
closed = 1;
nodes = (
"111 384 OFFCURVE",
"102 401 OFFCURVE",
"102 440 CURVE SMOOTH",
"102 482 OFFCURVE",
"111 499 OFFCURVE",
"136 499 CURVE SMOOTH",
"162 499 OFFCURVE",
"172 482 OFFCURVE",
"172 440 CURVE SMOOTH",
"172 401 OFFCURVE",
"162 384 OFFCURVE",
"136 384 CURVE SMOOTH"
);
}
);
width = 273;
},
{
layerId = "A98666DC-4638-42B6-8332-BBF4982DF0EF";
paths = (
{
closed = 1;
nodes = (
"189 341 OFFCURVE",
"219 378 OFFCURVE",
"219 470 CURVE SMOOTH",
"219 563 OFFCURVE",
"189 600 OFFCURVE",
"115 600 CURVE SMOOTH",
"41 600 OFFCURVE",
"10 563 OFFCURVE",
"10 470 CURVE SMOOTH",
"10 378 OFFCURVE",
"40 341 OFFCURVE",
"115 341 CURVE SMOOTH"
);
},
{
closed = 1;
nodes = (
"70 369 OFFCURVE",
"53 398 OFFCURVE",
"53 468 CURVE SMOOTH",
"53 543 OFFCURVE",
"70 572 OFFCURVE",
"113 572 CURVE SMOOTH",
"159 572 OFFCURVE",
"176 543 OFFCURVE",
"176 468 CURVE SMOOTH",
"176 398 OFFCURVE",
"159 369 OFFCURVE",
"113 369 CURVE SMOOTH"
);
}
);
width = 229;
}
);
note = degree;
unicode = 00B0;
},
{
glyphname = verticalbar;
lastChange = "2020-10-23 14:08:25 +0000";
layers = (
{
layerId = "83682BA5-5A7B-4081-8B26-D550B6F33EEB";
paths = (
{
closed = 1;
nodes = (
"113 -79 LINE",
"113 690 LINE",
"20 690 LINE",
"20 -79 LINE"
);
}
);
width = 133;
},
{
layerId = "E6A807D2-02F5-45B7-9AC8-B5230FFEC057";
paths = (
{
closed = 1;
nodes = (
"133 -79 LINE",
"133 690 LINE",
"20 690 LINE",
"20 -79 LINE"
);
}
);
width = 153;
},
{
layerId = "A98666DC-4638-42B6-8332-BBF4982DF0EF";
paths = (
{
closed = 1;
nodes = (
"73 -79 LINE",
"73 690 LINE",
"20 690 LINE",
"20 -79 LINE"
);
}
);
width = 93;
}
);
note = verticalbar;
unicode = 007C;
},
{
glyphname = "shindot-hb";
lastChange = "2020-10-23 14:08:25 +0000";
layers = (
{
anchors = (
{
name = _shin;
position = "{63, 600}";
}
);
layerId = "83682BA5-5A7B-4081-8B26-D550B6F33EEB";
paths = (
{
closed = 1;
nodes = (
"67 630 OFFCURVE",
"80 644 OFFCURVE",
"80 660 CURVE SMOOTH",
"80 677 OFFCURVE",
"67 690 OFFCURVE",
"50 690 CURVE SMOOTH",
"33 690 OFFCURVE",
"20 677 OFFCURVE",
"20 660 CURVE SMOOTH",
"20 644 OFFCURVE",
"33 630 OFFCURVE",
"50 630 CURVE SMOOTH"
);
}
);
width = 100;
},
{
anchors = (
{
name = _topright;
position = "{71, 500}";
}
);
layerId = "E6A807D2-02F5-45B7-9AC8-B5230FFEC057";
paths = (
{
closed = 1;
nodes = (
"70 628 OFFCURVE",
"86 645 OFFCURVE",
"86 664 CURVE SMOOTH",
"86 684 OFFCURVE",
"70 700 OFFCURVE",
"50 700 CURVE SMOOTH",
"30 700 OFFCURVE",
"14 684 OFFCURVE",
"14 664 CURVE SMOOTH",
"14 645 OFFCURVE",
"30 628 OFFCURVE",
"50 628 CURVE SMOOTH"
);
}
);
width = 100;
},
{
anchors = (
{
name = _topright;
position = "{53, 500}";
}
);
layerId = "A98666DC-4638-42B6-8332-BBF4982DF0EF";
paths = (
{
closed = 1;
nodes = (
"56 637 OFFCURVE",
"66 647 OFFCURVE",
"66 660 CURVE SMOOTH",
"66 673 OFFCURVE",
"56 683 OFFCURVE",
"43 683 CURVE SMOOTH",
"30 683 OFFCURVE",
"20 673 OFFCURVE",
"20 660 CURVE SMOOTH",
"20 647 OFFCURVE",
"30 637 OFFCURVE",
"43 637 CURVE SMOOTH"
);
}
);
width = 86;
}
);
unicode = 05C1;
},
{
glyphname = "sheva-hb";
lastChange = "2020-10-23 14:08:25 +0000";
layers = (
{
anchors = (
{
name = _bottom;
position = "{50, 0}";
}
);
layerId = "83682BA5-5A7B-4081-8B26-D550B6F33EEB";
paths = (
{
closed = 1;
nodes = (
"67 -106 OFFCURVE",
"80 -93 OFFCURVE",
"80 -76 CURVE SMOOTH",
"80 -59 OFFCURVE",
"67 -46 OFFCURVE",
"50 -46 CURVE SMOOTH",
"33 -46 OFFCURVE",
"20 -59 OFFCURVE",
"20 -76 CURVE SMOOTH",
"20 -93 OFFCURVE",
"33 -106 OFFCURVE",
"50 -106 CURVE SMOOTH"
);
},
{
closed = 1;
nodes = (
"67 -182 OFFCURVE",
"80 -169 OFFCURVE",
"80 -152 CURVE SMOOTH",
"80 -135 OFFCURVE",
"67 -122 OFFCURVE",
"50 -122 CURVE SMOOTH",
"33 -122 OFFCURVE",
"20 -135 OFFCURVE",
"20 -152 CURVE SMOOTH",
"20 -169 OFFCURVE",
"33 -182 OFFCURVE",
"50 -182 CURVE SMOOTH"
);
}
);
width = 100;
},
{
anchors = (
{
name = _bottom;
position = "{56, 0}";
}
);
layerId = "E6A807D2-02F5-45B7-9AC8-B5230FFEC057";
paths = (
{
closed = 1;
nodes = (
"76 -124 OFFCURVE",
"92 -109 OFFCURVE",
"92 -88 CURVE SMOOTH",
"92 -68 OFFCURVE",
"76 -52 OFFCURVE",
"56 -52 CURVE SMOOTH",
"36 -52 OFFCURVE",
"20 -68 OFFCURVE",
"20 -88 CURVE SMOOTH",
"20 -109 OFFCURVE",
"36 -124 OFFCURVE",
"56 -124 CURVE SMOOTH"
);
},
{
closed = 1;
nodes = (
"76 -216 OFFCURVE",
"92 -200 OFFCURVE",
"92 -180 CURVE SMOOTH",
"92 -159 OFFCURVE",
"76 -144 OFFCURVE",
"56 -144 CURVE SMOOTH",
"36 -144 OFFCURVE",
"20 -159 OFFCURVE",
"20 -180 CURVE SMOOTH",
"20 -200 OFFCURVE",
"36 -216 OFFCURVE",
"56 -216 CURVE SMOOTH"
);
}
);
width = 112;
},
{
anchors = (
{
name = _bottom;
position = "{43, 0}";
}
);
layerId = "A98666DC-4638-42B6-8332-BBF4982DF0EF";
paths = (
{
closed = 1;
nodes = (
"56 -94 OFFCURVE",
"66 -84 OFFCURVE",
"66 -71 CURVE SMOOTH",
"66 -58 OFFCURVE",
"56 -48 OFFCURVE",
"43 -48 CURVE SMOOTH",
"30 -48 OFFCURVE",
"20 -58 OFFCURVE",
"20 -71 CURVE SMOOTH",
"20 -84 OFFCURVE",
"30 -94 OFFCURVE",
"43 -94 CURVE SMOOTH"
);
},
{
closed = 1;
nodes = (
"56 -152 OFFCURVE",
"66 -142 OFFCURVE",
"66 -129 CURVE SMOOTH",
"66 -116 OFFCURVE",
"56 -106 OFFCURVE",
"43 -106 CURVE SMOOTH",
"30 -106 OFFCURVE",
"20 -116 OFFCURVE",
"20 -129 CURVE SMOOTH",
"20 -142 OFFCURVE",
"30 -152 OFFCURVE",
"43 -152 CURVE SMOOTH"
);
}
);
width = 86;
}
);
unicode = 05B0;
},
{
glyphname = "hatafsegol-hb";
lastChange = "2020-10-23 14:08:25 +0000";
layers = (
{
anchors = (
{
name = _bottom;
position = "{172, 0}";
}
);
layerId = "83682BA5-5A7B-4081-8B26-D550B6F33EEB";
paths = (
{
closed = 1;
nodes = (
"253 -106 OFFCURVE",
"266 -93 OFFCURVE",
"266 -76 CURVE SMOOTH",
"266 -59 OFFCURVE",
"253 -46 OFFCURVE",
"236 -46 CURVE SMOOTH",
"219 -46 OFFCURVE",
"206 -59 OFFCURVE",
"206 -76 CURVE SMOOTH",
"206 -93 OFFCURVE",
"219 -106 OFFCURVE",
"236 -106 CURVE SMOOTH"
);
},
{
closed = 1;
nodes = (
"253 -182 OFFCURVE",
"266 -169 OFFCURVE",
"266 -152 CURVE SMOOTH",
"266 -135 OFFCURVE",
"253 -122 OFFCURVE",
"236 -122 CURVE SMOOTH",
"219 -122 OFFCURVE",
"206 -135 OFFCURVE",
"206 -152 CURVE SMOOTH",
"206 -169 OFFCURVE",
"219 -182 OFFCURVE",
"236 -182 CURVE SMOOTH"
);
},
{
closed = 1;
nodes = (
"80 -59 OFFCURVE",
"67 -46 OFFCURVE",
"50 -46 CURVE SMOOTH",
"33 -46 OFFCURVE",
"20 -59 OFFCURVE",
"20 -76 CURVE SMOOTH",
"20 -93 OFFCURVE",
"33 -106 OFFCURVE",
"50 -106 CURVE SMOOTH",
"67 -106 OFFCURVE",
"80 -93 OFFCURVE",
"80 -76 CURVE SMOOTH"
);
},
{
closed = 1;
nodes = (
"156 -59 OFFCURVE",
"143 -46 OFFCURVE",
"126 -46 CURVE SMOOTH",
"109 -46 OFFCURVE",
"96 -59 OFFCURVE",
"96 -76 CURVE SMOOTH",
"96 -93 OFFCURVE",
"109 -106 OFFCURVE",
"126 -106 CURVE SMOOTH",
"143 -106 OFFCURVE",
"156 -93 OFFCURVE",
"156 -76 CURVE SMOOTH"
);
},
{
closed = 1;
nodes = (
"105 -172 OFFCURVE",
"118 -159 OFFCURVE",
"118 -142 CURVE SMOOTH",
"118 -125 OFFCURVE",
"105 -112 OFFCURVE",
"88 -112 CURVE SMOOTH",
"71 -112 OFFCURVE",
"58 -125 OFFCURVE",
"58 -142 CURVE SMOOTH",
"58 -159 OFFCURVE",
"71 -172 OFFCURVE",
"88 -172 CURVE SMOOTH"
);
}
);
width = 286;
},
{
anchors = (
{
name = _bottom;
position = "{165, 0}";
}
);
layerId = "E6A807D2-02F5-45B7-9AC8-B5230FFEC057";
paths = (
{
closed = 1;
nodes = (
"92 -72 OFFCURVE",
"77 -56 OFFCURVE",
"56 -56 CURVE SMOOTH",
"36 -56 OFFCURVE",
"20 -72 OFFCURVE",
"20 -92 CURVE SMOOTH",
"20 -113 OFFCURVE",
"36 -128 OFFCURVE",
"56 -128 CURVE SMOOTH",
"77 -128 OFFCURVE",
"92 -113 OFFCURVE",
"92 -92 CURVE SMOOTH"
);
},
{
closed = 1;
nodes = (
"184 -72 OFFCURVE",
"168 -56 OFFCURVE",
"148 -56 CURVE SMOOTH",
"127 -56 OFFCURVE",
"112 -72 OFFCURVE",
"112 -92 CURVE SMOOTH",
"112 -113 OFFCURVE",
"127 -128 OFFCURVE",
"148 -128 CURVE SMOOTH",
"168 -128 OFFCURVE",
"184 -113 OFFCURVE",
"184 -92 CURVE SMOOTH"
);
},
{
closed = 1;
nodes = (
"122 -208 OFFCURVE",
"138 -192 OFFCURVE",
"138 -172 CURVE SMOOTH",
"138 -151 OFFCURVE",
"122 -136 OFFCURVE",
"102 -136 CURVE SMOOTH",
"82 -136 OFFCURVE",
"66 -151 OFFCURVE",
"66 -172 CURVE SMOOTH",
"66 -192 OFFCURVE",
"82 -208 OFFCURVE",
"102 -208 CURVE SMOOTH"
);
},
{
closed = 1;
nodes = (
"280 -128 OFFCURVE",
"296 -113 OFFCURVE",
"296 -92 CURVE SMOOTH",
"296 -72 OFFCURVE",
"280 -56 OFFCURVE",
"260 -56 CURVE SMOOTH",
"240 -56 OFFCURVE",
"224 -72 OFFCURVE",
"224 -92 CURVE SMOOTH",
"224 -113 OFFCURVE",
"240 -128 OFFCURVE",
"260 -128 CURVE SMOOTH"
);
},
{
closed = 1;
nodes = (
"280 -208 OFFCURVE",
"296 -192 OFFCURVE",
"296 -172 CURVE SMOOTH",
"296 -151 OFFCURVE",
"280 -136 OFFCURVE",
"260 -136 CURVE SMOOTH",
"240 -136 OFFCURVE",
"224 -151 OFFCURVE",
"224 -172 CURVE SMOOTH",
"224 -192 OFFCURVE",
"240 -208 OFFCURVE",
"260 -208 CURVE SMOOTH"
);
}
);
width = 316;
},
{
anchors = (
{
name = _bottom;
position = "{124, 0}";
}
);
layerId = "A98666DC-4638-42B6-8332-BBF4982DF0EF";
paths = (
{
closed = 1;
nodes = (
"66 -58 OFFCURVE",
"56 -48 OFFCURVE",
"43 -48 CURVE SMOOTH",
"30 -48 OFFCURVE",
"20 -58 OFFCURVE",
"20 -71 CURVE SMOOTH",
"20 -84 OFFCURVE",
"30 -94 OFFCURVE",
"43 -94 CURVE SMOOTH",
"56 -94 OFFCURVE",
"66 -84 OFFCURVE",
"66 -71 CURVE SMOOTH"
);
},
{
closed = 1;
nodes = (
"124 -58 OFFCURVE",
"114 -48 OFFCURVE",
"101 -48 CURVE SMOOTH",
"88 -48 OFFCURVE",
"78 -58 OFFCURVE",
"78 -71 CURVE SMOOTH",
"78 -84 OFFCURVE",
"88 -94 OFFCURVE",
"101 -94 CURVE SMOOTH",
"114 -94 OFFCURVE",
"124 -84 OFFCURVE",
"124 -71 CURVE SMOOTH"
);
},
{
closed = 1;
nodes = (
"95 -104 OFFCURVE",
"85 -94 OFFCURVE",
"72 -94 CURVE SMOOTH",
"59 -94 OFFCURVE",
"49 -104 OFFCURVE",
"49 -117 CURVE SMOOTH",
"49 -130 OFFCURVE",
"59 -140 OFFCURVE",
"72 -140 CURVE SMOOTH",
"85 -140 OFFCURVE",
"95 -130 OFFCURVE",
"95 -117 CURVE SMOOTH"
);
},
{
closed = 1;
nodes = (
"178 -94 OFFCURVE",
"188 -84 OFFCURVE",
"188 -71 CURVE SMOOTH",
"188 -58 OFFCURVE",
"178 -48 OFFCURVE",
"165 -48 CURVE SMOOTH",
"152 -48 OFFCURVE",
"142 -58 OFFCURVE",
"142 -71 CURVE SMOOTH",
"142 -84 OFFCURVE",
"152 -94 OFFCURVE",
"165 -94 CURVE SMOOTH"
);
},
{
closed = 1;
nodes = (
"178 -150 OFFCURVE",
"188 -140 OFFCURVE",
"188 -127 CURVE SMOOTH",
"188 -114 OFFCURVE",
"178 -104 OFFCURVE",
"165 -104 CURVE SMOOTH",
"152 -104 OFFCURVE",
"142 -114 OFFCURVE",
"142 -127 CURVE SMOOTH",
"142 -140 OFFCURVE",
"152 -150 OFFCURVE",
"165 -150 CURVE SMOOTH"
);
}
);
width = 600;
}
);
unicode = 05B1;
},
{
glyphname = "hatafpatah-hb";
lastChange = "2020-10-23 14:08:25 +0000";
layers = (
{
anchors = (
{
name = _bottom;
position = "{150, 0}";
}
);
layerId = "83682BA5-5A7B-4081-8B26-D550B6F33EEB";
paths = (
{
closed = 1;
nodes = (
"187 -98 LINE",
"187 -56 LINE",
"30 -56 LINE",
"30 -98 LINE"
);
},
{
closed = 1;
nodes = (
"254 -106 OFFCURVE",
"267 -93 OFFCURVE",
"267 -76 CURVE SMOOTH",
"267 -59 OFFCURVE",
"254 -46 OFFCURVE",
"237 -46 CURVE SMOOTH",
"220 -46 OFFCURVE",
"207 -59 OFFCURVE",
"207 -76 CURVE SMOOTH",
"207 -93 OFFCURVE",
"220 -106 OFFCURVE",
"237 -106 CURVE SMOOTH"
);
},
{
closed = 1;
nodes = (
"254 -182 OFFCURVE",
"267 -169 OFFCURVE",
"267 -152 CURVE SMOOTH",
"267 -135 OFFCURVE",
"254 -122 OFFCURVE",
"237 -122 CURVE SMOOTH",
"220 -122 OFFCURVE",
"207 -135 OFFCURVE",
"207 -152 CURVE SMOOTH",
"207 -169 OFFCURVE",
"220 -182 OFFCURVE",
"237 -182 CURVE SMOOTH"
);
}
);
width = 305;
},
{
anchors = (
{
name = _bottom;
position = "{152, 0}";
}
);
layerId = "E6A807D2-02F5-45B7-9AC8-B5230FFEC057";
paths = (
{
closed = 1;
nodes = (
"187 -118 LINE",
"187 -56 LINE",
"30 -56 LINE",
"30 -118 LINE"
);
},
{
closed = 1;
nodes = (
"257 -124 OFFCURVE",
"273 -109 OFFCURVE",
"273 -88 CURVE SMOOTH",
"273 -68 OFFCURVE",
"257 -52 OFFCURVE",
"237 -52 CURVE SMOOTH",
"217 -52 OFFCURVE",
"201 -68 OFFCURVE",
"201 -88 CURVE SMOOTH",
"201 -109 OFFCURVE",
"217 -124 OFFCURVE",
"237 -124 CURVE SMOOTH"
);
},
{
closed = 1;
nodes = (
"257 -216 OFFCURVE",
"273 -200 OFFCURVE",
"273 -180 CURVE SMOOTH",
"273 -159 OFFCURVE",
"257 -144 OFFCURVE",
"237 -144 CURVE SMOOTH",
"217 -144 OFFCURVE",
"201 -159 OFFCURVE",
"201 -180 CURVE SMOOTH",
"201 -200 OFFCURVE",
"217 -216 OFFCURVE",
"237 -216 CURVE SMOOTH"
);
}
);
width = 303;
},
{
anchors = (
{
name = _bottom;
position = "{129, 0}";
}
);
layerId = "A98666DC-4638-42B6-8332-BBF4982DF0EF";
paths = (
{
closed = 1;
nodes = (
"157 -86 LINE",
"157 -56 LINE",
"20 -56 LINE",
"20 -86 LINE"
);
},
{
closed = 1;
nodes = (
"208 -94 OFFCURVE",
"218 -84 OFFCURVE",
"218 -71 CURVE SMOOTH",
"218 -58 OFFCURVE",
"208 -48 OFFCURVE",
"195 -48 CURVE SMOOTH",
"182 -48 OFFCURVE",
"172 -58 OFFCURVE",
"172 -71 CURVE SMOOTH",
"172 -84 OFFCURVE",
"182 -94 OFFCURVE",
"195 -94 CURVE SMOOTH"
);
},
{
closed = 1;
nodes = (
"208 -152 OFFCURVE",
"218 -142 OFFCURVE",
"218 -129 CURVE SMOOTH",
"218 -116 OFFCURVE",
"208 -106 OFFCURVE",
"195 -106 CURVE SMOOTH",
"182 -106 OFFCURVE",
"172 -116 OFFCURVE",
"172 -129 CURVE SMOOTH",
"172 -142 OFFCURVE",
"182 -152 OFFCURVE",
"195 -152 CURVE SMOOTH"
);
}
);
width = 238;
}
);
unicode = 05B2;
},
{
glyphname = "hatafqamats-hb";
lastChange = "2020-10-23 14:08:25 +0000";
layers = (
{
anchors = (
{
name = _bottom;
position = "{242, 0}";
}
);
layerId = "83682BA5-5A7B-4081-8B26-D550B6F33EEB";
paths = (
{
closed = 1;
nodes = (
"267 -98 LINE",
"267 -56 LINE",
"110 -56 LINE",
"110 -98 LINE"
);
},
{
closed = 1;
nodes = (
"212 -156 LINE",
"212 -83 LINE",
"165 -83 LINE",
"165 -156 LINE"
);
},
{
closed = 1;
nodes = (
"333 -106 OFFCURVE",
"346 -93 OFFCURVE",
"346 -76 CURVE SMOOTH",
"346 -59 OFFCURVE",
"333 -46 OFFCURVE",
"316 -46 CURVE SMOOTH",
"299 -46 OFFCURVE",
"286 -59 OFFCURVE",
"286 -76 CURVE SMOOTH",
"286 -93 OFFCURVE",
"299 -106 OFFCURVE",
"316 -106 CURVE SMOOTH"
);
},
{
closed = 1;
nodes = (
"333 -182 OFFCURVE",
"346 -169 OFFCURVE",
"346 -152 CURVE SMOOTH",
"346 -135 OFFCURVE",
"333 -122 OFFCURVE",
"316 -122 CURVE SMOOTH",
"299 -122 OFFCURVE",
"286 -135 OFFCURVE",
"286 -152 CURVE SMOOTH",
"286 -169 OFFCURVE",
"299 -182 OFFCURVE",
"316 -182 CURVE SMOOTH"
);
}
);
width = 466;
},
{
anchors = (
{
name = _bottom;
position = "{152, 0}";
}
);
layerId = "E6A807D2-02F5-45B7-9AC8-B5230FFEC057";
paths = (
{
closed = 1;
nodes = (
"187 -118 LINE",
"187 -56 LINE",
"30 -56 LINE",
"30 -118 LINE"
);
},
{
closed = 1;
nodes = (
"257 -124 OFFCURVE",
"273 -109 OFFCURVE",
"273 -88 CURVE SMOOTH",
"273 -68 OFFCURVE",
"257 -52 OFFCURVE",
"237 -52 CURVE SMOOTH",
"217 -52 OFFCURVE",
"201 -68 OFFCURVE",
"201 -88 CURVE SMOOTH",
"201 -109 OFFCURVE",
"217 -124 OFFCURVE",
"237 -124 CURVE SMOOTH"
);
},
{
closed = 1;
nodes = (
"257 -216 OFFCURVE",
"273 -200 OFFCURVE",
"273 -180 CURVE SMOOTH",
"273 -159 OFFCURVE",
"257 -144 OFFCURVE",
"237 -144 CURVE SMOOTH",
"217 -144 OFFCURVE",
"201 -159 OFFCURVE",
"201 -180 CURVE SMOOTH",
"201 -200 OFFCURVE",
"217 -216 OFFCURVE",
"237 -216 CURVE SMOOTH"
);
},
{
closed = 1;
nodes = (
"142 -156 LINE",
"142 -56 LINE",
"75 -56 LINE",
"75 -156 LINE"
);
}
);
width = 303;
},
{
anchors = (
{
name = _bottom;
position = "{116, 0}";
}
);
layerId = "A98666DC-4638-42B6-8332-BBF4982DF0EF";
paths = (
{
closed = 1;
nodes = (
"157 -86 LINE",
"157 -56 LINE",
"20 -56 LINE",
"20 -86 LINE"
);
},
{
closed = 1;
nodes = (
"208 -94 OFFCURVE",
"218 -84 OFFCURVE",
"218 -71 CURVE SMOOTH",
"218 -58 OFFCURVE",
"208 -48 OFFCURVE",
"195 -48 CURVE SMOOTH",
"182 -48 OFFCURVE",
"172 -58 OFFCURVE",
"172 -71 CURVE SMOOTH",
"172 -84 OFFCURVE",
"182 -94 OFFCURVE",
"195 -94 CURVE SMOOTH"
);
},
{
closed = 1;
nodes = (
"208 -152 OFFCURVE",
"218 -142 OFFCURVE",
"218 -129 CURVE SMOOTH",
"218 -116 OFFCURVE",
"208 -106 OFFCURVE",
"195 -106 CURVE SMOOTH",
"182 -106 OFFCURVE",
"172 -116 OFFCURVE",
"172 -129 CURVE SMOOTH",
"172 -142 OFFCURVE",
"182 -152 OFFCURVE",
"195 -152 CURVE SMOOTH"
);
},
{
closed = 1;
nodes = (
"104 -130 LINE",
"104 -56 LINE",
"74 -56 LINE",
"74 -130 LINE"
);
}
);
width = 238;
}
);
unicode = 05B3;
},
{
glyphname = "hiriq-hb";
lastChange = "2020-10-23 14:08:25 +0000";
layers = (
{
anchors = (
{
name = _bottom;
position = "{50, 0}";
}
);
layerId = "83682BA5-5A7B-4081-8B26-D550B6F33EEB";
paths = (
{
closed = 1;
nodes = (
"67 -130 OFFCURVE",
"80 -117 OFFCURVE",
"80 -100 CURVE SMOOTH",
"80 -83 OFFCURVE",
"67 -70 OFFCURVE",
"50 -70 CURVE SMOOTH",
"33 -70 OFFCURVE",
"20 -83 OFFCURVE",
"20 -100 CURVE SMOOTH",
"20 -117 OFFCURVE",
"33 -130 OFFCURVE",
"50 -130 CURVE SMOOTH"
);
}
);
width = 100;
},
{
anchors = (
{
name = _bottom;
position = "{56, 0}";
}
);
layerId = "E6A807D2-02F5-45B7-9AC8-B5230FFEC057";
paths = (
{
closed = 1;
nodes = (
"76 -124 OFFCURVE",
"92 -109 OFFCURVE",
"92 -88 CURVE SMOOTH",
"92 -68 OFFCURVE",
"76 -52 OFFCURVE",
"56 -52 CURVE SMOOTH",
"36 -52 OFFCURVE",
"20 -68 OFFCURVE",
"20 -88 CURVE SMOOTH",
"20 -109 OFFCURVE",
"36 -124 OFFCURVE",
"56 -124 CURVE SMOOTH"
);
}
);
width = 112;
},
{
anchors = (
{
name = _bottom;
position = "{43, 0}";
}
);
layerId = "A98666DC-4638-42B6-8332-BBF4982DF0EF";
paths = (
{
closed = 1;
nodes = (
"56 -94 OFFCURVE",
"66 -84 OFFCURVE",
"66 -71 CURVE SMOOTH",
"66 -58 OFFCURVE",
"56 -48 OFFCURVE",
"43 -48 CURVE SMOOTH",
"30 -48 OFFCURVE",
"20 -58 OFFCURVE",
"20 -71 CURVE SMOOTH",
"20 -84 OFFCURVE",
"30 -94 OFFCURVE",
"43 -94 CURVE SMOOTH"
);
}
);
width = 86;
}
);
unicode = 05B4;
},
{
glyphname = "tsere-hb";
lastChange = "2020-10-23 14:08:25 +0000";
layers = (
{
anchors = (
{
name = _bottom;
position = "{95, 0}";
}
);
layerId = "83682BA5-5A7B-4081-8B26-D550B6F33EEB";
paths = (
{
closed = 1;
nodes = (
"67 -116 OFFCURVE",
"80 -103 OFFCURVE",
"80 -86 CURVE SMOOTH",
"80 -69 OFFCURVE",
"67 -56 OFFCURVE",
"50 -56 CURVE SMOOTH",
"33 -56 OFFCURVE",
"20 -69 OFFCURVE",
"20 -86 CURVE SMOOTH",
"20 -103 OFFCURVE",
"33 -116 OFFCURVE",
"50 -116 CURVE SMOOTH"
);
},
{
closed = 1;
nodes = (
"143 -116 OFFCURVE",
"156 -103 OFFCURVE",
"156 -86 CURVE SMOOTH",
"156 -69 OFFCURVE",
"143 -56 OFFCURVE",
"126 -56 CURVE SMOOTH",
"109 -56 OFFCURVE",
"96 -69 OFFCURVE",
"96 -86 CURVE SMOOTH",
"96 -103 OFFCURVE",
"109 -116 OFFCURVE",
"126 -116 CURVE SMOOTH"
);
}
);
width = 176;
},
{
anchors = (
{
name = _bottom;
position = "{102, 0}";
}
);
layerId = "E6A807D2-02F5-45B7-9AC8-B5230FFEC057";
paths = (
{
closed = 1;
nodes = (
"77 -122 OFFCURVE",
"92 -106 OFFCURVE",
"92 -86 CURVE SMOOTH",
"92 -66 OFFCURVE",
"77 -50 OFFCURVE",
"56 -50 CURVE SMOOTH",
"36 -50 OFFCURVE",
"20 -66 OFFCURVE",
"20 -86 CURVE SMOOTH",
"20 -106 OFFCURVE",
"36 -122 OFFCURVE",
"56 -122 CURVE SMOOTH"
);
},
{
closed = 1;
nodes = (
"168 -122 OFFCURVE",
"184 -106 OFFCURVE",
"184 -86 CURVE SMOOTH",
"184 -66 OFFCURVE",
"168 -50 OFFCURVE",
"148 -50 CURVE SMOOTH",
"127 -50 OFFCURVE",
"112 -66 OFFCURVE",
"112 -86 CURVE SMOOTH",
"112 -106 OFFCURVE",
"127 -122 OFFCURVE",
"148 -122 CURVE SMOOTH"
);
}
);
width = 204;
},
{
anchors = (
{
name = _bottom;
position = "{73, 0}";
}
);
layerId = "A98666DC-4638-42B6-8332-BBF4982DF0EF";
paths = (
{
closed = 1;
nodes = (
"66 -58 OFFCURVE",
"56 -48 OFFCURVE",
"43 -48 CURVE SMOOTH",
"30 -48 OFFCURVE",
"20 -58 OFFCURVE",
"20 -71 CURVE SMOOTH",
"20 -84 OFFCURVE",
"30 -94 OFFCURVE",
"43 -94 CURVE SMOOTH",
"56 -94 OFFCURVE",
"66 -84 OFFCURVE",
"66 -71 CURVE SMOOTH"
);
},
{
closed = 1;
nodes = (
"124 -58 OFFCURVE",
"114 -48 OFFCURVE",
"101 -48 CURVE SMOOTH",
"88 -48 OFFCURVE",
"78 -58 OFFCURVE",
"78 -71 CURVE SMOOTH",
"78 -84 OFFCURVE",
"88 -94 OFFCURVE",
"101 -94 CURVE SMOOTH",
"114 -94 OFFCURVE",
"124 -84 OFFCURVE",
"124 -71 CURVE SMOOTH"
);
}
);
width = 144;
}
);
unicode = 05B5;
},
{
glyphname = "segol-hb";
lastChange = "2020-10-23 14:08:25 +0000";
layers = (
{
anchors = (
{
name = _bottom;
position = "{88, 0}";
}
);
layerId = "83682BA5-5A7B-4081-8B26-D550B6F33EEB";
paths = (
{
closed = 1;
nodes = (
"80 -69 OFFCURVE",
"67 -56 OFFCURVE",
"50 -56 CURVE SMOOTH",
"33 -56 OFFCURVE",
"20 -69 OFFCURVE",
"20 -86 CURVE SMOOTH",
"20 -103 OFFCURVE",
"33 -116 OFFCURVE",
"50 -116 CURVE SMOOTH",
"67 -116 OFFCURVE",
"80 -103 OFFCURVE",
"80 -86 CURVE SMOOTH"
);
},
{
closed = 1;
nodes = (
"156 -69 OFFCURVE",
"143 -56 OFFCURVE",
"126 -56 CURVE SMOOTH",
"109 -56 OFFCURVE",
"96 -69 OFFCURVE",
"96 -86 CURVE SMOOTH",
"96 -103 OFFCURVE",
"109 -116 OFFCURVE",
"126 -116 CURVE SMOOTH",
"143 -116 OFFCURVE",
"156 -103 OFFCURVE",
"156 -86 CURVE SMOOTH"
);
},
{
closed = 1;
nodes = (
"105 -182 OFFCURVE",
"118 -169 OFFCURVE",
"118 -152 CURVE SMOOTH",
"118 -135 OFFCURVE",
"105 -122 OFFCURVE",
"88 -122 CURVE SMOOTH",
"71 -122 OFFCURVE",
"58 -135 OFFCURVE",
"58 -152 CURVE SMOOTH",
"58 -169 OFFCURVE",
"71 -182 OFFCURVE",
"88 -182 CURVE SMOOTH"
);
}
);
width = 176;
},
{
anchors = (
{
name = _bottom;
position = "{108, 0}";
}
);
layerId = "E6A807D2-02F5-45B7-9AC8-B5230FFEC057";
paths = (
{
closed = 1;
nodes = (
"92 -72 OFFCURVE",
"77 -56 OFFCURVE",
"56 -56 CURVE SMOOTH",
"36 -56 OFFCURVE",
"20 -72 OFFCURVE",
"20 -92 CURVE SMOOTH",
"20 -113 OFFCURVE",
"36 -128 OFFCURVE",
"56 -128 CURVE SMOOTH",
"77 -128 OFFCURVE",
"92 -113 OFFCURVE",
"92 -92 CURVE SMOOTH"
);
},
{
closed = 1;
nodes = (
"184 -72 OFFCURVE",
"168 -56 OFFCURVE",
"148 -56 CURVE SMOOTH",
"127 -56 OFFCURVE",
"112 -72 OFFCURVE",
"112 -92 CURVE SMOOTH",
"112 -113 OFFCURVE",
"127 -128 OFFCURVE",
"148 -128 CURVE SMOOTH",
"168 -128 OFFCURVE",
"184 -113 OFFCURVE",
"184 -92 CURVE SMOOTH"
);
},
{
closed = 1;
nodes = (
"122 -208 OFFCURVE",
"138 -192 OFFCURVE",
"138 -172 CURVE SMOOTH",
"138 -151 OFFCURVE",
"122 -136 OFFCURVE",
"102 -136 CURVE SMOOTH",
"82 -136 OFFCURVE",
"66 -151 OFFCURVE",
"66 -172 CURVE SMOOTH",
"66 -192 OFFCURVE",
"82 -208 OFFCURVE",
"102 -208 CURVE SMOOTH"
);
}
);
width = 204;
},
{
anchors = (
{
name = _bottom;
position = "{73, 0}";
}
);
layerId = "A98666DC-4638-42B6-8332-BBF4982DF0EF";
paths = (
{
closed = 1;
nodes = (
"66 -58 OFFCURVE",
"56 -48 OFFCURVE",
"43 -48 CURVE SMOOTH",
"30 -48 OFFCURVE",
"20 -58 OFFCURVE",
"20 -71 CURVE SMOOTH",
"20 -84 OFFCURVE",
"30 -94 OFFCURVE",
"43 -94 CURVE SMOOTH",
"56 -94 OFFCURVE",
"66 -84 OFFCURVE",
"66 -71 CURVE SMOOTH"
);
},
{
closed = 1;
nodes = (
"124 -58 OFFCURVE",
"114 -48 OFFCURVE",
"101 -48 CURVE SMOOTH",
"88 -48 OFFCURVE",
"78 -58 OFFCURVE",
"78 -71 CURVE SMOOTH",
"78 -84 OFFCURVE",
"88 -94 OFFCURVE",
"101 -94 CURVE SMOOTH",
"114 -94 OFFCURVE",
"124 -84 OFFCURVE",
"124 -71 CURVE SMOOTH"
);
},
{
closed = 1;
nodes = (
"95 -104 OFFCURVE",
"85 -94 OFFCURVE",
"72 -94 CURVE SMOOTH",
"59 -94 OFFCURVE",
"49 -104 OFFCURVE",
"49 -117 CURVE SMOOTH",
"49 -130 OFFCURVE",
"59 -140 OFFCURVE",
"72 -140 CURVE SMOOTH",
"85 -140 OFFCURVE",
"95 -130 OFFCURVE",
"95 -117 CURVE SMOOTH"
);
}
);
width = 144;
}
);
unicode = 05B6;
},
{
glyphname = "patah-hb";
lastChange = "2020-10-23 14:08:25 +0000";
layers = (
{
anchors = (
{
name = _bottom;
position = "{111, 0}";
}
);
layerId = "83682BA5-5A7B-4081-8B26-D550B6F33EEB";
paths = (
{
closed = 1;
nodes = (
"187 -98 LINE",
"187 -56 LINE",
"30 -56 LINE",
"30 -98 LINE"
);
}
);
width = 217;
},
{
anchors = (
{
name = _bottom;
position = "{99, 0}";
}
);
layerId = "E6A807D2-02F5-45B7-9AC8-B5230FFEC057";
paths = (
{
closed = 1;
nodes = (
"177 -118 LINE",
"177 -56 LINE",
"20 -56 LINE",
"20 -118 LINE"
);
}
);
width = 197;
},
{
anchors = (
{
name = _bottom;
position = "{92, 0}";
}
);
layerId = "A98666DC-4638-42B6-8332-BBF4982DF0EF";
paths = (
{
closed = 1;
nodes = (
"157 -86 LINE",
"157 -56 LINE",
"20 -56 LINE",
"20 -86 LINE"
);
}
);
width = 177;
}
);
unicode = 05B7;
},
{
glyphname = "qamats-hb";
lastChange = "2020-10-23 14:08:25 +0000";
layers = (
{
anchors = (
{
name = _bottom;
position = "{93, 0}";
}
);
layerId = "83682BA5-5A7B-4081-8B26-D550B6F33EEB";
paths = (
{
closed = 1;
nodes = (
"177 -98 LINE",
"177 -56 LINE",
"20 -56 LINE",
"20 -98 LINE"
);
},
{
closed = 1;
nodes = (
"122 -156 LINE",
"122 -83 LINE",
"75 -83 LINE",
"75 -156 LINE"
);
}
);
width = 197;
},
{
anchors = (
{
name = _bottom;
position = "{99, 0}";
}
);
layerId = "E6A807D2-02F5-45B7-9AC8-B5230FFEC057";
paths = (
{
closed = 1;
nodes = (
"177 -118 LINE",
"177 -56 LINE",
"20 -56 LINE",
"20 -118 LINE"
);
},
{
closed = 1;
nodes = (
"132 -156 LINE",
"132 -56 LINE",
"65 -56 LINE",
"65 -156 LINE"
);
}
);
width = 197;
},
{
anchors = (
{
name = _bottom;
position = "{102, 0}";
}
);
layerId = "A98666DC-4638-42B6-8332-BBF4982DF0EF";
paths = (
{
closed = 1;
nodes = (
"157 -86 LINE",
"157 -56 LINE",
"20 -56 LINE",
"20 -86 LINE"
);
},
{
closed = 1;
nodes = (
"104 -130 LINE",
"104 -56 LINE",
"74 -56 LINE",
"74 -130 LINE"
);
}
);
width = 177;
}
);
unicode = 05B8;
},
{
glyphname = "holam-hb";
lastChange = "2020-10-23 14:29:49 +0000";
layers = (
{
anchors = (
{
name = _topleft;
position = "{75, 600}";
}
);
background = {
anchors = (
{
name = center;
position = "{59, 550}";
}
);
};
layerId = "83682BA5-5A7B-4081-8B26-D550B6F33EEB";
paths = (
{
closed = 1;
nodes = (
"67 630 OFFCURVE",
"80 644 OFFCURVE",
"80 660 CURVE SMOOTH",
"80 677 OFFCURVE",
"67 690 OFFCURVE",
"50 690 CURVE SMOOTH",
"33 690 OFFCURVE",
"20 677 OFFCURVE",
"20 660 CURVE SMOOTH",
"20 644 OFFCURVE",
"33 630 OFFCURVE",
"50 630 CURVE SMOOTH"
);
}
);
width = 100;
},
{
anchors = (
{
name = _topleft;
position = "{6, 500}";
}
);
background = {
anchors = (
{
name = _topleft;
position = "{94, 500}";
}
);
};
layerId = "E6A807D2-02F5-45B7-9AC8-B5230FFEC057";
paths = (
{
closed = 1;
nodes = (
"76 628 OFFCURVE",
"92 645 OFFCURVE",
"92 664 CURVE SMOOTH",
"92 684 OFFCURVE",
"76 700 OFFCURVE",
"56 700 CURVE SMOOTH",
"36 700 OFFCURVE",
"20 684 OFFCURVE",
"20 664 CURVE SMOOTH",
"20 645 OFFCURVE",
"36 628 OFFCURVE",
"56 628 CURVE SMOOTH"
);
}
);
width = 112;
},
{
anchors = (
{
name = _topleft;
position = "{37, 500}";
}
);
layerId = "A98666DC-4638-42B6-8332-BBF4982DF0EF";
paths = (
{
closed = 1;
nodes = (
"56 637 OFFCURVE",
"66 647 OFFCURVE",
"66 660 CURVE SMOOTH",
"66 673 OFFCURVE",
"56 683 OFFCURVE",
"43 683 CURVE SMOOTH",
"30 683 OFFCURVE",
"20 673 OFFCURVE",
"20 660 CURVE SMOOTH",
"20 647 OFFCURVE",
"30 637 OFFCURVE",
"43 637 CURVE SMOOTH"
);
}
);
width = 86;
}
);
unicode = 05B9;
},
{
glyphname = "holamhaser-hb";
lastChange = "2020-10-23 14:29:38 +0000";
layers = (
{
anchors = (
{
name = _topleft;
position = "{109, 600}";
}
);
layerId = "83682BA5-5A7B-4081-8B26-D550B6F33EEB";
paths = (
{
closed = 1;
nodes = (
"67 630 OFFCURVE",
"80 644 OFFCURVE",
"80 660 CURVE SMOOTH",
"80 677 OFFCURVE",
"67 690 OFFCURVE",
"50 690 CURVE SMOOTH",
"33 690 OFFCURVE",
"20 677 OFFCURVE",
"20 660 CURVE SMOOTH",
"20 644 OFFCURVE",
"33 630 OFFCURVE",
"50 630 CURVE SMOOTH"
);
}
);
width = 100;
},
{
anchors = (
{
name = _topleft;
position = "{-15, 500}";
}
);
layerId = "E6A807D2-02F5-45B7-9AC8-B5230FFEC057";
paths = (
{
closed = 1;
nodes = (
"76 628 OFFCURVE",
"92 645 OFFCURVE",
"92 664 CURVE SMOOTH",
"92 684 OFFCURVE",
"76 700 OFFCURVE",
"56 700 CURVE SMOOTH",
"36 700 OFFCURVE",
"20 684 OFFCURVE",
"20 664 CURVE SMOOTH",
"20 645 OFFCURVE",
"36 628 OFFCURVE",
"56 628 CURVE SMOOTH"
);
}
);
width = 112;
},
{
anchors = (
{
name = _topleft;
position = "{37, 500}";
}
);
layerId = "A98666DC-4638-42B6-8332-BBF4982DF0EF";
paths = (
{
closed = 1;
nodes = (
"56 637 OFFCURVE",
"66 647 OFFCURVE",
"66 660 CURVE SMOOTH",
"66 673 OFFCURVE",
"56 683 OFFCURVE",
"43 683 CURVE SMOOTH",
"30 683 OFFCURVE",
"20 673 OFFCURVE",
"20 660 CURVE SMOOTH",
"20 647 OFFCURVE",
"30 637 OFFCURVE",
"43 637 CURVE SMOOTH"
);
}
);
width = 86;
}
);
unicode = 05BA;
},
